<?xml version="1.0" encoding="utf-8"?>
<!-- Generator: Adobe Illustrator 18.1.1, SVG Export Plug-In . SVG Version: 6.00 Build 0)  -->
<svg version="1.1" id="Capa_1" xmlns="http://www.w3.org/2000/svg" xmlns:xlink="http://www.w3.org/1999/xlink" x="0px" y="0px"
	 viewBox="0 0 792 612" enable-background="new 0 0 792 612" xml:space="preserve">
<g>
	<g>
		<path fill="#010002" d="M762.2,314.1c-6.7-15.7-14.5-30.6-22.8-45.6C629.9,329,563.9,367.9,476.7,424l0.4,0.4
			c96.6-38.5,168.9-64,288.3-102.1C764.2,320,763.4,316.8,762.2,314.1z"/>
		<path fill="#010002" d="M424.8,380.8c40.8-96.2,72.3-165.4,126.9-278.5c-0.8-0.4-1.6-0.8-2.7-1.2c-18.9-7.9-38.9-13.7-58.9-18.9
			c-28.3,122.1-44.8,196-66,298.5C424.4,380.4,424.4,380.8,424.8,380.8z"/>
		<path fill="#010002" d="M372.6,380.4c-21.2-102.5-37.3-176.4-66-298.5c-20.4,4.7-40.1,11-58.9,18.9c-0.8,0.4-1.6,0.8-2.7,1.2
			c54.6,113.5,86,182.6,126.9,278.5C372.2,380.8,372.2,380.4,372.6,380.4z"/>
		<path fill="#010002" d="M440.9,387.9c58.9-86,104.1-147.3,181.5-246.3c-2-1.2-3.5-2.7-5.5-3.9c-15.7-10.6-32.2-19.6-49.5-27.5
			C512.8,222.9,481,292.1,440.1,387.9C440.5,387.5,440.9,387.5,440.9,387.9z"/>
		<path fill="#010002" d="M455.5,397.7C529.7,325.1,587,274,682.9,193.1c-11.8-12.2-24.7-24.4-34.6-32.6c-3.5-3.1-7.9-5.9-11.8-8.6
			C559.2,250.4,514,311.7,455.1,397.3C455.1,397.3,455.1,397.7,455.5,397.7z"/>
		<path fill="#010002" d="M483,440.9c102.9-19.2,178.3-30.2,302.8-44.8c-0.4-2.7-0.8-5.5-1.6-8.6c-3.5-16.9-8.2-33.4-13.7-49.5
			c-119.4,38.1-191.3,63.2-287.9,102.1C483,440.5,483,440.9,483,440.9z"/>
		<path fill="#010002" d="M467.6,410.3c87.2-56.6,153.2-95.4,263.2-155.9c-1.6-2.7-3.1-5.5-5.1-8.2c-7.1-10.6-14.9-21.2-23.2-31
			c-2.4-3.1-5.1-6.3-8.2-9.4c-95.8,80.9-152.8,132-227.4,204.2C467.2,409.9,467.2,409.9,467.6,410.3z"/>
		<path fill="#010002" d="M34.4,314.1c-1.2,2.7-2,5.9-3.1,8.6c119.4,38.1,191.7,63.6,288.3,102.1c0-0.4,0.4-0.4,0.4-0.8
			c-87.2-56.6-152.8-95.4-262.8-155.5C49,283,41.1,298.4,34.4,314.1z"/>
		<path fill="#010002" d="M313.7,440.1c-96.6-38.5-168.5-64-287.9-102.1c-5.5,16.1-10.2,32.6-13.7,49.5c-0.4,2.7-0.8,5.5-1.6,8.6
			c124.5,14.5,199.9,25.5,302.8,44.8C313.7,440.5,313.7,440.5,313.7,440.1z"/>
		<path fill="#010002" d="M342,397.3C283,311.7,237.5,250.4,160.5,151.9c-3.9,2.7-7.9,5.5-11.8,8.6c-10.2,8.2-22.8,20.4-34.6,32.6
			c95.8,81.3,152.8,132.4,227.4,204.6C341.6,397.7,341.6,397.3,342,397.3z"/>
		<path fill="#010002" d="M329.8,409.9c-74.6-72.3-131.6-123.3-227.4-204.2c-3.1,3.5-5.9,6.7-8.2,9.4c-8.2,9.8-15.7,20.4-23.2,31
			c-2,2.7-3.1,5.5-5.1,8.2c110,60.5,176,99.4,263.2,155.9C329.4,409.9,329.4,409.9,329.8,409.9z"/>
		<path fill="#010002" d="M478.2,501.8c39.7,3.9,77,10.2,108.4,20c104.1,31.4,190.9,48.7,193.6,38.5c1.6-6.3,2.7-12.2,4.3-18.5
			c3.5-16.9,5.5-34.2,6.7-51.8c-124.9-9.8-200.3-13.7-305.6-14.9C484.5,484.1,482.2,493.2,478.2,501.8z"/>
		<path fill="#010002" d="M5.4,489.2c1.2,17.7,3.1,35,6.7,51.8c1.2,6.3,2.7,12.6,4.3,18.5c2.4,10.2,89.6-7.1,193.6-38.5
			c31.4-9.4,68.7-16.1,108.4-20c-3.9-8.2-6.3-17.7-7.5-27.1C205.7,475.5,130.3,479.8,5.4,489.2z"/>
		<path fill="#010002" d="M788.5,412.6C664,427.2,588.6,438.2,486.1,457c0,0.4,0,0.4,0,0.8c105.3,1.2,181.1,5.1,305.6,14.9
			c0-2.7,0.4-5.5,0.4-8.2C792.1,447.2,790.9,429.5,788.5,412.6z"/>
		<path fill="#010002" d="M310.5,457.4C208,438.2,132.6,427.6,8.1,413c-2.4,16.9-3.5,34.2-3.5,51.8c0,2.7,0,5.5,0.4,8.2
			c124.9-9.8,200.7-13.7,305.6-14.9C310.5,457.8,310.5,457.4,310.5,457.4z"/>
		<path fill="#010002" d="M356.5,387.5c-40.8-95.8-72.7-165-127.3-277.7c-17.3,8.2-33.8,17.3-49.5,27.5c-2,1.2-3.5,2.7-5.5,3.9
			c77.4,99,122.5,160.6,181.5,246.3C355.7,387.5,356.1,387.5,356.5,387.5z"/>
		<path fill="#010002" d="M389.1,377.3c0.4,0,0.4,0,0.8,0c0-104.5-0.4-179.9-0.4-305.2c7.1,0,10.6,0,18.1,0
			c-0.4,124.9-0.4,200.3-0.4,305.2c0.4,0,0.4,0,0.8,0c20.8-102.5,36.9-176.4,64.8-298.5c5.5,1.2,8.6,1.6,13.4,2.7
			c-3.5-0.8-7.1-2-10.6-2.7c-24.7-4.7-50.7-7.5-77-7.5c-26.3,0-51.8,2.7-77,7.5c-3.5,0.8-7.1,2-10.6,2.7c4.3-0.8,7.9-1.6,13.4-2.7
			C352.2,200.6,368.3,274.8,389.1,377.3z"/>
		<path fill="#010002" d="M469.6,457.8c-0.4-3.9-0.8-7.5-2-11.4c-0.4-0.8-0.4-1.6-0.8-2.4c-1.2-3.5-2.4-7.5-4.3-10.6
			c-0.4-0.8-0.8-1.6-1.2-2.4c-2-3.5-3.9-6.7-6.3-9.8c-0.4-0.8-1.2-1.2-1.6-2c-2.4-3.1-5.1-5.9-8.2-8.6c-0.8-0.4-1.2-1.2-2-1.6
			c-3.1-2.4-6.3-4.7-9.8-6.7c-0.8-0.4-1.6-0.8-2.4-1.2c-3.5-2-7.1-3.5-11-4.7c-0.8-0.4-1.6-0.4-2.4-0.8c-3.9-1.2-7.5-2-11.8-2.4
			c-0.8,0-1.6,0-2.4-0.4c-2,0-3.9-0.8-5.9-0.8s-3.9,0.4-5.9,0.8c-0.8,0-1.6,0-2.4,0.4c-3.9,0.4-7.9,1.2-11.8,2.4
			c-0.8,0.4-1.6,0.4-2.4,0.8c-3.9,1.2-7.5,2.7-11,4.7c-0.8,0.4-1.6,0.8-2.4,1.2c-3.5,2-6.7,4.3-9.8,6.7c-0.8,0.4-1.2,1.2-2,1.6
			c-3.1,2.7-5.5,5.5-8.2,8.6c-0.4,0.8-1.2,1.2-1.6,2c-2.4,3.1-4.3,6.3-6.3,9.8c-0.4,0.8-0.8,1.6-1.2,2.4c-1.6,3.5-3.1,7.1-4.3,10.6
			c-0.4,0.8-0.4,1.6-0.8,2.4c-0.8,3.5-1.6,7.5-2,11.4c0,0.8-0.4,1.6-0.4,2.7c0,1.6-0.4,2.7-0.4,4.3c0,3.1,0.4,6.7,0.8,9.8
			c1.2,9.4,4.3,18.1,8.6,25.9c12.6,21.6,35.3,36.1,62.1,36.1s49.5-14.5,62.1-36.1c4.7-7.9,7.5-16.5,8.6-25.9
			c0.4-3.1,0.8-6.3,0.8-9.8c0-1.6-0.4-2.7-0.4-4.3C469.6,459.4,469.6,458.6,469.6,457.8z"/>
	</g>
</g>
</svg>
