<?xml version="1.0" encoding="utf-8"?>
<!-- Generator: Adobe Illustrator 18.1.1, SVG Export Plug-In . SVG Version: 6.00 Build 0)  -->
<svg version="1.1" id="Capa_1" xmlns="http://www.w3.org/2000/svg" xmlns:xlink="http://www.w3.org/1999/xlink" x="0px" y="0px"
	 viewBox="0 0 792 612" enable-background="new 0 0 792 612" xml:space="preserve">
<g>
	<path d="M653.9,291.4c-10.7-27.9-22.4-58.6-41.3-82.2c-14.2-17.8-40.9-33.2-64.5-29.6c-0.3,0-2.3,0.5-5.7,1.2
		c0.9,5.9,1.3,11.9,1.3,18c0,16.8-3.3,33.1-9.8,48.5c-6.3,14.9-15.3,28.2-26.7,39.6c-11.4,11.4-24.8,20.4-39.6,26.7
		c-15.4,6.5-31.7,9.8-48.5,9.8s-33.1-3.3-48.5-9.8c-14.9-6.3-28.2-15.3-39.6-26.7c-11.4-11.4-20.4-24.8-26.7-39.6
		c-1.5-3.7-2.9-7.4-4.1-11.1c-98,22.5-188.8,43.4-194.1,44.6c-4.7,1.1-10.4,1.7-14.6,4c-3.5,1.9-6.1,4.9-6.1,10.2v244.6
		c0,9.6,10.2,18.5,22.7,19.8l90.9,9.5l409,42.6c37.6,3.9,68.1-16.4,68.1-45.3c0-18.3-12.2-35.6-30.6-46.9
		c18.4-7.4,30.6-22.3,30.6-40.5c0-18.2-12.2-35.5-30.6-46.8C699.8,409.9,669.1,331,653.9,291.4z M534.1,564.1l-400.9-41.7v-40.1
		L534.1,524c37.6,3.9,68.1,16.1,68.1,27.1C602.3,562.2,571.7,568,534.1,564.1z M534.1,484.2l-400.9-41.7v-40.1l400.9,41.8
		c37.6,3.9,68.1,16.1,68.1,27.1C602.3,482.3,571.7,488.1,534.1,484.2z M534.1,404.4l-400.9-41.7v-40.1l400.9,41.7
		c37.6,3.9,68.1,16.1,68.1,27.1C602.3,402.5,571.7,408.3,534.1,404.4z"/>
	<path d="M332.7,198.8c0,10.1,1.7,19.8,4.9,28.8c11.9,33.5,43.8,57.4,81.3,57.4c47.6,0,86.3-38.6,86.3-86.3c0-3.2-0.2-6.3-0.5-9.4
		c-4.7-43.2-41.3-76.8-85.7-76.8c-4.5,0-9,0.4-13.3,1c-3-6-6.2-11.9-9.7-17.7c-3.6-5.8-7.4-11.5-11.3-16.9
		c-4.9-6.7-10-13.2-15.3-19.5c-9.8-11.6-20.5-22.6-32.2-32.3c-10.3-8.5-21.2-16.7-33.4-22.1c-6.9-3.1-14.9-2.1-19,5
		c-3.5,6-1.9,16,5,19c5.8,2.5,11.2,5.7,16.4,9.2c1.5,1,3,2.1,4.5,3.1c0.5,0.4,2.5,1.9,3,2.2c2.2,1.8,4.4,3.6,6.6,5.4
		c5.7,4.9,11.1,10,16.3,15.4C341.7,70.1,347,76,352,82.1c1.4,1.7,2.8,3.5,4.2,5.2c0,0,0,0,0,0c0,0.1,0.1,0.1,0.2,0.2
		c0.6,0.8,1.2,1.5,1.7,2.3c0,0,0,0.1,0.1,0.1c2.3,3.1,4.5,6.1,6.6,9.3c1.5,2.2,3,4.4,4.4,6.7c2.8,4.4,5.4,8.8,7.9,13.4
		c0.6,1.1,1.2,2.2,1.7,3.2C351.4,137,332.7,165.7,332.7,198.8z"/>
</g>
</svg>
