<?xml version="1.0" encoding="utf-8"?>
<!-- Generator: Adobe Illustrator 18.1.1, SVG Export Plug-In . SVG Version: 6.00 Build 0)  -->
<svg version="1.1" id="Capa_1" xmlns="http://www.w3.org/2000/svg" xmlns:xlink="http://www.w3.org/1999/xlink" x="0px" y="0px"
	 viewBox="0 0 792 612" enable-background="new 0 0 792 612" xml:space="preserve">
<g>
	<g>
		<path fill="#010002" d="M160.9,505.1l-1-13.6c-17.3,0.3-20.5-6.1-21.4-16.8c-0.9-10.6,1.5-18.2,18.7-20.5l-1-13.5
			c-23,1.7-31.5,16.8-30.2,34.6C127.3,493,137.9,506.8,160.9,505.1z"/>
		<path fill="#010002" d="M240,573v-17H23v54.3h233.6C246.5,601,240,587.8,240,573z"/>
		<path fill="#010002" d="M193.1,149.2h-1.8c-27.1,0-46.2,16.9-46.2,41.5v117.9c0,15.7,7.6,29.4,21.2,37.3c1.2,11,7.4,21.1,19.5,24
			v23.4c0,3.7,3,6.8,6.8,6.8c3.7,0,6.8-3,6.8-6.8v-23.2c12.4-2.7,18.3-13,19.5-24.2c13.5-7.9,21.2-21.6,21.2-37.2V190.5
			C239.9,166.1,220.1,149.2,193.1,149.2z"/>
		<path fill="#010002" d="M198.6,539.1c15.7,0,29.8,1.2,31.3-11.8l8.6-94.9c1.6-13-9.9-11.9-25.7-11.9h-28.5
			c-15.7,0-27.2-1.1-25.7,11.9l8.6,95C168.9,540.3,182.9,539.1,198.6,539.1z"/>
		<path fill="#010002" d="M731.7,0H290.9c-20.6,0-37.3,16.7-37.3,37.3V573c0,20.6,16.7,37.3,37.3,37.3h30.5h410.3
			c20.6,0,37.3-16.7,37.3-37.3V37.3C769,16.7,752.3,0,731.7,0z M526.5,274.7c1.2,17.5-26,17.4-27.1,0c-4.2-62.9,20-125.2-2.9-186.3
			c-6.1-16.4,20.1-23.5,26.2-7.2C546.6,145,522.1,209,526.5,274.7z M594.3,274.7c1.2,17.5-26,17.4-27.1,0
			c-4.2-62.9,20-125.2-2.9-186.3c-6.1-16.4,20.1-23.5,26.2-7.2C614.4,145,589.9,209,594.3,274.7z M662.2,274.7
			c1.2,17.5-26,17.4-27.1,0c-4.2-62.9,20-125.2-2.9-186.3c-6.1-16.4,20.1-23.5,26.2-7.2C682.2,145,657.8,209,662.2,274.7z"/>
	</g>
</g>
</svg>
