<?xml version="1.0" encoding="utf-8"?>
<!-- Generator: Adobe Illustrator 18.1.1, SVG Export Plug-In . SVG Version: 6.00 Build 0)  -->
<svg version="1.1" id="Capa_1" xmlns="http://www.w3.org/2000/svg" xmlns:xlink="http://www.w3.org/1999/xlink" x="0px" y="0px"
	 viewBox="0 0 792 612" enable-background="new 0 0 792 612" xml:space="preserve">
<g>
	<path fill="#010002" d="M647.9,123.8l-152.1,42.4l145.3-62L647.9,123.8z M473.8-47.2l-20.1-3.4L438,106.8L473.8-47.2z M511.6,33.4
		l-33.2,71L529,44.5L511.6,33.4z M526.2,117.9l-10.1-18l-44.3,36.3L526.2,117.9z M464.8,141.9c-11.9-11.4-30.9-11.6-42.5-0.3
		c4.1-2.7-43.2,63-116.2,95.7l22.8,22c8.7-5.6,18.1-6.4,23.2-1.5c5.1,4.9,4.6,14.3-0.8,23.3l22.8,22c30.4-79.7,91.3-118,91.3-118
		C477.1,173.4,477,153.8,464.8,141.9z M365.7,329.7c-3.3,12-5.5,24.9-7,38.4L130.9,603.7c-16,16.2-42.1,16.7-58.4,1l-57.7-55.8
		c-16.3-15.6-16.7-42.1-1-58.4L242,255c13.6-1.2,26.3-4,38.6-7.9l31.9,31c-3.6,7.8-3.7,15.9,1.1,20.3c4.4,4.3,12.1,4.2,20.3,0.2
		L365.7,329.7z M255.6,426.1l-68.1-66.3L72.9,478.3l68.3,65.9L255.6,426.1z"/>
</g>
</svg>
