<?xml version="1.0" encoding="utf-8"?>
<!-- Generator: Adobe Illustrator 18.1.1, SVG Export Plug-In . SVG Version: 6.00 Build 0)  -->
<svg version="1.1" id="Capa_1" xmlns="http://www.w3.org/2000/svg" xmlns:xlink="http://www.w3.org/1999/xlink" x="0px" y="0px"
	 viewBox="158.1 134.3 237.9 151.3" enable-background="new 158.1 134.3 237.9 151.3" xml:space="preserve">
<g>
	<path d="M295,204l-16.3-16.8l36.8-35.7l12.1-9.9l-6.9-6.9l-10.5,12.2l-35.3,36.4l-35.8-36.9l-9.9-12.1l-6.9,6.9l12.2,10.5
		l36.6,35.5L254.8,204H194c0,0,6,36.6,15.3,47.5c9.3,11,40.5,28.9,40.5,28.9v4.7H274h1.7h24.3v-4.7c0,0,31.2-17.9,40.5-28.9
		c9.3-11,15.3-47.5,15.3-47.5L295,204L295,204z M241.4,263.7c-3.1-1.8-6.5-4.1-10.1-6.7c-1.8-1.3-3.6-2.8-5.4-4.3
		c-1.9-1.5-3.4-3.2-5.2-4.8c-1.9-1.8-3.5-4-4.8-6.2c-1.3-2.2-2.2-4.5-3-6.7c-1.5-4.4-2.1-8.7-2.4-12.3c-0.5-7.3,0.6-12,0.6-12
		s1.2,4.7,3.3,11.3c1.1,3.3,2.4,7,4.1,10.8c0.8,1.9,1.9,3.7,3,5.5c1.1,1.7,2.4,3.3,3.9,4.7c1.7,1.6,3.3,3.4,4.9,4.9
		c1.6,1.6,3.2,3.1,4.8,4.6c3.1,3,6.1,5.8,8.6,8.3c5,4.9,8.2,8.5,8.2,8.5S247.5,267.3,241.4,263.7z M261.5,204l13.4-13l13.4,13H261.5
		z"/>
</g>
</svg>
