<?xml version="1.0" encoding="utf-8"?>
<!-- Generator: Adobe Illustrator 18.1.1, SVG Export Plug-In . SVG Version: 6.00 Build 0)  -->
<svg version="1.1" id="Capa_1" xmlns="http://www.w3.org/2000/svg" xmlns:xlink="http://www.w3.org/1999/xlink" x="0px" y="0px"
	 viewBox="158.1 134.3 237.9 151.3" enable-background="new 158.1 134.3 237.9 151.3" xml:space="preserve">
<g>
	<g>
		<g>
			<path d="M196.4,184.4c-0.4,1.6,0.5,3.2,2.1,3.6c1.6,0.4,3.2-0.5,3.6-2.1c0.4-1.6-0.5-3.2-2.1-3.6
				C198.4,181.8,196.8,182.8,196.4,184.4z"/>
			<path d="M262,168.3h-2.8v-0.8c0-3.7-3-6.6-6.6-6.6h-25.8c-2-5.8-5.1-7.3-7.4-7.4c-4.6-0.3-12.1,5.4-15.4,20l9.2,11.7
				c0.5,0.6,0.7,1.5,0.5,2.3l-5.9,22.7c-0.4,1.4-1.8,2.2-3.2,1.9l-23.1-6c-1.4-0.4-2.2-1.8-1.9-3.2l5.9-22.7
				c0.2-0.8,0.8-1.4,1.5-1.7l13.6-5.7c0.3-2.1,1.3-7.1,4.1-11.8h-34.7c-3.7,0-6.6,3-6.6,6.6v58.8c0,13.5,10.9,24.6,24.4,24.8
				c1.4,3.7,5,6.3,9.3,6.3h28.3c4.2,0,7.8-2.6,9.3-6.3c12-0.2,22-9,24-20.5h3.2c12.4,0,22.5-10.1,22.5-22.5v-17.4
				C284.5,178.4,274.4,168.3,262,168.3z M213.1,160.9c1.7-2.2,4-4,6-3.8c1.8,0.1,3,1.9,3.8,3.8H213.1L213.1,160.9z M271.3,208.1
				c0,5.1-4.2,9.3-9.3,9.3h-2.8v-35.9h2.8c5.1,0,9.3,4.2,9.3,9.3V208.1z"/>
		</g>
	</g>
</g>
<g>
	<path d="M316.6,239.7c-3.9-6.9-1.2-17.6,6.8-25.7c9.2-9.2,21.8-11.3,28.3-4.9c0,0,0,0,0,0c-1.3,3.8-5.4,11.8-17.8,16.1
		C322.6,229.2,318.3,235.5,316.6,239.7z M347.9,219.7c-3,3-7.1,5.9-13.1,7.9c-12.1,4.2-15.4,11.2-16.4,14.5c0,0,0.1,0.1,0.1,0.1
		c6.5,6.5,19.1,4.3,28.3-4.9c8.1-8.1,10.8-19.1,6.7-25.9C352.5,213.7,350.8,216.7,347.9,219.7z M322.9,189.9
		c13,1.1,20.1-4.5,22.8-7.4c0,0,0,0,0,0c-3.2-8.5-15.7-11.8-27.8-7.2c-10.7,4-17.5,12.8-16.8,20.6
		C304.4,192.8,311,188.9,322.9,189.9z M329.6,206.3c10.8-4.1,17.7-12.9,16.8-20.9c-1.8,1.7-4.6,3.7-8.5,5.2
		c-3.9,1.5-8.9,2.4-15.2,1.8c-12.7-1.1-18.7,3.8-20.9,6.5c0,0.1,0,0.1,0.1,0.2C305.1,207.6,317.5,210.8,329.6,206.3z M367.3,188.4
		c7.8-10.5,6.8-19.4,5.7-23.3c0,0,0,0,0,0c-9-1.7-18.2,7.1-20.7,19.8c-2.2,11.2,1.6,21.6,8.7,25.1
		C360.1,205.7,360.2,198,367.3,188.4z M375.9,166.1c0.5,2.4,0.7,5.9-0.1,9.9c-0.8,4.1-2.7,8.8-6.4,13.9c-7.6,10.2-6.6,17.9-5.5,21.2
		c0.1,0,0.1,0,0.2,0c9,1.7,18.2-7.1,20.7-19.8C387,180,383.1,169.5,375.9,166.1z"/>
</g>
</svg>
