<?xml version="1.0" encoding="utf-8"?>
<!-- Generator: Adobe Illustrator 18.1.1, SVG Export Plug-In . SVG Version: 6.00 Build 0)  -->
<svg version="1.1" id="Capa_1" xmlns="http://www.w3.org/2000/svg" xmlns:xlink="http://www.w3.org/1999/xlink" x="0px" y="0px"
	 viewBox="0 0 792 612" enable-background="new 0 0 792 612" xml:space="preserve">
<g>
	<path fill="#030104" d="M381.1,0c-169,0-306,137-306,306s137,306,306,306s306-137,306-306S550.1,0,381.1,0z M381.1,550.8
		c-135.2,0-244.8-109.6-244.8-244.8S245.9,61.2,381.1,61.2S625.9,170.8,625.9,306S516.3,550.8,381.1,550.8z"/>
	<path fill="#030104" d="M350.9,227.3c0-26.7-21.7-48.3-48.4-48.3c-26.7,0-48.3,21.7-48.3,48.3c0,26.7,21.6-27.4,48.3-27.4
		C329.3,199.9,350.9,254,350.9,227.3z"/>
	<path fill="#030104" d="M510.3,227.3c0-26.7-21.7-48.3-48.4-48.3s-48.3,21.7-48.3,48.3c0,26.7,21.6-27.4,48.3-27.4
		S510.3,254,510.3,227.3z"/>
	<path fill="#030104" d="M531.3,355.1c0,38.9-66.9,108.4-149.5,108.4S232.3,394,232.3,355.1s66.9,22.3,149.5,22.3
		S531.3,316.2,531.3,355.1z"/>
</g>
</svg>
