<?xml version="1.0" encoding="utf-8"?>
<!-- Generator: Adobe Illustrator 18.1.1, SVG Export Plug-In . SVG Version: 6.00 Build 0)  -->
<svg version="1.1" id="Capa_1" xmlns="http://www.w3.org/2000/svg" xmlns:xlink="http://www.w3.org/1999/xlink" x="0px" y="0px"
	 viewBox="0 0 792 612" enable-background="new 0 0 792 612" xml:space="preserve">
<g>
	<path d="M458.2,592.7c-6.6,4.8-21.1,4-25.9,4.4c-5.3,0.4-4.4-4.8-1.8-8.4s8.4-9.7,8.4-9.7l-2.2-19.4l-18.5,0.9
		c0,0,16.3,7.5,16.3,10.6c0,2.6-17.6,22.9-38.7,27.3c-21.1,4.4-40.5-2.6-40.5-2.6s5.3,9.7,4.4,14.1c-8.4,4.4-19.8,0.9-24.6-0.4
		c-4.4-1.3-5.3-5.7-5.3-5.7l-10.6,0.4c0,0-2.2-21.1-5.7-26.4c-3.5-5.3-16.7-4.8-22.4,0c-5.7,4.8,4,7.5-6.2,12.8
		c-10.1,5.7-62,0.4-79.6-17.6c-17.6-18-56.3-34.7-55-58.9c0.9-11.9,25.5-25.5,58.1-54.1c34.3-30.8,76.1-76.5,80-83.6
		c7.9-13.2,36.9-141.2,36.9-141.2s8.4-62.9,5.3-76.1c-1.3-5.3-10.6-17.6-18-31.2c-10.1-19.4-19.4-42.2-20.7-47.5
		c-1.8-6.2-0.4-37.4,0-57.2c0-10.6-2.2-15.4-0.4-18s5.3-6.6,12.3-6.6c9.2,0,11.4,4.4,20.7,8.4c6.6,2.6,15.8,3.1,15.4,4.8
		c0,2.2-13.6,0.4-13.6,0.4s2.6,1.3,6.6,2.6c3.1,0.9,8.8,1.3,7.9,2.2c-2.2,3.5-12.3,1.8-12.3,1.8s1.3,1.8,4.4,3.1
		c2.2,0.9,6.6,1.8,5.3,2.6c-3.5,3.1-16.7-0.4-13.6,0c2.6,0.4,4,3.5-0.9,3.5c-5.7-0.4-13.2-5.3-15.8-6.6c-0.9,5.7,2.6,18,4.4,31.2
		c1.8,11,1.8,22.9,3.5,27.7c1.8,4.4,8.8,19.4,18,33.9c4,6.6,12.8,11.4,17.2,17.2c7,9.2,9.7,18,15,18.5c5.3,0.4,18-7.5,17.6-18.9
		c-2.2,1.8-6.6,2.6-10.1,0.4c-2.2-1.3-3.1-5.7-5.3-7.9c-4.8-4.4-8.8-8.4-4.8-18.5c7.9-21.1,17.2-10.6,22.9-16.3
		c7-7,17.2-11.9,29.9-9.7c14.5,2.2,24.6,18.9,27.7,33c2.2,10.6-4.8,14.5-8.8,23.7c-1.3,3.1,1.3,10.1,0,13.2
		c-0.9,1.8-4.4-0.4-5.3,0.9c-4,7-6.6,12.8-7.5,13.2c-3.1,1.3-11.9-2.6-11.9-2.6s3.1,10.1,15,17.2c12.3,7,19.4,8.8,30.8,12.8
		c11.4,4,61.1,33.9,64.2,37.8c3.1,4-2.2,51.5-4.4,58.9c-2.2,7.5-8.4,16.7-11.9,18c-3.5,1.3-11.9,0.4-14.5,1.3
		c-2.2,0.9-10.1,5.3-13.6,2.6c-3.1-2.6,11-8.8,11-8.8s-7.5-2.2-10.1-2.2c-2.6,0-9.2-1.3-12.3-0.4c-3.5,0.9-6.2,3.5-9.7,3.1
		c-3.5-0.4,0.9-6.2,0.9-6.2s-3.1,0.4-6.2-1.3c-2.6-1.8,11.9-6.6,23.7-7.9c13.2-1.3,25.9,4.4,27.7-0.9c1.8-5.7,0.9-40.5-4.8-45.7
		c-2.6-2.6-18.9-8.4-31.7-14.5c-13.2-6.2-22.9-11.4-31.2-7.9c-16.3,6.6-35.6,43.5-32.5,55.4c1.8,7.5,21.6,33,40.5,57.2
		c11.9,15,19.4,30.3,33,38.3c19.4,11.4,54.5,32.1,80.9,56.7c20.7,19.8,34.7,44.9,37.8,48.4c6.6,7.5-4,12.8-4,12.8s7,15.4,2.6,32.1
		c-4.4,17.2-17.2,19.4-17.2,19.4s6.2,7.9,4.8,11.9c-0.4,1.8-22,7.5-38.3,15.8c-18.9,9.7-33.9,21.6-39.6,22
		c-10.1,0.4-22-28.1-22-28.1s-1.8,9.2-5.7,8.8c-4-0.4-5.3-11-9.2-5.3C460,567.2,464.8,588.3,458.2,592.7z"/>
</g>
</svg>
