<?xml version="1.0" encoding="utf-8"?>
<!-- Generator: Adobe Illustrator 18.1.1, SVG Export Plug-In . SVG Version: 6.00 Build 0)  -->
<svg version="1.1" id="Capa_1" xmlns="http://www.w3.org/2000/svg" xmlns:xlink="http://www.w3.org/1999/xlink" x="0px" y="0px"
	 viewBox="0 0 792 612" enable-background="new 0 0 792 612" xml:space="preserve">
<g>
	<g>
		<path d="M762,89.5c1.3,0,2.6-0.4,3.5-0.4l0,0l0,0c1.3,0,2.6,0,4,0.4L640.2,33.7c-4-1.8-8.8-1.3-11.9,1.3L500,132.6
			C500.5,132.6,762,89.5,762,89.5z"/>
		<path d="M754.5,222.7c8.8,0,16.7,3.1,23.3,8.3V111.9c0-5.7-4-10.5-9.2-11.9c-0.9-0.4-1.8-0.4-2.6-0.4c-0.4,0-1.3,0-2.2,0
			l-255.3,42.2l-4.4,0.9c-5.7,0.9-10.1,6.2-10.1,11.9v74.3c4.8-4,11-6.2,17.6-6.2c16.3,0,29,14.1,29,31.2c0,17.1-13.2,31.2-29,31.2
			c-6.6,0-12.7-2.2-17.6-6.2v22c0,6.6,5.3,11.9,11.9,11.9c0.4,0,1.3,0,2.2,0L719.3,278c-1.8-4.4-2.6-9.7-2.6-14.5
			C716.7,240.7,733.4,222.7,754.5,222.7z M634.1,238.9c-12.7,0-23.3-11.4-23.3-25c0-13.6,10.5-25,23.3-25s23.3,11.4,23.3,25
			C657.4,227.5,647.3,238.9,634.1,238.9z M709.2,181.4c-4,0-7.9-0.9-11-3.1c-7.5-4.4-12.3-12.7-12.3-22c0-14.1,10.5-25,23.3-25
			c8.8,0,16.3,5.3,20.2,12.7c1.8,3.5,3.1,7.9,3.1,12.3C732.5,169.9,722,181.4,709.2,181.4z"/>
	</g>
</g>
<g>
	<path fill="#030303" d="M154.9,359.3h-15.2L38.6,263.2c-9.1-8.7-23.6-8.4-32.3,0.8s-8.4,23.6,0.8,32.3l128.4,122.3v35h19.8v66.5
		c0,50.9,46.7,91.9,99.2,91.9h197.2c52.4,0,89.7-41,89.7-91.9V355.2H154.9V359.3z M441.7,543.6c40.3-15.2,28.9-90,27.4-123.1
		c-0.8-20.9,31.9-20.9,32.7,0c1.9,52.8,9.9,131.8-51.3,154.6C430.7,582.4,422.4,550.8,441.7,543.6z"/>
	<path fill="#030303" d="M240.4,165.9c-12.9,16-16.7,31.5-8.4,50.9c9.1,20.9,30.4,34.2,18.6,58.9c-6.5,13.7,14.1,25.8,20.5,12.2
		c8.7-18.6,9.1-35.3,0-53.6c-8.7-17.5-29.3-31.5-13.7-51.3C266.6,170.9,249.9,153.8,240.4,165.9z"/>
	<path fill="#030303" d="M323.6,165.9c-12.9,16-16.7,31.5-8.4,50.9c9.1,20.9,30.4,34.2,18.6,58.9c-6.5,13.7,14.1,25.8,20.5,12.2
		c8.7-18.6,9.1-35.3,0-53.6c-8.7-17.5-29.3-31.5-13.7-51.3C350.2,170.9,333.5,153.8,323.6,165.9z"/>
	<path fill="#030303" d="M407.2,165.9c-12.9,16-16.7,31.5-8.4,50.9c9.1,20.9,30.4,34.2,18.6,58.9c-6.5,13.7,14.1,25.8,20.5,12.2
		c8.7-18.6,9.1-35.3,0-53.6c-8.7-17.5-29.3-31.5-13.7-51.3C433.8,170.9,416.7,153.8,407.2,165.9z"/>
</g>
</svg>
