<?xml version="1.0" encoding="utf-8"?>
<!-- Generator: Adobe Illustrator 18.1.1, SVG Export Plug-In . SVG Version: 6.00 Build 0)  -->
<svg version="1.1" id="Capa_1" xmlns="http://www.w3.org/2000/svg" xmlns:xlink="http://www.w3.org/1999/xlink" x="0px" y="0px"
	 viewBox="0 0 792 612" enable-background="new 0 0 792 612" xml:space="preserve">
<g>
	<path d="M199.8,134.8c-7.2-2.3-16.2-2.3-23,1.8L59.8,212.3c-6.3,4.1-9.9,12.2-11.3,19.8c-0.9,7.7,1.8,16.2,6.8,22.1l108.5,124.3
		c8.6,9.9,23.4,12.2,34.7,5l77.9-50.4c11.3-7.2,15.3-21.6,9.9-33.3l-69.3-149.9C213.7,142.9,207.4,137.1,199.8,134.8z"/>
	<path d="M51.2,292.9c-9,1.4-16.7,7.7-20.3,16.2L2.1,379.3C-3.7,392.8,3,408.6,16.5,414l87.8,36.5c12.6,5.4,27.5,0,33.8-12.2
		l12.6-23.4c5-9.9,3.6-21.6-3.2-29.7l-71.1-82.8C69.7,294.7,60.7,291.5,51.2,292.9z"/>
	<path d="M49.4,448.2c-4.5-1.8-9.9-0.5-13.5,3.2c-3.6,3.6-4.5,9-2.7,13.5l22.5,56.7c1.8,4.5,6.3,7.7,11.3,8.1c5,0,9.5-2.7,11.7-7.2
		l20.3-41c1.8-3.2,1.8-6.8,0.5-10.4c-1.4-3.2-4.1-5.9-7.2-7.2L49.4,448.2z"/>
	<path d="M352,152.4l-75.6-2.3c-9.5-0.5-18,4.5-23,12.2c-5,7.7-5.9,17.6-1.8,26.1l46.4,98.6c4.5,9.9,14.9,15.8,25.7,15.3l26.6-1.8
		c13.5-0.9,24.3-12.2,24.8-25.7l2.7-95C378.5,165,366.8,152.8,352,152.4z"/>
	<path d="M460,259.1l-42.8-43.7c-3.6-3.6-8.6-5-13.5-3.2c-4.5,1.8-8.1,5.9-8.1,10.8l-3.2,45.5c-0.5,3.6,0.9,7.2,3.6,9.5
		c2.7,2.7,5.9,4.1,9.5,3.6l45.9-1.8c5,0,9.5-3.2,11.3-8.1C464.5,268.1,463.6,262.7,460,259.1z"/>
</g>
<g>
	<g>
		<path d="M296.7,612h96.2l49.5-47.2h96.2h96.2l49.5,47.2H781c-77.2-41.8-129.4-150.3-163-256h17.2v-50.4h-32.2
			c-29.5-108-39.9-201.1-39.9-201.1H554l-15.4-89l-15.4,89h-9.1c0,0-10.4,93.5-39.9,201.1h-32.2V356h17.2
			C426,461.7,373.8,570.2,296.7,612z M501.4,426.3l15.4,15.4l-26.3,26.3C494.6,454,498.2,440,501.4,426.3z M538.6,520.8h-57.2
			l57.2-57.2l57.2,57.2H538.6L538.6,520.8z M587.2,467.6l-26.3-26.3l15.4-15.4C579.5,440,583.1,454,587.2,467.6z M538.6,192.6
			c0,0,4.5,86.2,10,113h-10h-10C534.1,278.8,538.6,192.6,538.6,192.6z M538.6,356h22.2c0,0,2.3,14.1,6.8,34l-29.1,29.1L509.5,390
			c4.1-20.4,6.8-34,6.8-34H538.6L538.6,356z"/>
	</g>
</g>
</svg>
