<?xml version="1.0" encoding="utf-8"?>
<!-- Generator: Adobe Illustrator 18.1.1, SVG Export Plug-In . SVG Version: 6.00 Build 0)  -->
<svg version="1.1" id="Capa_1" xmlns="http://www.w3.org/2000/svg" xmlns:xlink="http://www.w3.org/1999/xlink" x="0px" y="0px"
	 viewBox="0 0 792 612" enable-background="new 0 0 792 612" xml:space="preserve">
<g>
	<g>
		<circle fill="#010002" cx="440" cy="54.6" r="54.6"/>
		<path fill="#010002" d="M466.4,352.4c0.7-5.4,0.2-10.1-1.1-14.2c0-0.1,0-0.1,0-0.2c3.3-28.1,7.3-56,11.5-83.9
			c3.5,10.1,6.3,20.5,8.4,31.2c7.2,36,62.1,20.7,55-15.2c-8.6-43.5-27.9-82.5-55.7-116.7c-5.3-14.9-16.4-27.1-34.6-32.6
			c-5.4,6.2-11.2,12.4-17.1,18.5c0.9-1.9,1.4-4.5,1.4-7.3c0-6-2.3-10.9-5.2-10.9h-1.7c-1.9,0-3.6,2.2-4.5,5.5
			c-0.2-0.1-0.4-0.1-0.6-0.1h-0.8c-0.9-3.2-2.5-5.4-4.4-5.4H413c-2.9,0-5.2,4.9-5.2,10.9c0,6,2.3,10.9,5.2,10.9h4.1
			c1.3,0,2.4-1,3.3-2.6c0.2,0.1,0.5,0.2,0.7,0.2h1.2c0.5,0,1-0.3,1.5-0.7c0.9,1.9,2.2,3.1,3.6,3.1h1.7c0.1,0,0.3-0.1,0.4-0.1
			c-25.9,26.1-52.8,48.7-54.1,56.8c-0.8,4.7-1.5,9.2-2.3,13.6c-4.6,4.7-10.1,8.2-17.1,9c-19.3,2.3-37.7-9.1-53.2-19
			c-31.1-19.9-59.6,29.5-28.8,49.2c29.1,18.6,60.2,27.4,88.4,23.8c-3,18.8-5.9,37.8-8.4,58.9c-0.5,4.5-0.3,8.9,0.6,13.1
			c-28.3,70.6-49.2,143.5-61.4,219.1c-7.2,44.9,61.4,64.2,68.7,18.9c8.3-51.3,20.5-101.5,36.4-150.5c10.3,52.6,36.3,100.9,75,141.3
			c31.8,33.2,82.1-17.2,50.4-50.3C477.2,478.1,458.5,418.9,466.4,352.4z"/>
		<rect x="199.1" y="178.7" fill="#010002" width="154.6" height="9.9"/>
		<path fill="#010002" d="M279,101.6c-0.3-6.4-2.4-11.3-4.9-11.3c-2.5,0-4.6,5.1-4.9,11.6c-36.5,3.5-64.9,34.2-64.9,71.6h143.9
			C348.2,134.7,317.5,103.1,279,101.6z"/>
	</g>
</g>
</svg>
