<?xml version="1.0" encoding="utf-8"?>
<!-- Generator: Adobe Illustrator 18.1.1, SVG Export Plug-In . SVG Version: 6.00 Build 0)  -->
<svg version="1.1" id="Capa_1" xmlns="http://www.w3.org/2000/svg" xmlns:xlink="http://www.w3.org/1999/xlink" x="0px" y="0px"
	 viewBox="0 0 792 612" enable-background="new 0 0 792 612" xml:space="preserve">
<g>
	<path d="M583.3,212.9l-4.4-2.3c5.8-4.3,10.9-10,14.5-16.8c12.2-23.3,4.1-51.8-17.9-65.4c2.7-4.5,4.8-9.7,6-15.9
		c4-20.5-4.1-39.4-11.1-58.3c-2.7-7.1-7.6-27.6,15.8-48.3C559.3-0.5,470.3,12,462.8,69.3c-24.3-12.6-54.3-3.4-67,20.9
		c-3.6,6.9-5.4,14.2-5.6,21.5l-4.4-2.3c-24.3-12.8-54.4-3.4-67.2,21c-12.8,24.3-3.4,54.4,21,67.2L537.1,301
		c24.3,12.8,54.4,3.4,67.2-21C617.1,255.7,607.7,225.6,583.3,212.9z"/>
	<path d="M542.4,338.4c-0.7-4.5-3.6-8.4-7.6-10.5L427,271.4l-108.2-56.7c-4-2.1-8.8-2.2-13-0.3c-4.1,1.9-7.1,5.7-8.1,10.2
		l-20.1,94.8c-1.4,6.4,1.7,12.9,7.5,15.9l10.5,5.5l-50.4,247.2c-1.3,6.4,1.7,12.8,7.5,15.8c0,0,0,0,0,0l0,0c5.8,3,12.8,1.9,17.3-2.8
		l174.2-182.3l10.5,5.5c5.8,3,12.9,1.8,17.3-2.9l66.5-70.4C541.8,347.4,543.2,342.8,542.4,338.4z"/>
</g>
</svg>
