<?xml version="1.0" encoding="utf-8"?>
<!-- Generator: Adobe Illustrator 18.1.1, SVG Export Plug-In . SVG Version: 6.00 Build 0)  -->
<svg version="1.1" id="Capa_1" xmlns="http://www.w3.org/2000/svg" xmlns:xlink="http://www.w3.org/1999/xlink" x="0px" y="0px"
	 viewBox="158.1 134.3 237.9 151.3" enable-background="new 158.1 134.3 237.9 151.3" xml:space="preserve">
<g>
	<path d="M337.5,156.9c14.5,14.5,22.5,33.9,22.5,54.4c0,20.6-8,39.9-22.5,54.4c-14.5,14.5-33.9,22.5-54.4,22.5
		c-20.6,0-39.9-8-54.4-22.5c-14.5-14.5-22.5-33.9-22.5-54.4c0-20.6,8-39.9,22.5-54.4s33.9-22.5,54.4-22.5
		C303.6,134.3,323,142.3,337.5,156.9z M330.7,258.9c9.5-9.5,15.8-21.3,18.4-34.1c-2,3-4,4.1-5.2-2.6c-1.2-10.9-11.2-3.9-17.5-7.8
		c-6.6,4.5-21.5-8.7-19,6.1c3.9,6.7,21-8.9,12.5,5.2c-5.5,9.9-19.9,31.7-18.1,43c0.2,16.5-16.9,3.4-22.7-2c-4-11-1.3-30.1-11.7-35.5
		c-11.2-0.5-20.9-1.5-25.2-14.1c-2.6-9,2.8-22.4,12.4-24.4c14.1-8.9,19.1,10.4,32.4,10.7c4.1-4.3,15.3-5.7,16.2-10.5
		c-8.7-1.5,11-7.3-0.8-10.6c-6.5,0.8-10.7,6.8-7.3,11.9c-12.7,3-13.1-18.3-25.2-11.6c-0.3,10.6-19.9,3.4-6.8,1.3
		c4.5-2-7.3-7.7-0.9-6.6c3.1-0.2,13.7-3.9,10.9-6.4c5.9-3.7,10.8,8.8,16.6-0.3c4.2-7-1.7-8.2-7-4.7c-2.9-3.3,5.2-10.4,12.4-13.5
		c2.4-1,4.7-1.6,6.4-1.4c3.6,4.2,10.3,4.9,10.7-0.5c-9-4.3-18.8-6.6-29.1-6.6c-14.7,0-28.6,4.7-40.2,13.3c3.1,1.4,4.9,3.2,1.9,5.5
		c-2.3,6.9-11.7,16.2-20,14.9c-4.3,7.4-7.1,15.6-8.3,24.1c6.9,2.3,8.5,6.8,7,8.3c-3.5,3.1-5.7,7.4-6.8,12.2
		c2.3,13.8,8.7,26.5,18.8,36.6c12.7,12.7,29.6,19.7,47.6,19.7C301.1,278.6,318,271.6,330.7,258.9z"/>
</g>
</svg>
