<?xml version="1.0" encoding="utf-8"?>
<!-- Generator: Adobe Illustrator 18.1.1, SVG Export Plug-In . SVG Version: 6.00 Build 0)  -->
<svg version="1.1" id="Capa_1" xmlns="http://www.w3.org/2000/svg" xmlns:xlink="http://www.w3.org/1999/xlink" x="0px" y="0px"
	 viewBox="0 0 792 612" enable-background="new 0 0 792 612" xml:space="preserve">
<g>
	<path fill="#030104" d="M158.1,597.1c0,0-0.6,15.5,14.5,15.5c18.8,0,174.4-0.2,174.4-0.2l0.3-142.9c0,0-2.5-23.6,20.4-23.6h72.4
		c27,0,25.4,23.6,25.4,23.6l-0.3,142.5c0,0,147.6,0,170.7,0c19.2,0,18.3-19.3,18.3-19.3V329.1L413.6,115.1L158.1,329.1
		C158.1,329.1,158.1,597.1,158.1,597.1z"/>
	<path fill="#030104" d="M64,309.2c0,0,21.7,40,69,0L415.7,70l265,237.7c54.8,39.5,75.3,0,75.3,0L415.7-0.6L64,309.2z"/>
	<polygon fill="#030104" points="674.3,69.5 606.1,69.5 606.4,152.2 674.3,209.8 	"/>
</g>
</svg>
