<?xml version="1.0" encoding="utf-8"?>
<!-- Generator: Adobe Illustrator 18.1.1, SVG Export Plug-In . SVG Version: 6.00 Build 0)  -->
<svg version="1.1" id="Capa_1" xmlns="http://www.w3.org/2000/svg" xmlns:xlink="http://www.w3.org/1999/xlink" x="0px" y="0px"
	 viewBox="0 0 792 612" enable-background="new 0 0 792 612" xml:space="preserve">
<g>
	<path d="M483.3,511.4V281.6l135.4-21.9C597.1,145.4,496.9,58.9,376.3,58.9c-136.3,0-246.7,110.5-246.7,246.7
		c0,136.3,110.5,246.7,246.7,246.7c13.2,0,26.2-1.1,38.8-3.1c9.9-16.4,27.7-29.6,50.2-35.3C471.3,512.5,477.4,511.6,483.3,511.4z
		 M421.7,79l-26.4,115.8h-26.4L349.9,79C377.6,65.2,421.7,79,421.7,79z M376.3,397.2c-50.6,0-91.6-41-91.6-91.6s41-91.6,91.6-91.6
		s91.6,41,91.6,91.6C467.9,356.2,426.9,397.2,376.3,397.2z M376.3,235.8c-38.5,0-69.8,31.3-69.8,69.8c0,38.5,31.3,69.8,69.8,69.8
		c38.5,0,69.8-31.3,69.8-69.8C446.2,267.1,414.8,235.8,376.3,235.8z M376.3,355.5c-27.5,0-49.9-22.4-49.9-49.9
		c0-27.5,22.4-49.9,49.9-49.9c27.5,0,49.9,22.4,49.9,49.9C426.2,333.1,403.8,355.5,376.3,355.5z M407.9,591.8
		c1.2,6.6,3.8,12.8,7.6,18.3c-12.8,1.6-25.9,2.6-39.2,2.6C207,612.8,69.2,475,69.2,305.6C69.2,136.3,207-1.5,376.3-1.5
		c150.3,0,275.7,108.6,302,251.5l-29.8,4.8C624.5,126.3,511.6,28.7,376.3,28.7c-152.7,0-276.9,124.2-276.9,276.9
		c0,152.7,124.2,276.9,276.9,276.9c10.2,0,20.3-0.6,30.3-1.7C406.7,584.5,407.1,588.2,407.9,591.8z M709.6,266.5v266.3
		c0,22.1-16.4,39.6-42.1,46.1c-28.2,7-55.3-4.8-60.7-26.4c-5.4-21.6,13-44.8,41.2-51.8c12.7-3.1,25.2-2.5,35.7,1.2V341.5l-144,26.3
		l-0.7,199.6h0c-0.1,18.9-17.2,37.5-41.7,43.5c-27.8,7-57-6.2-60.1-26.1c-5.3-21.4,12.9-44.3,40.8-51.3c12.5-3.1,24.8-2.5,35.1,1.1
		V298.4L709.6,266.5z"/>
</g>
</svg>
