<?xml version="1.0" encoding="utf-8"?>
<!-- Generator: Adobe Illustrator 18.1.1, SVG Export Plug-In . SVG Version: 6.00 Build 0)  -->
<svg version="1.1" id="Capa_1" xmlns="http://www.w3.org/2000/svg" xmlns:xlink="http://www.w3.org/1999/xlink" x="0px" y="0px"
	 viewBox="0 0 792 612" enable-background="new 0 0 792 612" xml:space="preserve">
<g>
	<g>
		<path d="M741.8,457.7c-1.5-2-3.9-3.2-6.4-3.2h-74.7c-19.8-69.6-89.7-131.8-239.4-131.8c-45.9,0-94.7,8-140.8,22
			c-1.4-14.2-6.4-23.1-10.6-30.2c-4.3-7.2-7.8-13-7.8-25.4s3.4-18.2,7.8-25.4c5-8.3,11.3-18.7,11.3-37.9v-70.3h13.9
			c24.3,0,39.7-12.4,53.3-23.3c10.4-8.4,19.4-15.6,31.8-17.1c40.4-5.1,230.5-55.3,238.5-57.4c8.6-2.3,13.7-11.1,11.5-19.7
			c-2.3-8.6-11.1-13.8-19.7-11.5c-1.9,0.5-196,51.8-234.3,56.6c-21.4,2.7-35.5,14-47.9,24c-12.5,10.1-20.8,16.2-33.1,16.2h-13.9
			v-8.1c0-6.7-5.4-12.1-12.1-12.1c-6.7,0-12.1,5.4-12.1,12.1v8.1h-13.8v-8.1c0-6.7-5.4-12.1-12.1-12.1s-12.1,5.4-12.1,12.1v8.1
			h-13.8v-8.1c0-6.7-5.4-12.1-12.1-12.1s-12.1,5.4-12.1,12.1v8.1h-13.8v-8.1c0-6.7-5.4-12.1-12.1-12.1s-12.1,5.4-12.1,12.1v8.1
			h-11.8c-8.9,0-16.1,7.2-16.1,16.1s7.2,16.1,16.1,16.1h11.7v70.3c0,12.5-3.4,18.2-7.8,25.4c-5,8.3-11.3,18.7-11.3,37.8
			c0,19.2,6.2,29.5,11.2,37.9c4.4,7.2,7.8,13,7.8,25.5c0,12.5-3.4,18.2-7.8,25.4c-5,8.4-11.3,18.7-11.3,37.9c0,3.8,1.9,7,4.6,9.2
			c-10.3,9.4-19.3,19.2-26.7,29.4H10.6c-2.5,0-4.9,1.2-6.4,3.2s-2,4.6-1.4,7c19.7,72.9,98.7,150.9,185,150.9h370.5
			c86.2,0,165.3-78,185-150.9C743.8,462.3,743.4,459.7,741.8,457.7z M256.2,438.6c29.6,0,54,5.7,71.8,15.9H174.9
			C200.1,444.8,228.9,438.6,256.2,438.6z M365.6,454.5c-20.7-24.3-56.8-38.7-103.4-39.9c0-0.8,0.1-1.4,0.1-2.1
			c16.2-2.8,32.6-4.5,48.8-4.5c59.8,0,104.2,17,126.8,46.5L365.6,454.5L365.6,454.5z M466.7,454.5c-20.4-39.2-67.9-70.7-155.5-70.7
			c-4.5,0-9.1,0.3-13.7,0.5c22.7-4.4,45.9-6.9,68.8-6.9c87,0,148.4,28.6,171.9,77L466.7,454.5L466.7,454.5z M635.5,454.5h-71.1
			c-20.4-54.6-79.4-101.2-198.1-101.2c-7.1,0-14.2,0.3-21.4,0.7c25.3-4.6,51.1-7.1,76.4-7.1C534.8,346.9,612.4,387.2,635.5,454.5z
			 M257,155.6v70.3c0,12.5-3.4,18.2-7.8,25.4c-5,8.3-11.3,18.7-11.3,37.8c0,19.2,6.2,29.5,11.2,37.9c4.4,7.2,7.8,13,7.8,25.5
			c-4.8,1.7-9.6,3.5-14.3,5.3c0.1-1.8,0.4-3.3,0.4-5.3c0-19.2-6.2-29.6-11.2-37.9c-4.3-7.2-7.8-13-7.8-25.4
			c0-12.5,3.4-18.2,7.8-25.4c5-8.3,11.2-18.7,11.2-37.9v-70.3C243.2,155.6,257,155.6,257,155.6z M219.1,155.6v70.3
			c0,12.5-3.4,18.2-7.8,25.4c-5,8.3-11.2,18.7-11.2,37.8c0,19.2,6.2,29.5,11.2,37.9c4.4,7.2,7.8,13,7.8,25.5
			c0,7.4-1.3,12.4-3.2,16.8c-5,2.4-9.9,4.7-14.8,7.2c2.4-6.2,4.2-13.8,4.2-24c0-19.2-6.2-29.6-11.3-37.9c-4.3-7.2-7.8-13-7.8-25.4
			s3.4-18.2,7.8-25.4c5-8.3,11.3-18.7,11.3-37.9v-70.3H219.1z M156,314.6c-4.3-7.2-7.8-13-7.8-25.4c0-12.5,3.4-18.2,7.8-25.4
			c5-8.3,11.3-18.7,11.3-37.9v-70.3h13.8v70.3c0,12.5-3.4,18.2-7.8,25.4c-5,8.3-11.3,18.7-11.3,37.8c0,19.2,6.2,29.5,11.2,37.9
			c4.4,7.2,7.8,13,7.8,25.5c0,12.5-3.4,18.2-7.8,25.4c-3.1,5.2-6.5,11.4-8.8,19.7c-5.4,3.6-10.7,7.2-15.8,11
			c1.1-7.7,3.9-12.6,7.3-18.2c5-8.4,11.2-18.7,11.2-37.9C167.3,333.3,161,322.9,156,314.6z"/>
	</g>
</g>
</svg>
