<?xml version="1.0" encoding="utf-8"?>
<!-- Generator: Adobe Illustrator 18.1.1, SVG Export Plug-In . SVG Version: 6.00 Build 0)  -->
<svg version="1.1" id="Capa_1" xmlns="http://www.w3.org/2000/svg" xmlns:xlink="http://www.w3.org/1999/xlink" x="0px" y="0px"
	 viewBox="0 0 792 612" enable-background="new 0 0 792 612" xml:space="preserve">
<g>
	<g id="Layer_1_86_">
		<path d="M515.6,7.3c-53.9,0-103,10.4-143.7,28.9C331.1,17.6,282,7.3,228.1,7.3c-120.5,0-204.8,100.4-204.8,244
			c0,87,31.1,174.7,85.2,240.5c45.4,55.2,128,121,263.3,121s217.9-65.8,263.3-121c54.1-65.7,85.2-153.4,85.2-240.5
			C720.4,107.6,636.1,7.3,515.6,7.3z M88.4,143.7c3.3-7.3,11.9-10.5,19.3-7.1c7.3,3.4,10.4,11.9,7.1,19.2c-2.5,5.4-7.7,8.6-13.2,8.6
			c-2,0-4.1-0.4-5.9-1.3C88.3,159.7,85.1,151.1,88.4,143.7z M81.6,276.3c-7.7,0-14.2-6.1-14.5-13.9c-0.3-8,6.1-14.8,14.1-15.1
			c8-0.1,14.7,6.1,14.9,14.1c0.3,8-5.9,14.7-13.9,14.9C81.9,276.3,81.7,276.3,81.6,276.3z M110.9,387.1c-1.8,0.6-3.6,1-5.4,1
			c-5.8,0-11.2-3.5-13.5-9.1c-3.1-7.4,0.6-15.8,8-18.9c7.6-3,16,0.6,18.9,8.1V368C122,375.6,118.3,384,110.9,387.1z M546,67.6
			c2.5-7.7,10.8-11.9,18.3-9.4c7.5,2.5,11.8,10.7,9.3,18.3c-1.9,6.1-7.7,10-13.8,10c-1.5,0-2.9-0.2-4.5-0.7
			C547.7,83.3,543.5,75.2,546,67.6z M443.2,58.3c7.8-1.6,15.6,3.4,17.3,11.2c1.8,7.7-3.2,15.5-11,17.3c-1,0.1-2,0.3-3.2,0.3
			c-6.7,0-12.6-4.6-14.1-11.3C430.4,67.9,435.3,60.1,443.2,58.3z M430.5,212.5c7.5,2.8,11.4,11,8.8,18.6c-2.2,5.9-7.7,9.6-13.6,9.6
			c-1.6,0-3.3-0.3-4.9-0.9c-7.6-2.6-11.5-10.9-8.7-18.6C414.7,213.8,423.1,209.9,430.5,212.5z M387,111.9c5.5-5.8,14.7-5.9,20.4-0.4
			c5.8,5.7,6,14.8,0.4,20.6c-2.9,2.9-6.7,4.4-10.5,4.4c-3.6,0-7.3-1.3-10-4.1C381.6,126.9,381.5,117.7,387,111.9z M383.3,302.9
			c4.2-6.8,13.2-9,20-4.6c6.8,4.2,8.9,13.2,4.7,19.9c-2.8,4.5-7.6,7-12.3,7c-2.6,0-5.4-0.7-7.7-2.2
			C381.2,318.5,379.1,309.7,383.3,302.9z M370.8,190.2c0.2-1.4,0.6-2.9,1-4.3c0.5,1.5,0.8,2.9,1,4.3c0.7,4.2,0.3,8.7-1,13.5
			C370.5,198.9,370.2,194.4,370.8,190.2z M357.5,321.7c-2.5,1.6-5.1,2.3-7.8,2.3c-4.8,0-9.4-2.5-12.2-6.8c-4.4-6.8-2.3-15.7,4.5-20
			c6.8-4.4,15.7-2.3,20,4.5C366.2,308.5,364.2,317.5,357.5,321.7z M334.7,112.9c5.8-5.7,14.9-5.5,20.6,0.2
			c5.5,5.7,5.5,14.9-0.2,20.6c-2.9,2.8-6.5,4.1-10.2,4.1c-3.8,0-7.6-1.3-10.3-4.2C329,127.9,329,118.6,334.7,112.9z M332.2,222.9
			c2.9,7.6-0.9,16-8.4,18.7c-1.8,0.7-3.5,1-5.1,1c-5.9,0-11.3-3.6-13.6-9.4c-2.8-7.6,1-15.8,8.4-18.7
			C321,211.7,329.5,215.3,332.2,222.9z M281.4,69.1c1.6-7.8,9.4-12.8,17.3-11.2c7.8,1.8,12.8,9.4,11.2,17.3
			c-1.5,6.8-7.6,11.5-14.2,11.5c-1,0-2,0-3.1-0.3C284.7,84.8,279.8,76.9,281.4,69.1z M177.4,58.9c7.6-2.6,15.8,1.4,18.4,9
			c2.6,7.6-1.5,15.8-9.1,18.4c-1.5,0.6-3.1,0.9-4.6,0.9c-6,0-11.6-3.9-13.6-9.9C165.8,69.8,169.9,61.5,177.4,58.9z M176.7,480.5
			c-2.7,2.6-6.4,3.9-10,3.9c-3.8,0-7.7-1.5-10.4-4.5c-5.7-5.8-5.4-14.9,0.4-20.4c5.8-5.5,15.1-5.4,20.6,0.4
			C182.8,465.8,182.5,474.9,176.7,480.5z M274.1,539.5c-2.2,5.7-7.7,9-13.5,9c-1.8,0-3.6-0.3-5.4-1c-7.4-3-11-11.5-8-18.9
			c2.9-7.4,11.5-11.1,18.9-8C273.6,523.6,277.2,532,274.1,539.5z M372.9,569.1c-8,0-14.5-6.5-14.5-14.5c-0.2-8.1,6.4-14.5,14.4-14.5
			c8.1,0,14.5,6.4,14.7,14.5C387.4,562.6,380.9,569.1,372.9,569.1z M490.4,546.8c-1.9,0.7-3.8,1-5.5,1c-5.8,0-11.2-3.4-13.5-9
			c-3.1-7.4,0.6-15.8,8-18.9c7.4-3.1,15.8,0.4,18.9,7.8C501.3,535.2,497.8,543.8,490.4,546.8z M589,478.4c-2.9,3-6.7,4.6-10.6,4.6
			c-3.6,0-7.1-1.3-9.9-3.9c-6-5.5-6.2-14.7-0.7-20.6c5.5-5.8,14.7-6.1,20.5-0.5C594.2,463.3,594.5,472.4,589,478.4z M545.5,417.9
			c-29.5,35.9-83.6,78.6-173.6,78.6s-144.1-42.7-173.6-78.6c-36.8-44.7-58.7-107-58.7-166.7c0-21.4,4.3-127.9,88.6-127.9
			c15.5,0,29.7,1.1,42.8,3.2c-7.2,14.2-12.3,29.5-14.8,45.5c-3,19-4.8,61.4,25.1,108.4c-16.2,7.5-34.7,14.7-55.7,21.5
			c-30.5,9.9-47.2,42.6-37.3,73.1c9.9,30.5,42.6,47.3,73.2,37.3c45-14.6,81.3-31.1,110.5-48.5c29.2,17.4,65.5,33.9,110.5,48.5
			c30.5,9.9,63.3-6.8,73.2-37.3c9.9-30.5-6.8-63.2-37.3-73.1c-20.9-6.8-39.4-14-55.7-21.5c29.8-47,28.1-89.4,25.1-108.4
			c-2.5-16-7.6-31.3-14.8-45.5c13-2,27.3-3.2,42.7-3.2c84.3,0,88.6,106.5,88.6,127.9C604.2,311,582.3,373.3,545.5,417.9z
			 M257.9,357.2c0,3.7-1.5,7.5-4.2,10.3c-2.6,2.8-6.4,4.2-10.2,4.2c-3.9,0-7.7-1.5-10.3-4.2c-2.7-2.8-4.4-6.4-4.4-10.3
			c0-3.8,1.6-7.6,4.4-10.3c5.4-5.4,15.1-5.4,20.5,0C256.4,349.6,257.9,353.4,257.9,357.2z M485.8,357.2c0-3.8,1.5-7.6,4.2-10.3
			c5.4-5.4,15.1-5.4,20.5,0c2.7,2.8,4.4,6.5,4.4,10.3c0,3.9-1.6,7.5-4.4,10.3c-2.6,2.8-6.4,4.2-10.2,4.2c-3.9,0-7.7-1.5-10.3-4.2
			C487.3,364.7,485.8,361.1,485.8,357.2z M635.1,134.9c7.3-3.4,15.8-0.2,19.3,7c3.3,7.4,0.3,16-7,19.5c-2,0.9-4.1,1.3-6.2,1.3
			c-5.4,0-10.6-3.1-13.1-8.4C624.6,146.9,627.9,138.3,635.1,134.9z M652.4,377c-2.2,5.8-7.7,9.2-13.5,9.2c-1.7,0-3.6-0.3-5.4-1
			c-7.4-2.9-11-11.4-8.1-18.8c2.9-7.5,11.5-11.2,18.9-8.1C651.7,361.3,655.3,369.6,652.4,377z M662.1,274.4c-0.2,0-0.3,0-0.4,0
			c-8-0.2-14.4-6.8-14.1-15c0.3-8,7-14.2,15-14.1c8,0.3,14.4,7,14,14.9C676.5,268.1,670,274.4,662.1,274.4z"/>
	</g>
</g>
</svg>
