<?xml version="1.0" encoding="utf-8"?>
<!-- Generator: Adobe Illustrator 18.1.1, SVG Export Plug-In . SVG Version: 6.00 Build 0)  -->
<svg version="1.1" id="Capa_1" xmlns="http://www.w3.org/2000/svg" xmlns:xlink="http://www.w3.org/1999/xlink" x="0px" y="0px"
	 viewBox="0 0 792 612" enable-background="new 0 0 792 612" xml:space="preserve">
<g>
	<g>
		<path d="M615.6,578.2c0,0,0-170.8-0.1-187.8c0.1-15.5-0.4-387.7-0.4-387.7l-8.5,0c0,0-69.3,39.1-69.3,329
			c53.2,14.6,30.8,72.8,26.8,80.2c0,14.8,1.1,166.4,1.1,166.4l0.2,0c-0.1,0.2-0.1,0.3-0.1,0.5c-0.1,13.9,11.2,25.2,25.1,25.1
			c13.8,0,25.2-11.3,25.1-25.1c0.1-0.1,0.1-0.3,0-0.4L615.6,578.2z"/>
		<path d="M492.7,13.4l-15.1,0l4.5,157.8l-18.1,0V13.4l-13.2,0v158.7h-15V13.4l-14.6,0l0,158.7h-17.7l5.1-158.8h-13.7l-16.7,134.3
			c0,0-0.4,5.1-0.4,7c0,20.7,9.6,39.2,24.6,51.3c49.5,55.8,15.7,112.8,15.7,126.3c0,15,0,245.6,0,245.6h0c0,0.2-0.1,0.3-0.1,0.5
			c0,14.1,11.5,25.5,25.6,25.6c14.1,0,25.6-11.5,25.6-25.6c0-0.2-0.1-0.4-0.1-0.5h0c0,0,0-227.7,0-245.1
			c0-15.7-28.6-81.2,19.1-129.9c0-0.1,0.1-0.2,0.2-0.3c11.6-11,19.3-26.2,20.5-43.3c0.1-1.2,0-4.2,0-4.2L492.7,13.4z"/>
		<path d="M264.5,0L264.5,0c-0.3,0-1.2,0-1.4,0c0,0,0,0,0,0c-55.4,0.9-86.6,53.9-86.6,111.6c0,58.1,34.9,99.6,65.4,108.8
			c16.7,23.4,5.7,78.7-6.1,110.6c0,15.3,0,249,0,249h0.1c0,0.2-0.1,0.3-0.1,0.5c0,14.3,11.6,25.9,25.9,25.9c0.7,0,3.5,0,4.2,0
			c14.3,0,25.9-11.6,25.9-25.9c0-0.2,0-0.4-0.1-0.5h0.1c0,0,0-233.7,0-249c-11.8-31.9-22.8-87.2-6.1-110.6
			c30.5-9.2,65.4-50.7,65.4-108.8C351.1,54,319.9,0.9,264.5,0z M235.6,198c-3.5-2.7-7.9-6.9-12.5-12.5c-4.7-5.6-9.6-12.5-14.1-20.5
			c-2.2-4-4.3-8.3-6.3-12.8c-1.9-4.7-3.4-9.3-4.4-14.7c-1.9-10.4-1.6-20.3-0.5-29.4c1-9.1,3-17.4,5.1-24.4c2.1-7,4.5-12.6,6.5-16.4
			c2-3.9,3.6-5.7,3.6-5.7s-0.3,2.5-0.5,6.6c-0.1,4.1-0.3,10-0.6,17.1c-0.2,13.9-1.3,32.8,1.3,49.5c0.5,3.9,1.9,8.4,3.2,12.4
			c1.3,4.2,2.8,8.3,4.4,12.2c3.1,8,6.5,15.3,9.4,21.7c2.9,6.3,5.5,11.6,7.6,15.1c1.9,3.6,3.7,5.2,3.8,5.1
			C241.6,201.3,238.9,200.7,235.6,198z"/>
	</g>
</g>
</svg>
