<?xml version="1.0" encoding="utf-8"?>
<!-- Generator: Adobe Illustrator 18.1.1, SVG Export Plug-In . SVG Version: 6.00 Build 0)  -->
<svg version="1.1" id="Capa_1" xmlns="http://www.w3.org/2000/svg" xmlns:xlink="http://www.w3.org/1999/xlink" x="0px" y="0px"
	 viewBox="0 0 792 612" enable-background="new 0 0 792 612" xml:space="preserve">
<g>
	<g id="b145_clam">
		<path fill="#030104" d="M400.9,137.4l-2-1.7L341.3,77l0,0c-19.2-31.6-47.5-39.4-62.6-41.2c-65.7-27-104.3-0.8-105.9,0.4l0.2,0.3
			c-11.2,1.9-25.4,12.8-44,33.6l-74.6,64.7l0.1,0.1C50,138.6,43,147,28.4,165.5c-7.8,9.9-10.7,21.8-8.5,35.3
			c10.7,67.6,148.4,160.8,153.9,164.5c16.6,12.6,34.8,18.9,54.2,18.8c42.1-0.4,74.5-31.1,76.1-32.5l110.2-114.4l1.2-1.6
			C446.2,177.7,401.4,137.8,400.9,137.4z M350.8,107.3l37.8,38.5c-2.8,25.7-74.6,115.4-121.5,168.5c-1.4,0.7-3.5,1.6-5.3,2.1
			c0.3-1.2,0.9-3,1.9-5.3C274.5,286.7,341.9,128.2,350.8,107.3z M211.2,315.4c0-0.1,0-0.3,0-0.4c0.1,0.1,0.2,0.2,0.2,0.3
			C211.4,315.4,211.3,315.4,211.2,315.4z M337.3,102c-9.4,22.2-76.1,179.1-86.8,203.3c-1.3,2.9-2.5,6.3-3.1,9.8
			c-0.9-0.1-1.7,0-2.5-0.1c2.5-4.5,5-10,7.4-17c1.9-7.5,44.8-176.2,25.3-248C293.3,52,322.3,61.2,337.3,102z M260.3,44.4l0.4,0.9
			c25.8,59.6-21.9,247.2-22.2,248.5c-6,17.1-10.3,19.9-10.2,20.3c-2.1-1.1-5.6-8.2-7.4-15.2c-38.6-110.4-28.4-246.6-28.3-248
			l0.1-0.9l-0.2-0.9c-0.2-1.6-1.2-3.6-2.4-5.6C202,38.8,226,33.6,260.3,44.4z M135.4,84.6c1.4-1.6,2.5-2.8,3.8-4.3l1.3-1.1l-0.2-0.1
			c23.4-26,33.5-28.5,36.1-28.5c0.5,0,1.1,0,1.5,0.7c-1.1,14.7,2,154.2,35.6,259.9C180.2,265.4,98.1,127.9,135.4,84.6z M68.9,148.3
			c0.5-3,0.8-5.4,0.8-7.6l41.9-36.5c-11.5,72.4,77.5,193.1,81.3,198.1c1.5,2.9,2.8,6.5,3.4,9.1c-2.6-1.1-7.1-3.4-14.5-8.5
			c-24.9-17.3-55.1-61.1-103.3-132.3l-2.6-3.9C73.6,163.3,68.1,153.5,68.9,148.3z M34.2,198.6c-1.5-9.6,0.3-17.5,5.6-24.1
			c2.7-3.4,8.3-10.5,13.5-16.9c-0.2,5.6,7.5,12.6,10.7,17.3l2.6,3.8c49.2,72.7,80.6,117.7,107,136.1c3.4,2.4,6.5,4.2,9.4,5.9
			c-15.4,4.4-25.5,9.7-29.5,12.1C112.5,301.9,41.1,242.4,34.2,198.6z M403,227.8l-97,100.7c-8.7-3.1-17.1-5.9-25.2-7.8
			C305.3,293,382.7,202.9,400,158.3C409,171.3,419.7,195.9,403,227.8z"/>
	</g>
</g>
<g>
	<g id="b127_fish">
		<path fill="#030104" d="M458.3,355.7C378.5,390.9,326.2,466,326.2,466c0.4,0.5,39.7,45.4,72.1,33.5l1.1,8
			c-4.1,1.5-8.3,2.1-12.5,2.1c-22.4,0-45.9-18.6-58-29.9c17.1,21.4,63.5,74.1,123.7,102.8C497.6,506,465.3,380.5,458.3,355.7z
			 M409.6,473.2c-11.1,0-20-9-20-20c0-11.1,9-20,20-20c11.1,0,20.1,9,20.1,20C429.6,464.2,420.6,473.2,409.6,473.2z"/>
		<path fill="#030104" d="M717.1,441.3C682,402.6,612,339.1,531.4,339.1c-22.5,0-44.2,5-64.5,13c6.9,23.4,41.6,152.5-5.8,234.3
			c22,9.4,45.6,15.3,70.3,15.3c85.4,0,158.8-71.3,191.6-108.8l64.7,36.9V410.9L717.1,441.3z"/>
		<path fill="#030104" d="M557.7,245.2c4,4.8,8.3,9.3,12.7,13.8c4.2,4.4,8,8.8,11.4,13.3c3.2,4.6,5.4,9.5,5.9,14.3
			c0.6,4.7-0.8,9.6-3.8,14.3c-3,4.7-7.2,8.9-11.8,13l0.4,0.8c6.2-1.5,11.9-4.7,16.7-9.5c4.8-4.6,8.3-11.8,7.8-19.3
			s-4.4-13.8-8.7-18.7c-4.3-5-9.5-8.8-14.9-11.9c-5.1-3-9.9-6.9-13.3-11.7c-3.4-4.9-4.6-10.9-4.3-16c0.2-2.5,0.7-5,1.5-7.4
			c0.8-2.4,2.1-4.7,3.6-7.1c3.1-4.6,7.2-8.8,11.6-13.2l-0.4-0.8c-6.2,1.5-11.9,4.9-16.5,9.7c-4.5,4.7-8,11.9-7,19.1
			C549.4,235.1,553.9,240.5,557.7,245.2z"/>
		<path fill="#030104" d="M628.9,245.2c4,4.8,8.2,9.3,12.6,13.8c4.2,4.4,8.1,8.8,11.4,13.3c3.2,4.6,5.4,9.5,5.9,14.3
			c0.6,4.7-0.8,9.6-3.8,14.3c-3,4.7-7.1,8.9-11.7,13l0.4,0.8c6.2-1.5,11.9-4.7,16.7-9.5c4.8-4.6,8.3-11.8,7.8-19.3
			c-0.5-7.5-4.4-13.8-8.7-18.7c-4.3-5-9.6-8.8-14.9-11.9c-5.1-3-10-6.9-13.3-11.7c-3.4-4.9-4.7-10.9-4.3-16c0.2-2.5,0.7-5,1.4-7.4
			c0.8-2.4,2.1-4.7,3.6-7.1c3.1-4.6,7.2-8.8,11.6-13.2l-0.4-0.8c-6.3,1.5-11.9,4.9-16.5,9.7c-4.5,4.7-8,11.9-7,19.1
			C620.6,235.1,625.1,240.5,628.9,245.2z"/>
		<path fill="#030104" d="M480,245.2c4,4.8,8.2,9.3,12.6,13.8c4.2,4.4,8,8.8,11.4,13.3c3.3,4.6,5.4,9.5,5.9,14.3
			c0.6,4.7-0.8,9.6-3.8,14.3c-2.9,4.7-7.1,8.9-11.7,13l0.4,0.8c6.2-1.5,11.9-4.7,16.7-9.5c4.8-4.6,8.3-11.8,7.8-19.3
			c-0.5-7.5-4.4-13.8-8.7-18.7c-4.3-5-9.5-8.8-14.9-11.9c-5.1-3-10-6.9-13.3-11.7c-3.4-4.9-4.6-10.9-4.3-16c0.1-2.5,0.7-5,1.5-7.4
			c0.8-2.4,2.1-4.7,3.6-7.1c3-4.6,7.2-8.8,11.6-13.2l-0.4-0.8c-6.2,1.5-11.9,4.9-16.5,9.7c-4.5,4.7-8,11.9-7,19.1
			C471.6,235.1,476.1,240.5,480,245.2z"/>
	</g>
</g>
</svg>
