<?xml version="1.0" encoding="utf-8"?>
<!-- Generator: Adobe Illustrator 18.1.1, SVG Export Plug-In . SVG Version: 6.00 Build 0)  -->
<svg version="1.1" id="Capa_1" xmlns="http://www.w3.org/2000/svg" xmlns:xlink="http://www.w3.org/1999/xlink" x="0px" y="0px"
	 viewBox="0 0 792 612" enable-background="new 0 0 792 612" xml:space="preserve">
<g>
	<g>
		<path d="M317.4,476.4c31.3,0,56.7,0,78.1,0c2.7,0,5.4,0,8.2,0c21.3,0,46.8,0,78.1,0c86.7,0,142.1-118,138.9-182
			c0-1.4,0.5-2.7,0.5-3.6c0-19.5-21.8-31.8-73.1-41.3c-39-7.3-89.9-11.3-144.4-11.8l0,0c-1.4,0-2.7,0-4.1,0c-1.4,0-2.7,0-4.1,0l0,0
			c-54.5,0.5-105.3,4.5-144.4,11.8c-51.3,9.5-73.1,21.8-73.1,41.3c0,1.4,0,2.7,0.5,3.6C175.3,357.9,230.7,476.4,317.4,476.4z
			 M399.6,264.8c109.9,0.5,174.8,15.4,192,25.4c-17.3,10-82.6,25-192,25.4c-109.9-0.5-174.8-15.4-192-25.4
			C224.8,280.2,289.7,265.3,399.6,264.8z"/>
		<path d="M332.4,142.2c2.3,4.1,3.6,5,5.4,7.7l4.5,5.9c0.9,1.8,2.3,3.6,2.7,5.4c1.4,4.1,3.2,8.2,3.6,12.7c1.4,9.1,1.4,18.6,0.9,26.8
			c-0.9,16.8-2.7,28.6-2.7,28.6s9.1-8.6,15.9-25.4c1.8-4.1,3.6-9.1,4.5-14.1c1.4-5.4,2.3-10.9,1.8-17.3c0-6.4-0.9-13.2-3.2-19.5
			c-0.9-3.2-3.2-6.4-4.5-9.5c-0.9-1.8-2.3-3.2-3.2-4.5l-1.8-2.3l-0.9-0.9v-0.5l0.5,0.5l0,0l-0.5-0.5c-1.4-1.8-4.5-5-4.5-6.4
			c-0.9-1.4-1.8-2.7-2.3-5c-1.8-4.1-2.7-8.6-3.6-13.2c-1.4-9.1-1.4-18.6-0.9-27.2c0.9-16.8,2.7-28.6,2.7-28.6s-8.6,8.6-15.9,25.4
			c-3.6,8.6-6.8,19.1-6.8,31.3c0,5.9,0.5,12.7,2.7,19.5C328.3,135,330.1,138.6,332.4,142.2z"/>
		<path d="M384.6,83.2c2.3,4.1,3.6,5,5.4,7.7l4.5,5.9c0.9,1.8,2.3,3.6,2.7,5.4c1.4,4.1,3.2,8.2,3.6,12.7c1.4,9.1,1.4,18.6,0.9,26.8
			c-0.9,16.8-2.7,28.6-2.7,28.6s9.1-8.6,15.9-25.4c1.8-4.1,3.6-9.1,4.5-14.1c1.4-5.4,2.3-10.9,1.8-17.3c0-6.4-0.9-13.2-3.2-19.5
			c-0.9-3.2-3.2-6.4-4.5-9.5c-0.9-1.4-2.3-3.2-3.2-4.5l-1.8-2.3l-0.9-0.9v-0.5l0.5,0.5l0,0l-0.5-0.5c-1.4-1.8-4.5-5-4.5-6.4
			c-0.9-1.4-1.8-2.7-2.3-5c-1.8-4.1-2.7-8.6-3.6-13.2c-1.4-9.1-1.4-18.6-0.9-27.2C397.3,7.8,399.1-4,399.1-4s-8.6,8.6-15.9,25.4
			c-3.6,8.6-6.8,19.1-6.8,31.3c0,5.9,0.5,12.7,2.7,19.5C380.5,75.9,382.3,79.6,384.6,83.2z"/>
		<path d="M449.1,136.8c2.3,4.1,3.6,5,5.4,7.7l4.5,5.9c0.9,1.8,2.3,3.6,2.7,5.4c1.4,4.1,3.2,8.2,3.6,12.7c1.4,9.1,1.4,18.6,0.9,26.8
			c-0.9,16.8-2.7,28.6-2.7,28.6s8.6-8.6,15.9-25.4c1.8-4.1,3.6-9.1,4.5-14.1c0.9-5.4,2.3-10.9,1.8-17.3c0-5.9-0.9-13.2-3.2-19.5
			c-0.9-3.2-3.2-6.4-4.5-9.5c-0.9-1.8-2.3-3.2-3.2-4.5l-1.8-2.3l-0.9-0.9l-0.5-0.5c0,0,0.5,0.5,0.5,0.9l0,0l-0.5-0.5
			c-1.4-1.8-4.5-5-4.5-6.4c-0.9-1.4-1.8-2.7-2.3-5c-1.4-4.1-2.7-8.6-3.6-13.2c-1.4-9.1-1.4-18.6-0.9-27.2
			c0.9-16.8,2.7-28.6,2.7-28.6s-8.6,8.6-15.9,25.4c-3.6,8.6-6.8,19.1-6.8,31.3c0,5.9,0.5,12.7,2.7,19.5
			C445,129.5,447.3,133.1,449.1,136.8z"/>
		<path d="M635.7,550.8c-0.5-39-38.1-60.8-78.5-60.8c-40.9,0-69.9,24.5-76.7,45.9c-16.3,11.8-55.4,4.1-77.6-4.1
			c-10.9,0-175.2,0-175.2,0l0,0c0,0,0,0-0.5,0c-10,0-18.2,8.2-18.2,18.2c0,0.5,0,2.3,0,3.2c0,10,8.2,18.2,18.2,18.2h0.5l0,0
			c0,0,164.3,0,175.2,0c22.2-8.2,61.3-15.9,77.6-4.5c6.4,21.3,35.9,45.9,76.7,45.9c40.4,0,78.1-22.2,78.5-60.8l0,0
			C635.7,551.3,635.7,550.8,635.7,550.8L635.7,550.8z M587.5,514.9c-2.7,0-6.8-0.5-11.8-0.5c-9.5,0-23.2-0.9-35,0.9
			c-2.7,0.5-5.9,1.4-8.6,2.3s-5.9,1.8-8.6,3.2c-5.4,2.3-10.9,4.5-15.4,6.8c-4.5,1.8-8.2,4.1-10.4,5.4c-2.7,1.4-3.6,2.7-3.6,2.7
			s0.5-1.8,2.3-4.1c1.8-2.3,5-5.4,8.6-8.6c4.1-3.2,8.6-6.8,14.5-10c2.7-1.4,5.9-3.2,9.1-4.5c3.2-1.4,6.4-2.3,10.4-3.2
			c7.3-1.4,14.1-1.4,20.9-0.5c6.4,0.9,12.3,2.3,17.3,3.6c5,1.4,8.6,3.2,11.3,4.5c2.7,1.4,4.1,2.7,4.1,2.7S590.7,514.9,587.5,514.9z"
			/>
	</g>
</g>
</svg>
