<?xml version="1.0" encoding="utf-8"?>
<!-- Generator: Adobe Illustrator 18.1.1, SVG Export Plug-In . SVG Version: 6.00 Build 0)  -->
<svg version="1.1" id="Capa_1" xmlns="http://www.w3.org/2000/svg" xmlns:xlink="http://www.w3.org/1999/xlink" x="0px" y="0px"
	 viewBox="0 0 792 612" enable-background="new 0 0 792 612" xml:space="preserve">
<g>
	<g>
		<path d="M577.6,548.3c-61.4,0-131.3-22.5-207.7-66.7c-61.4-35.6-124.8-46.9-180.7-56.9C132,414.4,73.7,403.8,38.8,364.3
			c3.7,159.9,179,87.9,347,185.3c206.8,119.9,333.5,54,352.7-86.7C705.1,516.9,649,548.3,577.6,548.3z"/>
		<path d="M215.5,342.2c53.2,8.6,113.6,18.4,174.2,50.2c63.2,33.1,120.1,49.9,169,50l0,0c43.6,0,79.4-13.9,103.8-40.2
			c23.6-25.5,36-61.9,36-105.4c0-131.2-140.1-238-312.3-238c-193.8,0-304.9,67.6-304.9,185.4C81.4,320.5,134.7,329.1,215.5,342.2z
			 M259.4,129.1c48.5,0,87.9,30.5,87.9,68c0,37.6-39.3,68-87.9,68c-48.5,0-87.9-30.5-87.9-68C171.5,159.5,210.9,129.1,259.4,129.1z"
			/>
		<path d="M385.8,454.1C610.9,584.5,741.2,495,741.2,328.3S582.1,26.7,385.8,26.7c-196.3,0-347.2,70.4-347.2,237.1
			S216,355.6,385.8,454.1z M386.3,43.8c180.4,0,327.2,113.4,327.2,252.9c0,47.3-13.8,87.3-40,115.5c-27.2,29.4-66.9,45-114.7,45l0,0
			c-51.4,0-110.6-17.4-175.9-51.7c-58.5-30.7-117.5-40.2-169.6-48.7c-81.9-13.3-146.7-23.8-146.7-112.8
			C66.5,116.8,183,43.8,386.3,43.8z"/>
		<ellipse cx="259.4" cy="197.1" rx="43.6" ry="33.7"/>
	</g>
</g>
</svg>
