<?xml version="1.0" encoding="utf-8"?>
<!-- Generator: Adobe Illustrator 18.1.1, SVG Export Plug-In . SVG Version: 6.00 Build 0)  -->
<svg version="1.1" id="Capa_1" xmlns="http://www.w3.org/2000/svg" xmlns:xlink="http://www.w3.org/1999/xlink" x="0px" y="0px"
	 viewBox="0 0 792 612" enable-background="new 0 0 792 612" xml:space="preserve">
<g>
	<path d="M711.9,20.9c-8.9-7.1-21.3-5.8-28.4,2.7L512.9,231.9c4.9,4,8.9,8,13.3,12.4L713.7,50.2c0.4-0.4,0.9-0.9,1.3-1.3
		C721.7,40.4,720.4,28,711.9,20.9z"/>
	<path d="M628.9,33.7c0.4-0.4,0.4-0.9,0.9-1.3c5.8-9.8,2.2-22.2-7.1-27.5c-9.8-5.8-22.2-2.2-27.5,7.1L478.7,211
		c6.7,2.7,12.9,6.2,19.1,10.2L628.9,33.7z"/>
	<path d="M354.3,151c37.3,0,69.3,20.4,87.1,50.2c8.9,1.3,17.8,3.1,25.8,5.8c-18.2-44.4-61.7-76.4-112.8-76.4s-94.6,31.5-112.8,76.4
		c8.4-2.7,16.9-4.9,25.8-5.8C285,171,317.4,151,354.3,151z"/>
	<path d="M354.3,171.5c-24.4,0-46.2,11.1-61.3,28.4c8.9,0.4,17.3,1.3,25.8,3.6c10.2-7.1,22.2-11.6,35.5-11.6
		c13.3,0,25.3,4.4,35.5,11.6c8.4-1.8,16.9-3.1,25.8-3.6C400.5,182.6,379.2,171.5,354.3,171.5z"/>
	<path d="M161.5,366c-3.1,13.8-4.9,28-4.9,42.6c0,70.6,36.9,131.9,92.4,167v9.3c0,13.8,11.1,24.9,24.9,24.9h163.9
		c9.3,0,21.8-9.8,21.8-24.9v-9.3c55.5-35.1,92.4-96.8,92.4-167c0-14.7-1.8-28.9-4.9-42.6H161.5L161.5,366z"/>
	<path d="M533.8,342.9h11.1c0-68-55.1-123.1-123.1-123.1c-16.9,0-33.3,3.6-48,9.8c6.7,5.3,13.3,11.1,19.1,17.8
		c9.3-2.7,18.7-4.9,28.9-4.9c55.5,0,100.4,45.3,100.4,100.4H533.8z"/>
	<path d="M481.8,342.9h20.4h2.2c0-45.3-36.9-82.2-82.2-82.2c-5.8,0-11.6,0.4-16.9,1.8c4.4,6.7,8.4,13.8,12,21.3
		c1.8,0,3.1-0.4,4.9-0.4C455.2,283,481.8,309.6,481.8,342.9z"/>
	<path d="M428.9,325.6c6.7,2.7,11.6,9.3,11.6,16.9h22.7c0-21.8-17.3-39.5-39.1-40.9C426.3,309.6,428.1,317.6,428.9,325.6z"/>
	<path d="M186.4,342.9c0-55.5,45.3-100.4,100.4-100.4c55.5,0,100.4,45.3,100.4,100.4h11.1h4.9h6.2c0-68-55.1-123.1-123.1-123.1
		S163.3,275,163.3,342.9h11.1H186.4z"/>
	<path d="M346.8,342.9h15.5h4.9h2.2c0-45.3-36.9-82.2-82.2-82.2c-45.3,0-82.2,36.9-82.2,82.2h2.2h20.4c0-32.9,26.7-60,60-60
		C319.7,283,346.8,309.6,346.8,342.9z"/>
	<path d="M245.9,342.9h22.7c0-10.2,8.4-18.7,18.7-18.7c10.2,0,18.7,8.4,18.7,18.7h4.9h11.1h6.2c0-22.7-18.2-40.9-40.9-40.9
		C264.1,301.6,245.9,320.3,245.9,342.9z"/>
</g>
</svg>
