<?xml version="1.0" encoding="utf-8"?>
<!-- Generator: Adobe Illustrator 18.1.1, SVG Export Plug-In . SVG Version: 6.00 Build 0)  -->
<svg version="1.1" id="Capa_1" xmlns="http://www.w3.org/2000/svg" xmlns:xlink="http://www.w3.org/1999/xlink" x="0px" y="0px"
	 viewBox="0 0 792 612" enable-background="new 0 0 792 612" xml:space="preserve">
<g>
	<path d="M335.4,241.4V133.6c11.9-11.1,18.9-26.8,18.9-43.4V65.8c0-32.7-26.6-59.3-59.3-59.3H181c-9.8,0-19.1,2.4-27.3,6.7
		L53.5,109.7c-9,10.4-14.5,24-14.5,38.8v24.4c0,16.6,6.9,32.2,18.9,43.4V324h194.9 M239.4,172.9c0,9-4.4,17.3-11.8,22.4l-7,4.8v91.7
		H90.1v-91.7l-7-4.8c-7.4-5.1-11.8-13.4-11.8-22.4v-24.4c0-15,12.2-27.1,27.1-27.1h114c15,0,27.1,12.2,27.1,27.1L239.4,172.9
		L239.4,172.9z"/>
</g>
<g>
	<g id="Layer_1_119_">
		<g>
			<path d="M741,78H559.1c-29.4,0-53.5,24.1-53.5,53.5c0,2.7,0,6.2,0.9,8.9h116.8c43.7,0,80.3,35.7,80.3,80.3
				c0,25.9-12.5,49.9-33.9,65.1v102.6H741c11.6,0,20.5-8.9,20.5-20.5V180.6c18.7-8,33-27.6,33-49.9C794.5,101.2,770.4,78,741,78z"/>
			<path d="M676.8,219.8c0-47.3-44.6-53.5-53.5-53.5H441.4c-10.7,0-53.5,8.9-53.5,53.5c0,37.5,25,46.4,33.9,49.9v183.7
				c0,13.4,10.7,23.2,23.2,23.2h174.8c6.2,0,12.5-2.7,16.9-7.1c4.5-4.5,7.1-10.7,7.1-16.9V268.9
				C652.7,266.2,676.8,250.1,676.8,219.8z M633.1,244.8l-16.1,7.1v17.8v181H447.6v-181v-17.8l-16.1-7.1c-10.7-3.6-16.9-13.4-16.9-25
				c0-15.2,12.5-26.8,26.8-26.8h181.9c15.2,0,26.8,12.5,26.8,26.8C650,230.5,643.8,241.2,633.1,244.8z"/>
			<circle cx="502" cy="247.5" r="15.2"/>
			<circle cx="548.4" cy="272.4" r="16.1"/>
			<circle cx="505.6" cy="321.5" r="18.7"/>
			<circle cx="564.4" cy="355.4" r="16.1"/>
			<circle cx="534.1" cy="403.5" r="16.1"/>
			<circle cx="489.5" cy="384.8" r="8.9"/>
			<circle cx="582.3" cy="227.8" r="11.6"/>
		</g>
	</g>
</g>
<g>
	<g>
		<path d="M352.5,426.2c-0.1-0.1-0.2-0.1-0.3-0.2c-2.5-1.7-5.8-1.8-8.5-0.2c-2.6,1.5-4.2,4.4-3.9,7.5c1.8,25.1-0.1,47.6-2,61.9
			c-0.2,1.3-1.3,2.3-2.6,2.4c-1.3,0-2.5-0.9-2.8-2.2c-7.6-38.7-22.7-72-32.1-90.4c-1-2-2.8-3.4-4.9-4.1c-24.8-7-47.8-9.4-62.1-10.2
			c-2.5-0.1-4.9,0.9-6.6,2.9c-1.6,1.9-2.2,4.5-1.6,7c8.7,36.3,6.4,76.5,4.3,96.8c-0.1,1.3-1.2,2.3-2.5,2.4c-1.3,0.1-2.5-0.7-2.9-2
			c-6.9-23.8-22.5-74.5-37.9-100.8c-1.6-2.7-4.6-4.2-7.6-3.9c-20.9,2-41.1,5-59,13.1c0,0,0,0,0,0c-3.6,0-5.7,3.8-5.1,7.6
			c5.2,33,2.8,63.7,0.4,81.9c-0.2,1.3-1.3,2-2.6,2.1c-1.3,0-2.5-1-2.8-2.4c-4.9-25-13-47.9-20.6-65.8c-1.1-2.6-3.3-4.7-6-5.6
			c-2.7-0.9-5.6-0.6-8.1,0.8C26.4,453,4.8,485.8,4.8,519.3c0,71.2,92.9,79.7,207.6,79.7S420,590.5,420,519.3
			C420,488.6,400.8,458.4,352.5,426.2z"/>
	</g>
</g>
</svg>
