<?xml version="1.0" encoding="utf-8"?>
<!-- Generator: Adobe Illustrator 18.1.1, SVG Export Plug-In . SVG Version: 6.00 Build 0)  -->
<svg version="1.1" id="Capa_1" xmlns="http://www.w3.org/2000/svg" xmlns:xlink="http://www.w3.org/1999/xlink" x="0px" y="0px"
	 viewBox="158.1 134.3 237.9 151.3" enable-background="new 158.1 134.3 237.9 151.3" xml:space="preserve">
<g>
	<g>
		<path d="M333.5,186.9c4.6-4.5,7.5-10.9,7.5-17.9c0-1.3-0.1-2.6-0.3-3.9l-15.3,4.4l-2.1,2.5L333.5,186.9z"/>
		<path d="M319.9,144.2V162h3.6l14.9-4.3C334.9,150.7,328,145.5,319.9,144.2z"/>
		<path d="M304.2,191.1c3.5,1.9,7.5,3,11.8,3c4,0,7.9-1,11.2-2.7l-9.5-13.8L304.2,191.1z"/>
		<path d="M312.1,144.2c-7.8,1.2-14.3,6-18,12.6l15.7,5.2h2.4V144.2z"/>
		<path d="M340.5,144.5c-6.5-6.5-15.2-10.1-24.5-10.1s-18,3.6-24.5,10.1c-4.9,4.9-8.1,10.9-9.5,17.5h6.4
			c3.1-12.3,14.3-21.5,27.6-21.5c15.7,0,28.5,12.8,28.5,28.5s-12.8,28.5-28.5,28.5c-5.2,0-10.1-1.4-14.3-3.9l-4.5,4.5
			c5.6,3.6,12,5.5,18.8,5.5c9.3,0,18-3.6,24.5-10.1c6.5-6.5,10.1-15.2,10.1-24.5C350.7,159.7,347.1,151,340.5,144.5z"/>
		<polygon points="272.5,275.7 272.5,214.7 317.8,169.4 317.8,166 215,166 215,169.4 260.3,214.7 260.3,275.7 243.7,275.7 
			240.1,285.5 292.8,285.5 289.2,275.7 		"/>
		<polygon points="251,162 229,140.1 224.6,144.5 242.2,162 		"/>
	</g>
</g>
</svg>
