<?xml version="1.0" encoding="utf-8"?>
<!-- Generator: Adobe Illustrator 18.1.1, SVG Export Plug-In . SVG Version: 6.00 Build 0)  -->
<svg version="1.1" id="Capa_1" xmlns="http://www.w3.org/2000/svg" xmlns:xlink="http://www.w3.org/1999/xlink" x="0px" y="0px"
	 viewBox="158.1 134.3 237.9 151.3" enable-background="new 158.1 134.3 237.9 151.3" xml:space="preserve">
<g>
	<path d="M341.6,192.6H339c-0.3,0-0.6,0.3-0.6,0.6v2.3h-5.2c0.1-1.1,0.1-2.2,0.1-3.4c0-1.1-0.9-2-2-2H228.1c-1.1,0-2,0.9-2,2
		c0,1.1,0,2.3,0.1,3.4H221v-2.3c0-0.3-0.2-0.6-0.6-0.6h-2.6c-0.3,0-0.6,0.3-0.6,0.6v8.8c0,0.3,0.2,0.6,0.6,0.6h2.6
		c0.3,0,0.6-0.2,0.6-0.6v-2.3h5.7c0.6,4.6,1.9,9,3.7,13.3c2.7,6.4,6.6,12.1,11.5,17c3.7,3.7,7.9,6.8,12.5,9.3l-17.8,33
		c-0.1,0-0.3,0-0.4,0c-3.8,0-6.8,3-6.8,6.8s3,6.8,6.8,6.8s6.8-3,6.8-6.8c0-1.5-0.5-2.9-1.3-4.1l5.2-9.5h66.1l5.2,9.5
		c-0.8,1.1-1.3,2.5-1.3,4.1c0,3.8,3,6.8,6.8,6.8c3.8,0,6.8-3,6.8-6.8s-3-6.8-6.8-6.8c-0.1,0-0.3,0-0.4,0l-17.8-33
		c4.6-2.5,8.7-5.6,12.5-9.3c4.9-4.9,8.8-10.7,11.5-17c1.8-4.3,3-8.7,3.7-13.3h5.7v2.3c0,0.3,0.2,0.6,0.6,0.6h2.6
		c0.3,0,0.6-0.2,0.6-0.6v-8.8C342.1,192.9,341.9,192.6,341.6,192.6z M309.7,259.8h-60l9.7-18c6.4,2.6,13.2,4,20.3,4s13.8-1.3,20.3-4
		L309.7,259.8z M319.6,202.8c-1.2,5.7-3.8,11.2-7.5,15.8c-3.6,4.6-8.3,8.3-13.5,10.8c-0.3,0.1-0.6,0.2-0.9,0.2
		c-0.7,0-1.5-0.4-1.8-1.1c-0.5-1-0.1-2.2,0.9-2.7c9.5-4.6,16.6-13.5,18.8-23.9c0.2-1.1,1.3-1.8,2.4-1.5
		C319.1,200.6,319.8,201.7,319.6,202.8z"/>
	<g>
		<path d="M302.1,165.6c0-3-1.4-4.5-2.3-5.7c-0.8-0.9-1.1-1.3-1.1-2.3c0-1.1,0.3-1.5,1.1-2.3c1-1.2,2.3-2.7,2.3-5.7
			c0-3-1.4-4.5-2.3-5.7c-0.8-0.9-1.1-1.3-1.1-2.3c0-1.2,0.4-1.6,1.2-2.5c0.2-0.2,0.4-0.5,0.6-0.7c0.9-1.1,0.7-2.7-0.4-3.6
			c-1-0.8-2.2-0.9-3.3,0c-0.5,0.4-1.5,1.6-1.8,2.1c-0.8,1.1-1.5,2.6-1.5,4.8c0,3,1.4,4.5,2.3,5.7c0.8,0.9,1.1,1.3,1.1,2.3
			c0,1.1-0.3,1.5-1.1,2.3c-1,1.2-2.3,2.7-2.3,5.7c0,3,1.4,4.5,2.3,5.7c0.8,0.9,1.1,1.3,1.1,2.3c0,1.1-0.3,1.5-1.1,2.3
			c-1,1.2-2.3,2.7-2.3,5.7c0,3,2.5,6,3.2,6.7c0.5,0.5,1.1,0.7,1.8,0.7c0.5,0,1.1-0.2,1.6-0.5c1.1-0.9,1.4-2.5,0.5-3.6
			c-0.2-0.3-0.5-0.6-0.7-0.9c-0.8-0.9-1.1-1.3-1.1-2.3c0-1.1,0.3-1.5,1.1-2.3C300.7,170.2,302.1,168.6,302.1,165.6z"/>
		<path d="M284,165.6c0-3-1.4-4.5-2.3-5.7c-0.8-0.9-1.1-1.3-1.1-2.3c0-1.1,0.3-1.5,1.1-2.3c1-1.2,2.3-2.7,2.3-5.7
			c0-3-1.4-4.5-2.3-5.7c-0.8-0.9-1.1-1.3-1.1-2.3c0-1.2,0.4-1.6,1.2-2.5c0.2-0.2,0.4-0.5,0.6-0.7c0.9-1.1,0.7-2.7-0.4-3.6
			c-1-0.8-2.2-0.9-3.3,0c-0.5,0.4-1.5,1.6-1.8,2.1c-0.8,1.1-1.5,2.6-1.5,4.8c0,3,1.4,4.5,2.3,5.7c0.8,0.9,1.1,1.3,1.1,2.3
			c0,1.1-0.3,1.5-1.1,2.3c-1,1.2-2.3,2.7-2.3,5.7c0,3,1.4,4.5,2.3,5.7c0.8,0.9,1.1,1.3,1.1,2.3c0,1.1-0.3,1.5-1.1,2.3
			c-1,1.2-2.3,2.7-2.3,5.7c0,3,2.5,6,3.2,6.7c0.5,0.5,1.1,0.7,1.8,0.7c0.5,0,1.1-0.2,1.6-0.5c1.1-0.9,1.4-2.5,0.5-3.6
			c-0.2-0.3-0.5-0.6-0.7-0.9c-0.8-0.9-1.1-1.3-1.1-2.3c0-1.1,0.3-1.5,1.1-2.3C282.7,170.2,284,168.6,284,165.6z"/>
		<path d="M265.9,165.6c0-3-1.4-4.5-2.3-5.7c-0.8-0.9-1.1-1.3-1.1-2.3c0-1.1,0.3-1.5,1.1-2.3c1-1.2,2.3-2.7,2.3-5.7
			c0-3-1.4-4.5-2.3-5.7c-0.8-0.9-1.1-1.3-1.1-2.3c0-1.2,0.4-1.6,1.2-2.5c0.2-0.2,0.4-0.5,0.6-0.7c0.9-1.1,0.7-2.7-0.4-3.6
			c-1-0.8-2.2-0.9-3.3,0c-0.5,0.4-1.5,1.6-1.8,2.1c-0.8,1.1-1.5,2.6-1.5,4.8c0,3,1.4,4.5,2.3,5.7c0.8,0.9,1.1,1.3,1.1,2.3
			c0,1.1-0.3,1.5-1.1,2.3c-1,1.2-2.3,2.7-2.3,5.7c0,3,1.4,4.5,2.3,5.7c0.8,0.9,1.1,1.3,1.1,2.3c0,1.1-0.3,1.5-1.1,2.3
			c-1,1.2-2.3,2.7-2.3,5.7c0,3,2.5,6,3.2,6.7c0.5,0.5,1.1,0.7,1.8,0.7c0.5,0,1.1-0.2,1.6-0.5c1.1-0.9,1.4-2.5,0.5-3.6
			c-0.2-0.3-0.5-0.6-0.7-0.9c-0.8-0.9-1.1-1.3-1.1-2.3c0-1.1,0.3-1.5,1.1-2.3C264.6,170.2,265.9,168.6,265.9,165.6z"/>
	</g>
</g>
</svg>
