<?xml version="1.0" encoding="utf-8"?>
<!-- Generator: Adobe Illustrator 18.1.1, SVG Export Plug-In . SVG Version: 6.00 Build 0)  -->
<svg version="1.1" id="Capa_1" xmlns="http://www.w3.org/2000/svg" xmlns:xlink="http://www.w3.org/1999/xlink" x="0px" y="0px"
	 viewBox="0 0 792 612" enable-background="new 0 0 792 612" xml:space="preserve">
<g>
	<g id="Layer_1_93_">
		<g>
			<ellipse cx="425.3" cy="292.6" rx="14.2" ry="43.5"/>
			<path d="M122.4,100.6c-10.9,4.3-21.8,9.6-32.7,16.5h-9.9c-35.7,0-54.3,74-54.3,147.1s18.7,147.1,54.3,147.1h9.9
				c10.9,6.9,21.8,12.2,32.7,16.5C104.2,390,94.8,326.9,94.8,264.2S104.2,138.4,122.4,100.6z"/>
			<path d="M176.6,87.3c-8.9,1.1-17.7,2.6-26.5,4.7c-17.9,20.5-36.4,82.4-36.4,172.2s18.5,151.7,36.4,172.2
				c8.8,2.1,17.6,3.6,26.5,4.7C159,399.5,150,331.6,150,264.2C150,196.8,159,128.9,176.6,87.3z"/>
			<path d="M415.8,117.1c-0.3,0-0.6,0.1-0.8,0.1c-14.8-9.3-29.5-15.9-44.3-20.7c-19.3,12.8-41.6,74.2-41.6,167.7
				s22.3,154.8,41.6,167.7c14.8-4.8,29.5-11.4,44.3-20.7c0.3,0,0.6,0.1,0.8,0.1c35.7,0,54.3-74,54.3-147.1
				C470.2,191.1,451.5,117.1,415.8,117.1z M415.8,392.4c-14.4,0-35.4-49.9-35.4-128.2s21-128.2,35.4-128.2
				c14.4,0,35.4,49.9,35.4,128.2S430.3,392.4,415.8,392.4z"/>
			<path d="M349.5,90.9c-26.7-5.6-53.9-6.4-82.6-6.4h-29c-13.4,0-26.4,0.2-39.2,0.9c-15.4,30.3-29.7,93.7-29.7,178.9
				c0,86.1,13.9,148.8,29.3,178.8c13,0.8,26.1,0.9,39.7,0.9h29c0,0,0,0,0,0c28.7,0,55.9-0.8,82.6-6.4
				c-25.7-31.3-39.3-104-39.3-173.3C310.2,194.8,323.8,122.2,349.5,90.9z"/>
		</g>
	</g>
</g>
<g>
	<path d="M728.3,285.8H568.1c-22.1,0-22.1,0-22.1,22.1v25.3c-5-2-10.8-3.2-16.6-3.2c-24.4,0-44.2,19.8-44.2,44.2V457
		c0,24.4,19.8,44.2,44.2,44.2c5.9,0,11.6-1.2,16.6-3.2v30.8c0,22.1,0,22.1,22.1,22.1h160.2c22.1,0,22,0,22-22.1V307.9
		C750.3,285.8,750.4,285.8,728.3,285.8z M546,457c0,9.2-7.4,16.6-16.6,16.6c-9.2,0-16.6-7.4-16.6-16.6v-82.8
		c0-9.2,7.4-16.6,16.6-16.6c9.2,0,16.6,7.4,16.6,16.6V457z M606.6,368.6v124.6c0,3.8-3.3,7-7.1,7s-7.1-3.2-7.1-7V368.6v-7
		c0-3.8,3.3-7,7.1-7s7.1,3.2,7.1,7V368.6z M654.8,368.6V494c0,3.8-3.3,7-7.1,7c-3.8,0-7.1-3.2-7.1-7V368.6v-6.3c0-3.8,3.3-7,7.1-7
		c3.8,0,7.1,3.2,7.1,7V368.6z M703.1,368.6v124.6c0,3.8-3.3,7-7.1,7c-3.8,0-7.1-3.2-7.1-7V368.6v-7c0-3.8,3.3-7,7.1-7
		c3.8,0,7.1,3.2,7.1,7V368.6z M711.5,368.6v-7c0-4.1-1.7-8-4.6-10.9c-2.9-2.9-6.8-4.5-10.9-4.5c-4.1,0-8,1.6-10.9,4.5
		c-2.9,2.9-4.5,6.8-4.5,10.9v7h-17.3v-6.3c0-4.1-1.6-8-4.6-10.9c-2.9-2.9-6.8-4.5-10.9-4.5s-8,1.6-10.9,4.5
		c-2.9,2.9-4.6,6.8-4.6,10.9v6.3h-17.3v-7c0-4.1-1.6-8-4.5-10.9c-2.9-2.9-6.8-4.5-10.9-4.5c-4.1,0-8,1.6-10.9,4.5
		c-2.9,2.9-4.6,6.8-4.6,10.9v7c-10.3,0-10.3-0.6-10.3-12.2v-30.9c0-12.2-0.1-12.1,12.2-12.1h124.8c12.2,0,12,0,12,12.1v30.9
		C722.7,368.4,722.8,368.6,711.5,368.6z"/>
</g>
</svg>
