<?xml version="1.0" encoding="utf-8"?>
<!-- Generator: Adobe Illustrator 18.1.1, SVG Export Plug-In . SVG Version: 6.00 Build 0)  -->
<svg version="1.1" id="Capa_1" xmlns="http://www.w3.org/2000/svg" xmlns:xlink="http://www.w3.org/1999/xlink" x="0px" y="0px"
	 viewBox="0 0 792 612" enable-background="new 0 0 792 612" xml:space="preserve">
<g>
	<g>
		<path d="M538.9,175.6v-17.7c11.5-20.4,13.7-41.7,13.7-43.9c0-25.3-17.7-76.7-85.2-87.8c-35.5-5.8-48.8-11.5-58.5-16
			c-10.2-4.4-19.1-8-39.5-8c-88.7,0-183.2,8.4-183.2,111.8c0,29.7,10.6,64.3,40.4,64.3v395.6c0,0,8.4,38.1,156.1,38.1
			c147.3,0,156.1-38.1,156.1-38.1v-51.4c62.1-3.5,111.3-40.8,111.3-86.5V262.1C650.3,216.4,601,179.1,538.9,175.6 M500.8,506.9
			c0,0-2.2,38.1-118,38.1s-116.2-38.1-116.2-38.1V151.2c6.2,7.5,17.3,13.7,38.1,14.6v304.3c0,10.6-4.9,19.5-11.1,19.5
			s-11.1-8.9-11.1-19.5v19.5c0,12.4,9.8,22.2,22.2,22.2c12.4,0,22.2-9.8,22.2-22.2V211.9c4,10.2,11.1,20,25.3,24.8l9.8,3.1
			c11.1,3.5,16.9,5.8,20.4,8.4v243.9c0,10.6-4.9,19.5-11.1,19.5c-6.2,0-11.1-8.9-11.1-19.5v19.5c0,12.4,9.8,22.2,22.2,22.2
			c12.4,0,22.2-9.8,22.2-22.2V360.1c7.5,18.2,19.1,31.9,35.9,31.9c4.4,0,12-0.9,20-4.4v82.5c0,10.6-4.9,19.5-11.1,19.5
			s-11.1-8.9-11.1-19.5v19.5c0,12.4,9.8,22.2,22.2,22.2c12.4,0,22.2-9.8,22.2-22.2V365c5.8-11.1,10.2-26.6,10.2-49.2
			c0-60.3,3.5-91.8,7.5-108.7L500.8,506.9L500.8,506.9z M511.9,138.3c-4,8-10.2,16-19.1,20.4c-4.4,2.2-8,6.2-11.5,10.6
			c-12,16-18.2,47.5-20.4,101.1c-0.4,13.7-0.9,28.8-0.9,45.7c0,9.8-1.3,41.2-17.7,42.6c-8.9-7.5-20.4-52.8-20.4-90
			c0-24-6.2-36.8-16.9-45.2c-6.2-4.9-14.2-8.4-23.5-11.5c-3.1-0.9-5.8-2.2-9.3-3.1l-8.4-2.7l-0.9-0.4c-0.9-0.4-1.8-0.9-2.7-1.3
			c-2.7-2.2-4-6.7-5.3-20.4c-1.3-16.4-4-50.1-45.2-50.1c-14.2,0-17.7-2.7-18.6-4.4c-2.2-5.8-8-19.1-28.8-19.1
			c-24,0-30.6,20-33.7,29.3c-0.9,2.2-2.2,6.2-1.3,6.7c-3.5-2.2-7.5-16.9-7.5-31c0-58.5,37.7-78.5,149.5-78.5
			c13.3,0,17.3,1.8,26.2,5.3c11.5,4.9,27.1,11.5,66.5,18.2c55,9.3,57.2,50.6,57.7,53.2C519.4,112.6,518.1,125.4,511.9,138.3
			 M609,414.2c0,24.4-12.9,69.2-70.5,74.1V220.4c69.6,4.4,70.5,51,70.5,75.4V414.2z"/>
	</g>
</g>
</svg>
