<?xml version="1.0" encoding="utf-8"?>
<!-- Generator: Adobe Illustrator 18.1.1, SVG Export Plug-In . SVG Version: 6.00 Build 0)  -->
<svg version="1.1" id="Capa_1" xmlns="http://www.w3.org/2000/svg" xmlns:xlink="http://www.w3.org/1999/xlink" x="0px" y="0px"
	 viewBox="0 0 792 612" enable-background="new 0 0 792 612" xml:space="preserve">
<g>
	<g>
		<path fill="#010002" d="M167.6,155.4c0,24,19.5,43.4,43.4,43.4c24,0,43.4-19.5,43.4-43.4c0-1.6-0.3-3.1-0.5-4.7h14.6V56.3
			c0-31.8-25.8-57.5-57.6-57.5c-31.8,0-57.6,25.8-57.6,57.5v94.4H168C167.9,152.3,167.6,153.8,167.6,155.4z M249.1,155.4
			c0,21-17.1,38-38,38c-21,0-38.1-17.1-38.1-38c0-1.6,0.3-3.1,0.5-4.7h75.2C248.8,152.3,249.1,153.8,249.1,155.4z"/>
		<path fill="#010002" d="M219.4,587c0,12.9,10.7,23.3,24,23.3c13.2,0,24-10.4,24-23.3l0.6-122.6h-48.5L219.4,587z"/>
		<path fill="#010002" d="M155.4,587.5c0,12.9,9.4,23.3,22.7,23.3c13.2,0,24-10.4,24-23.3v-123h-46.6L155.4,587.5L155.4,587.5z"/>
		<path fill="#010002" d="M103.6,399.2c0.9,13,10.8,19.8,21,20.6V377h-22.2C102.7,385.3,103.2,392.8,103.6,399.2z"/>
		<path fill="#010002" d="M124.6,331.9h-3.2l2.5-91.6c-21.4,33.6-23.2,90.2-21.7,131.3h22.4V331.9z"/>
		<path fill="#010002" d="M257,214C257,214,257,214,257,214c-22.6-5.5-78.8-2.3-85.7-1.9c-0.4,0-0.8-0.1-1.3-0.1
			c-4.4,0.3-8.4,1-12.2,2l3.2,117.8h-3.2V368h24.5V224.3h10.7V368h74.9v28h-74.9v55.4h-10.7V396h-24.5v33.9h-6.9l-0.9,28.3h52h17.4
			h53.9c0,0-5.1-155.9-5-185.8c0,0,0.3-1.5,0.8-3.8c8.5,18.2,10,53,10.8,62.4c1.1,14.3,1.4,28.8,1.2,43.3h43.7
			C327.1,313.6,322.4,218,257,214z M221.6,345.2c-4,0-7.3-3.3-7.3-7.3c0-4,3.3-7.3,7.3-7.3s7.3,3.3,7.3,7.3
			C228.9,342,225.7,345.2,221.6,345.2z M221.6,322.2c-4,0-7.3-3.3-7.3-7.3c0-4,3.3-7.3,7.3-7.3s7.3,3.3,7.3,7.3
			C228.9,319,225.7,322.2,221.6,322.2z M222.2,299.2c-4,0-7.3-3.3-7.3-7.3c0-4,3.3-7.3,7.3-7.3c4,0,7.3,3.3,7.3,7.3
			C229.5,296,226.2,299.2,222.2,299.2z"/>
		<path fill="#010002" d="M280.1,401.1c-1.9,27.9,41.4,27.7,43.3,0c0.4-6.2,0.8-13.5,1.2-21.4H281
			C280.9,386.9,280.6,394,280.1,401.1z"/>
		<rect x="172.9" y="371.6" fill="#010002" width="58.3" height="20.8"/>
		<polygon fill="#010002" points="149.6,203.3 142.2,203.3 142.2,122.4 136.9,122.4 136.9,203.3 131.6,203.3 128.4,318.5 
			131.6,318.5 131.6,422.6 149.6,422.6 149.6,318.5 152.8,318.5 		"/>
	</g>
</g>
<g>
	<g>
		<path d="M608.9,491.1h-21.2V162.6c0,0,0-0.1,0-0.1c0-0.2,0-0.3,0-0.5c0-0.1,0-0.1,0-0.2c0-0.2-0.1-0.4-0.2-0.5c0,0,0-0.1-0.1-0.1
			c-0.1-0.1-0.1-0.3-0.2-0.4c0,0-0.1-0.1-0.1-0.1c0,0-0.1-0.1-0.1-0.1l-26.7-34.2v-34c0-1.8-1.5-3.3-3.3-3.3h-9.4V61.8
			c0-1.8-1.5-3.3-3.3-3.3h-5.2V39.6c0-1.8-1.5-3.3-3.3-3.3h-8.8V10.8c0-1.8-1.5-3.3-3.3-3.3c-1.8,0-3.3,1.5-3.3,3.3v25.6h-8.8
			c-1.8,0-3.3,1.5-3.3,3.3v18.9h-5.2c-1.8,0-3.3,1.5-3.3,3.3v27.3h-9.4c-1.8,0-3.3,1.5-3.3,3.3v34l-26.7,34.2c0,0-0.1,0.1-0.1,0.1
			c0,0-0.1,0.1-0.1,0.1c-0.1,0.1-0.2,0.3-0.2,0.4c0,0,0,0.1-0.1,0.1c-0.1,0.2-0.1,0.4-0.2,0.5c0,0,0,0.1,0,0.1c0,0.2,0,0.3,0,0.5
			c0,0,0,0.1,0,0.1v328.5h-21.2c-1.8,0-3.3,1.5-3.3,3.3v26.4c0,1.8,1.5,3.3,3.3,3.3h170.2c1.8,0,3.3-1.5,3.3-3.3v-26.4
			C612.2,492.5,610.7,491.1,608.9,491.1z M466.5,165.9h114.7V278H466.5V165.9z M532.6,42.9v15.6H515V42.9H532.6z M511.7,65h24.2h5.2
			v24.1h-34.5V65H511.7z M503.3,95.6h41.1h9.4v28.6h-59.9V95.6H503.3z M492.2,130.8h63.2l22.3,28.5H469.9L492.2,130.8z M466.5,284.5
			h114.7v206.6H466.5V284.5z M605.7,517.5H442v-19.9h21.2h121.3h21.2L605.7,517.5L605.7,517.5z"/>
		<path d="M523.8,173.2c-25.8,0-46.8,21-46.8,46.8c0,25.8,21,46.8,46.8,46.8c25.8,0,46.8-21,46.8-46.8
			C570.6,194.2,549.6,173.2,523.8,173.2z M523.8,260.3c-22.2,0-40.3-18.1-40.3-40.3c0-22.2,18.1-40.3,40.3-40.3
			c22.2,0,40.3,18.1,40.3,40.3C564.1,242.2,546,260.3,523.8,260.3z"/>
		<path d="M491.1,305.8c-1.8,0-3.3,1.5-3.3,3.3v166c0,1.8,1.5,3.3,3.3,3.3c1.8,0,3.3-1.5,3.3-3.3V309
			C494.4,307.2,492.9,305.8,491.1,305.8z"/>
		<path d="M512.8,305.8c-1.8,0-3.3,1.5-3.3,3.3v166c0,1.8,1.5,3.3,3.3,3.3c1.8,0,3.3-1.5,3.3-3.3V309
			C516,307.2,514.6,305.8,512.8,305.8z"/>
		<path d="M534.4,305.8c-1.8,0-3.3,1.5-3.3,3.3v166c0,1.8,1.5,3.3,3.3,3.3c1.8,0,3.3-1.5,3.3-3.3V309
			C537.7,307.2,536.2,305.8,534.4,305.8z"/>
		<path d="M556.1,305.8c-1.8,0-3.3,1.5-3.3,3.3v166c0,1.8,1.5,3.3,3.3,3.3c1.8,0,3.3-1.5,3.3-3.3V309
			C559.4,307.2,557.9,305.8,556.1,305.8z"/>
		<path d="M523.8,216.8h-26.1c-1.8,0-3.3,1.5-3.3,3.3s1.5,3.3,3.3,3.3h22.8v24.5c0,1.8,1.5,3.3,3.3,3.3c1.8,0,3.3-1.5,3.3-3.3V220
			C527.1,218.2,525.6,216.8,523.8,216.8z"/>
	</g>
</g>
</svg>
