<?xml version="1.0" encoding="utf-8"?>
<!-- Generator: Adobe Illustrator 18.1.1, SVG Export Plug-In . SVG Version: 6.00 Build 0)  -->
<svg version="1.1" id="Capa_1" xmlns="http://www.w3.org/2000/svg" xmlns:xlink="http://www.w3.org/1999/xlink" x="0px" y="0px"
	 viewBox="0 0 792 612" enable-background="new 0 0 792 612" xml:space="preserve">
<g>
	<g>
		<path d="M756.1,392.5c-12.5-23.1-44.1-41.9-70.4-41.9h-35.3c0-0.4,0.1-0.8,0-1.2l-15.7-94H647c5.3,0,9.7-4.3,9.7-9.7v-9.7
			c0-5.3-4.3-9.7-9.7-9.7h-13c0,0,0-0.1,0-0.1h-23.2c1.3-1.1,2.6-2.4,3.8-4.1c2.2-3.2,3.5-7.1,3.5-11.2c0-11-8.9-19.9-19.8-19.9
			c-11,0-19.9,8.9-19.9,19.9c0,0.2,0,0.5,0.1,0.7c0,0.4-2.2,1.5-4.5,3.2c-2.4,1.7-6.3,0.3-10.7-1.9c-2.6-1.3-5.5-2-8.6-2
			c-1.1,0-2.2,0.1-3.3,0.3c-1.8,0.3-5-4.7-10.5-8.5c-3.2-2.2-7.1-3.5-11.3-3.5c-5.2,0-9.9,2-13.4,5.3c-6,5.6-8.7,10-12.9,8.2
			c-2.5-1.1-5.2-1.7-8-1.7c-9.4,0-17.2,6.6-19.3,15.3h-40.5c0,0,0,0.1,0,0.1h-13c-5.3,0-9.7,4.3-9.7,9.7v9.7c0,5.3,4.3,9.7,9.7,9.7
			h15.1l-15.7,93.9c-0.1,0.4,0.1,0.8,0,1.2h-79.8c0-0.4,0.1-0.8,0-1.2l-15.7-94h12.2c5.3,0,9.7-4.3,9.7-9.7v-9.7
			c0-5.3-4.3-9.7-9.7-9.7h-13c0,0,0-0.1,0-0.1H127.6c0,0,0,0.1,0,0.1h-13c-5.3,0-9.7,4.3-9.7,9.7v9.7c0,5.3,4.3,9.7,9.7,9.7h15.1
			L114,349.5c-0.1,0.5,0.1,1.1,0,1.6c-25.5,2.1-56.5,17.7-71.8,36.9l-10.6,13.3c-16.4,20.6-30,37.3-30.5,37.3
			c-0.4,0-1.7,23.9,15.8,43.6c12,13.5,29.5,22,49,22c16.8,0,32-6.3,43.5-16.7c19.5-17.6,23.1-17.6,42.6,0
			c11.5,10.4,26.7,16.7,43.5,16.7c16.8,0,32-6.3,43.5-16.7c19.5-17.6,23.1-17.6,42.6,0c11.5,10.4,26.7,16.7,43.5,16.7
			c16.7,0,32-6.3,43.5-16.7c19.5-17.6,23.1-17.6,42.6,0c11.5,10.4,26.7,16.7,43.5,16.7c16.8,0,32-6.3,43.5-16.7
			c19.6-17.6,23.1-17.6,42.6,0c11.5,10.4,26.7,16.7,43.5,16.7c16.8,0,32-6.3,43.5-16.7c19.5-17.6,23.1-17.6,42.6,0
			c11.5,10.4,26.7,16.7,43.5,16.7c19.5,0,37-8.5,49-22c17.5-19.7,16.9-43.6,17.3-43.6c0.4,0-9.4-18.7-22-41.9L756.1,392.5z
			 M182.2,350.6h-46.4l12.4-74.4c18,19.9,46.4,26.7,78.5,26.7c33.7,0,63.1-7.6,81-29.8l12.9,77.5L182.2,350.6L182.2,350.6z
			 M628.5,350.6h-81.6h-103l12.4-74.4c18,19.9,46.4,26.7,78.5,26.7c33.7,0,63.1-7.6,81-29.8l12.9,77.5L628.5,350.6L628.5,350.6z"/>
		<path d="M443.1,219.2l186.8-64.7C610,108.6,559.1,84.5,511,98.5l-2.9-8.3c4-3.4,5.7-9,3.9-14.4c-2.4-6.9-10-10.6-16.9-8.2
			c-7,2.4-10.6,9.9-8.2,16.9c1.8,5.3,6.7,8.7,12.1,8.8l2.9,8.3C455.3,120.4,430.2,170.9,443.1,219.2z"/>
		<path d="M127.9,219.2h197.6c-3.6-49.7-43.9-89.2-94-91.6v-8.8c5-1.9,8.5-6.7,8.5-12.4c0-7.4-6-13.3-13.3-13.3
			c-7.3,0-13.3,5.9-13.3,13.3c0,5.6,3.5,10.4,8.5,12.4v8.8C171.8,129.9,131.5,169.4,127.9,219.2z"/>
	</g>
</g>
</svg>
