<?xml version="1.0" encoding="utf-8"?>
<!-- Generator: Adobe Illustrator 18.1.1, SVG Export Plug-In . SVG Version: 6.00 Build 0)  -->
<svg version="1.1" id="Capa_1" xmlns="http://www.w3.org/2000/svg" xmlns:xlink="http://www.w3.org/1999/xlink" x="0px" y="0px"
	 viewBox="0 0 792 612" enable-background="new 0 0 792 612" xml:space="preserve">
<g>
	<path d="M403.7,436.8l-94.6-18.6c1.4-10.5,2.4-20.7,2.9-30.4l64.9-43.6C388.1,375.5,396.9,407.1,403.7,436.8z M326,239.1l-32,21.5
		c2.9,7.4,5.7,15.1,8.1,23.6l54.6,10.7c-8.7-18.8-18.5-36.8-29.5-53.3C327,241.3,326.6,240.3,326,239.1z M373.8,335.9
		c-3.9-10.5-8.2-21-12.7-31.2l-56.7-11.1c5.8,23.7,9.1,51.4,8.1,83.5L373.8,335.9z M210.5,188.3c-1.1,2.9-1.7,6-1.7,9.3
		c0,10.4,5.9,19.4,14.6,23.9c-0.9,3.1-1.6,6.3-1.6,9.7c0,19,15.4,34.5,34.5,34.5c13.8,0,25.6-8.2,31.1-19.9c1.1,2.2,2.1,4.4,3.2,6.7
		l31.7-21.3c-0.7-1.6-1.3-2.8-1.5-3.3c-2-4.2-3.7-8.3-5.2-12.5c4,2.3,8.5,3.7,13.3,3.7c14.9,0,27-12.1,27-27c0-14.9-12.1-27-27-27
		c-7.5,0-14.3,3.1-19.2,8c2.9-39.5,29.2-75,70-94.9c37.8-18.4,80.4-15,113.9,5.1c-33.3-46.4-96-63.6-149.1-37.7
		c-31.1,15.1-52.5,42-61.8,72.7c-0.1-23,6.2-43,23.8-61.6c2.8-2.9,5.7-5.7,8.8-8.4c31.8-27.4,74-34.9,111.5-23.9
		C382.9-12.3,317.8-13,273,25.6c-25.8,22.1-39.7,52.8-41.3,84.2c-21.1-31.7-60.4-48.5-99.6-39.2c-45,10.8-74.6,52.4-71.6,97.1
		c10.3-28.9,34.4-52.2,66.5-59.8c38.9-9.3,77.7,7.2,99,38.3c-30.2-11.8-65-11.5-96.4,4c-53,26.2-77.8,86.3-61.4,141
		c4.6-38.8,28-74.6,65.6-93.2C158.6,185.9,185.5,183.1,210.5,188.3z M448.6,513.7l43.9-8.6c-0.6-4.9-1.1-9.6-1.4-14.1l-30.1-20.2
		C455.8,485.2,451.8,499.9,448.6,513.7z M499.5,431.9l-14.9-10c-0.3,0.6-0.5,1-0.6,1.1c-5.1,7.7-9.6,16-13.7,24.8l25.3-5
		C496.9,439,498.1,435.3,499.5,431.9z M468.4,452.4c-2.1,4.7-4,9.6-5.9,14.5l28.4,19.1c-0.5-14.9,1-27.7,3.8-38.8L468.4,452.4z
		 M437.9,322.3c17.4-5.1,37-1.6,51.7,11.1c1.4,1.3,2.8,2.5,4.1,3.9c8.2,8.6,11.1,17.9,11,28.6c-4.3-14.2-14.2-26.7-28.7-33.7
		c-24.6-12-53.8-4-69.2,17.5c15.6-9.3,35.3-10.9,52.9-2.4c19,9.2,31.1,25.7,32.5,44c-2.3-2.3-5.4-3.7-8.9-3.7
		c-6.9,0-12.6,5.6-12.6,12.6c0,6.9,5.6,12.6,12.6,12.6c2.3,0,4.3-0.6,6.2-1.7c-0.7,1.9-1.4,3.9-2.4,5.8c-0.1,0.2-0.3,0.8-0.7,1.5
		l14.7,9.9c0.5-1,1-2.1,1.5-3.1c2.5,5.4,8,9.2,14.5,9.2c8.9,0,16-7.1,16-16c0-1.5-0.3-3.1-0.7-4.5c4-2.1,6.8-6.2,6.8-11.1
		c0-1.5-0.3-2.9-0.8-4.3c11.6-2.4,24.1-1.1,35.6,4.6c17.4,8.6,28.3,25.3,30.4,43.2c7.6-25.4-4-53.3-28.5-65.4
		c-14.6-7.2-30.7-7.3-44.7-1.8c9.9-14.4,27.9-22.1,45.9-17.8c14.8,3.6,26.1,14.4,30.8,27.8c1.4-20.7-12.3-40.1-33.2-45.1
		c-18.2-4.3-36.3,3.5-46.2,18.2c-0.8-14.6-7.2-28.8-19.1-39.1C488.5,305,458.3,305.3,437.9,322.3z M506.6,561.1
		c-6.9-19.2-11.3-36.5-13.6-52l-45.4,8.9c-1,4.6-1.9,9.1-2.8,13.4l43.2,29.1c-2.5-0.1-5-0.1-7.5-0.2L444,535.7
		c-1.6,9-2.8,17-3.8,23.8c-5.2-0.1-10.5-0.1-15.7-0.1c-1.9-17.3-5.3-43.8-11.1-75.1l-115.2,77.4c-5.7,0.3-11.3,0.5-16.8,0.8
		L411.7,475c-1.8-9.3-3.7-19-5.9-28.9l-97.9-19.2c-5.9,39.7-18.1,85-38.3,136.2c-84.4,4.8-141.4,13.9-141.4,24.2
		c0,15.4,126.1,28,281.6,28c155.5,0,281.6-12.5,281.6-28C691.4,575.2,614.4,564.9,506.6,561.1z"/>
</g>
</svg>
