<?xml version="1.0" encoding="utf-8"?>
<!-- Generator: Adobe Illustrator 18.1.1, SVG Export Plug-In . SVG Version: 6.00 Build 0)  -->
<svg version="1.1" id="Capa_1" xmlns="http://www.w3.org/2000/svg" xmlns:xlink="http://www.w3.org/1999/xlink" x="0px" y="0px"
	 viewBox="0 0 792 612" enable-background="new 0 0 792 612" xml:space="preserve">
<g>
	<g>
		<path d="M684.4,411.7C644,482.4,551,478.2,469.9,477.3c-129.6-1.6-312.2,15.5-393.9-58.6c-122.7,28.8-70,63.8,57.3,82.8
			c67.1,89.9,461.3,89.9,528.4,0C820.4,477.9,832.2,437.6,684.4,411.7z"/>
		<path d="M431.6,443.1c133.7,0,248,17.8,237.3-132.5C639.6,370.2,600,414,532.9,414c-142.8,0-213.4-223.7,26.6-286.9
			c-36.9-23.6-80.8-37.3-127.9-37.3c-131.4,0-360.4,106.5-360.4,237.9C71.2,459.1,300.2,443.1,431.6,443.1z"/>
		<path d="M464.5,351.8c37.8,37.8,99,37.8,136.8,0c31.2-31.2,68.6-110.4,59.5-158.3c1.4-1.4,50.1-50,51.4-51.5
			c26.3,31.6,72.3-10.8,43.6-39.5c-8.2-8.1-19.4-7-30.1-7l0,0c-7.2,0-6.5-6-6.2-7.8c1.3-8.7,1.4-18.2-5.4-27
			c-22.8-29.8-73.7,15.2-39.7,43.6c-1.5,1.3-50.1,49.9-51.5,51.3c-47.9-9.2-127.1,28.2-158.3,59.4
			C426.7,252.8,426.7,314,464.5,351.8z"/>
	</g>
</g>
</svg>
