<?xml version="1.0" encoding="utf-8"?>
<!-- Generator: Adobe Illustrator 18.1.1, SVG Export Plug-In . SVG Version: 6.00 Build 0)  -->
<svg version="1.1" id="Capa_1" xmlns="http://www.w3.org/2000/svg" xmlns:xlink="http://www.w3.org/1999/xlink" x="0px" y="0px"
	 viewBox="0 0 792 612" enable-background="new 0 0 792 612" xml:space="preserve">
<g>
	<g>
		<path d="M594.1,41h-39.2V27c0-14.9-12.2-27-27-27H263.3c-14.9,0-27,12.2-27,27v14H197c-14.9,0-27,12.2-27,27v34.3
			c0,14.9,12.2,27,27,27h22.1l39.7,457.5c1.4,14,13.1,24.8,27,24.8h220.4c14,0,25.7-10.8,27-24.8l39.7-457.5H595
			c14.9,0,27-12.2,27-27V68.1C621.2,53.2,609,41,594.1,41z M331.8,417c-25.2-25.2-17.6-74.4,17.6-109.1
			c32.5-32.5,76.6-41.5,102.8-23c-7.7,14.4-18.5,27.5-32.9,38.8c-9.5,7.2-18.9,12.6-27.5,17.1c-5.9,3.2-11.3,6.3-15.8,9.5
			c-22.5,15.3-37.9,40.6-43.3,67.6C332.2,417.4,331.8,417.4,331.8,417z M440.9,399.4c-31.6,31.6-73.9,41-100.5,24.3
			c31.1-44.6,61.8-58.6,61.8-58.6c32-15.8,48.7-43.7,55.9-75.3l0.5,0.5C483.7,315.5,476,364.2,440.9,399.4z"/>
	</g>
</g>
</svg>
