<?xml version="1.0" encoding="utf-8"?>
<!-- Generator: Adobe Illustrator 18.1.1, SVG Export Plug-In . SVG Version: 6.00 Build 0)  -->
<svg version="1.1" id="Capa_1" xmlns="http://www.w3.org/2000/svg" xmlns:xlink="http://www.w3.org/1999/xlink" x="0px" y="0px"
	 viewBox="0 0 792 612" enable-background="new 0 0 792 612" xml:space="preserve">
<g>
	<g>
		<path d="M697.7,300.2c-10.1-81.4-56.4-125.9-89-147.6c-16.9-11.2-37.8-14.6-57.4-9.2c-35.4,9.7-63.6,7.8-82.2,3.7
			c-2.6-0.6-4.4-2.8-4.4-5.4c0-2.6,1.8-4.8,4.4-5.4c32-6.7,51.2-26.7,51.2-26.7c39.9-54.5-57.3-90.4-126-108.3
			c-8.5-2.2-17.5,0.1-23.9,6.2c-6.3,6.1-9.1,15.1-7.2,23.6c6.9,31.6-3.3,69.4-46.5,75.3c-70.5,9.5-73,54.7-73,54.7
			c4.6,55.2,81.9,75.2,132.7,82.4c2.8,0.4,4.8,2.8,4.7,5.6c-0.1,2.8-2.3,5.1-5,5.2c-73.7,5.3-124.5-22.5-151.3-43
			c-18.5-14.1-43.2-17.4-64.8-8.5c-57.4,23.6-67.8,67.2-66,100.5c1.3,25.1,22,44.9,47.2,45.2l508.5,5.2c13.8,0.1,27-5.7,36.2-15.9
			C695.2,327.6,699.5,313.9,697.7,300.2z"/>
		<path d="M619.4,446.9c-10.3,0-15.2-15.4-20-55.3c-1-8.4-8.1-14.7-16.5-14.7h-1.8c-8.4,0-15.5,6.3-16.5,14.7
			c-4.7,39.9-9.6,55.3-20,55.3c-10.4,0-15.3-15.3-20-55.3c-1-8.4-8.1-14.7-16.5-14.7h-1.8c-8.4,0-15.5,6.3-16.5,14.7
			c-4.7,40-9.6,55.3-20,55.3c-10.4,0-15.3-15.3-20-55.3c-1-8.4-8.1-14.7-16.5-14.7h-1.3c-8.7,0-16,6.5-17,15.1
			c-4.7,39.6-9.6,54.8-19.9,54.8c-10.3,0-15.2-15.2-19.9-54.9c-1-8.6-8.3-15.1-17-15.1h-0.8c-8.7,0-16,6.5-17,15.1
			c-4.7,39.6-9.6,54.8-19.9,54.8c-10.3,0-15.2-15.2-19.9-54.9c-1-8.6-8.3-15.1-17-15.1h-0.9c-8.7,0-16,6.5-17,15.1
			c-4.7,39.6-9.6,54.8-20,54.8s-15.2-15.2-19.9-54.8c-1-8.6-8.3-15.1-17-15.1c-9.2,0-17,6.9-18.1,16c-4.7,38.9-9.6,53.9-19.9,53.9
			c-10.4,0-14.5-14.2-16.7-50.8c-0.6-10.7-9.5-19.1-20.3-19.1l40.1,186.3c6,28.1,30.8,48.1,59.5,48.1h332.1
			c29.1,0,54.2-20.6,59.8-49.2L661.6,377h-1.2c-10.9,0-20.1,8.2-21.4,19C634.3,432.6,629.4,446.9,619.4,446.9z"/>
	</g>
</g>
</svg>
