<?xml version="1.0" encoding="utf-8"?>
<!-- Generator: Adobe Illustrator 18.1.1, SVG Export Plug-In . SVG Version: 6.00 Build 0)  -->
<svg version="1.1" id="Capa_1" xmlns="http://www.w3.org/2000/svg" xmlns:xlink="http://www.w3.org/1999/xlink" x="0px" y="0px"
	 viewBox="0 0 792 612" enable-background="new 0 0 792 612" xml:space="preserve">
<g>
	<g>
		<path d="M349.9,332.7c-39.3,0-83.9-14.3-132.6-42.6c-39.3-22.5-79.8-29.9-115.4-36.4c-36.4-6.5-73.7-13.5-95.8-38.5
			c2.5,101.9,114.2,56.1,221.4,118.3c131.8,76.5,212.8,34.4,225.1-55.3C431.4,312.3,395.8,332.7,349.9,332.7z"/>
		<path d="M119.1,201c34,5.3,72.4,11.9,111.3,31.9c40.5,21.3,76.5,31.9,107.6,31.9l0,0c27.8,0,50.8-9,66.3-25.8
			c15.1-16.4,22.9-39.7,22.9-67.1C427.3,88,338.1,20.1,228,20.1c-123.6,0-194.4,43-194.4,118.3C33.5,187,67.5,192.8,119.1,201z
			 M146.9,65.1c31.1,0,56.1,19.2,56.1,43.4c0,24.1-25,43.4-56.1,43.4c-31.1,0-56.1-19.2-56.1-43.4C90.8,84.3,115.8,65.1,146.9,65.1z
			"/>
		<path d="M227.5,272.6c143.7,83.1,226.7,26.2,226.7-80.2S352.8,0,227.5,0S6.1,45,6.1,151.4S119.1,209.6,227.5,272.6z M228,10.6
			c115,0,208.7,72.4,208.7,161.3c0,30.3-9,55.7-25.4,73.7c-17.2,18.8-42.6,28.6-73.3,28.6l0,0c-32.7,0-70.4-11.1-112.1-33.2
			c-37.2-19.6-74.9-25.8-108.1-31.1c-52.4-8.6-93.7-15.1-93.7-72C23.7,57.3,98.2,10.6,228,10.6z"/>
		<ellipse cx="146.9" cy="108.5" rx="27.8" ry="21.7"/>
	</g>
</g>
<g>
	<g id="b68_blood_sausage">
		<path fill="#030104" d="M745.6,165.5c-2.1,1.7-3.8,3.8-5.4,5.4c-10.5-12.2-26-18.9-43.2-17.6c-92.2,8.8-172.7,62.9-215,145
			c-40.2,77.5-39.8,170.6,0.4,248.1c10.5,20.1,32.3,29.8,53.2,26.8c-0.8,1.7-2.1,3.4-2.9,5.4c-7.1,15.1-7.5,29.8-1.3,32.7
			c6.3,2.9,17.2-6.7,24.3-21.8c0.4-1.3,0.8-2.1,1.3-3.4c10.9,9.2,22.2,13,26.4,8.4c5-5-0.8-18.4-12.6-30.2c-2.5-2.1-5-4.2-7.1-6.3
			c14.7-15.5,19.3-39,8.8-58.7c-25.1-48.6-25.1-106,0-154.7c26.4-51.1,76.3-85.1,133.7-90.5c18-1.7,32.7-12.6,40.7-27.2
			c3.8-7.5,5.4-16.3,5.4-25.1c1.3,0.8,2.5,1.7,3.8,2.5c14.3,8.4,28.9,10.1,32.3,4.2c3.4-6.3-5-17.6-19.3-26
			c-1.3-0.4-2.1-1.3-3.4-1.7c10.1-10.1,15.1-21,10.9-25.6C772,150.4,758.2,154.6,745.6,165.5z"/>
	</g>
</g>
</svg>
