<?xml version="1.0" encoding="utf-8"?>
<!-- Generator: Adobe Illustrator 18.1.1, SVG Export Plug-In . SVG Version: 6.00 Build 0)  -->
<svg version="1.1" id="Capa_1" xmlns="http://www.w3.org/2000/svg" xmlns:xlink="http://www.w3.org/1999/xlink" x="0px" y="0px"
	 viewBox="0 0 792 612" enable-background="new 0 0 792 612" xml:space="preserve">
<g>
	<path fill="#030104" d="M771.2,62.9c-32.7-35-125.4-49.4-173.7-20.9l0,0c-25.8-1.5-30.4,44.9-5.7,48.3l-14.4,121.6
		c-0.8,4.9,1.9,9.5,5.7,12.2l-4.2-0.4c-7.2-0.8-12.2-7.2-11.4-14.4l14.4-121.6c-24.7-3.4-20.1-49.8,5.7-48.3
		C612.3,24.5,648.8,21,683,26c-43.3-16.7-118.6-8.4-153.2,24.7l0,0c-24.7,4.2-19,48.7,4.6,46.8l11.8,118.2
		c0.8,6.8,6.8,12.2,13.7,11.4l23.2-2.3c1.5,1.1,3.4,1.5,5.3,1.9l146.7,17.5c7.6,0.8,14.1-4.6,15.2-11.8l14.4-121.3
		C790.2,114.2,797.4,66.7,771.2,62.9z M662.5,79.6c0.4-2.7,2.7-4.6,5.3-4.2c2.7,0.4,4.6,2.7,4.2,5.3s-2.7,4.6-5.3,4.2
		C664,84.5,662.1,82.2,662.5,79.6z M616.5,153.7c0.4-2.7,2.7-4.2,4.9-4.2c2.7,0.4,4.2,2.7,4.2,4.9c-0.4,2.7-2.7,4.2-4.9,3.8
		C618,158.6,616.1,156.4,616.5,153.7z M629.1,191.7c-0.4,2.7-2.7,4.2-4.9,3.8c-2.7-0.4-4.2-2.7-4.2-4.9c0.4-2.7,2.7-4.2,4.9-4.2
		C627.5,186.8,629.4,189.1,629.1,191.7z M629.1,81.1c-4.6-0.4-8-4.9-7.6-9.5c0.4-4.6,4.9-8,9.5-7.6c4.6,0.4,8,4.9,7.6,9.5
		C637.8,78.4,633.6,81.9,629.1,81.1z M635.5,146.5c0.4-2.7,2.7-4.2,4.9-4.2c2.7,0.4,4.2,2.7,3.8,4.9c-0.4,2.7-2.7,4.2-4.9,3.8
		C637,151,635.1,148.8,635.5,146.5z M644.6,183.4c0,1.5-1.5,2.7-3,2.3c-1.5,0-2.7-1.5-2.3-3c0-1.5,1.5-2.7,3-2.3
		S645,181.8,644.6,183.4z M667.1,125.2c-4.9-0.8-8.4-4.9-8-9.9c0.8-4.9,4.9-8.4,9.9-8c4.9,0.8,8.4,4.9,8,9.9
		C676.6,122.2,672,125.6,667.1,125.2z M676.9,166.2c0.4-2.7,2.7-4.2,4.9-4.2c2.7,0.4,4.2,2.7,3.8,4.9c-0.4,2.7-2.7,4.2-4.9,4.2
		C678.5,171.2,676.6,168.9,676.9,166.2z M686.5,197c-0.4,2.7-2.7,4.2-4.9,4.2c-2.7-0.4-4.2-2.7-4.2-4.9c0.4-2.7,2.7-4.2,4.9-3.8
		C684.9,192.5,686.8,194.8,686.5,197z M698.2,84.9c-4.2-0.4-7.2-4.6-6.8-8.7s4.6-7.2,8.7-6.8c4.2,0.4,7.2,4.6,6.8,8.7
		C706.6,82.2,702.4,85.3,698.2,84.9z M713.4,113c-0.4,3.8-3.8,6.5-7.6,5.7c-3.8-0.4-6.5-3.8-5.7-7.6c0.4-3.8,3.8-6.5,7.6-5.7
		C711.5,105.8,714.2,109.2,713.4,113z M722.9,192.5c-0.4,1.9-1.9,3.4-4.2,3c-1.9-0.4-3.4-1.9-3-4.2c0.4-1.9,1.9-3.4,4.2-3
		C721.4,188.7,722.9,190.6,722.9,192.5z M729.8,148.8c-0.4,1.9-1.9,3.4-4.2,3c-1.9-0.4-3.4-1.9-3-4.2c0.4-1.9,1.9-3.4,4.2-3
		C728.6,145,730.2,146.9,729.8,148.8z M740.8,87.6c-0.4,1.9-1.9,3.4-4.2,3c-1.9-0.4-3.4-1.9-3-4.2c0.4-1.9,1.9-3.4,4.2-3
		C739.7,83.8,740.8,85.7,740.8,87.6z"/>
</g>
<g>
	<g id="b162_muffin">
		<path d="M208.1,51.4c-0.9,0-1.7,0-3,0c-8.7-28.6-35-49.8-66.6-49.8c-31.6,0-58,20.8-66.6,49.8c-0.9,0-1.7,0-3,0
			c-38.5,0-69.2,31.2-69.2,69.2c0,23.8,12.1,44.6,29.9,57.1l9.5,153.6h198.2l9.5-153.6c18.2-12.5,30.3-33.3,30.3-57.1
			C277.3,82.5,246.6,51.4,208.1,51.4z M99.9,311.4H70.1V195.9h29.9V311.4L99.9,311.4z M160.5,311.4h-29.9V195.9h29.9V311.4z
			 M212.9,311.4H183V195.9h29.9V311.4z"/>
	</g>
	<g id="Capa_1_172_">
	</g>
</g>
<g>
	<g>
		<path d="M494.6,207.8c0-26.3-75.6-31-75.6-31c-0.7-4-4-7-8-7h-34c-4,0-7.3,3-8,7c0,0-75.6,4.7-75.6,31v8.3h201.1V207.8
			L494.6,207.8z"/>
		<path d="M512.3,265h-17.6v-17.3c0-2.7-2.3-5-5-5H261.9c-2,0-3.7,1-4.3,2.7c-0.7,1.7-0.7,3.7,0.7,5.3l35.3,41.3v208.4h201.1V298
			h17.6v125.2c0,9,7.3,16.6,16.6,16.6s16.6-7.3,16.6-16.6V298C545.2,279.7,530.2,265,512.3,265z"/>
		<path d="M499.6,526.7H288.6l-30.6,76.9c-1.3,3.7-1,7.7,1.3,11c2.3,3.3,6,5.3,9.7,5.3h250.4c6.7,0,12-5.3,12-12c0-1.7-0.3-3.7-1-5
			L499.6,526.7z M412.1,559.7h-35.6c-4.3,0-8-3.7-8-8s3.7-8,8-8h35.6c4.3,0,8,3.7,8,8S416.4,559.7,412.1,559.7z"/>
	</g>
</g>
</svg>
