<?xml version="1.0" encoding="utf-8"?>
<!-- Generator: Adobe Illustrator 18.1.1, SVG Export Plug-In . SVG Version: 6.00 Build 0)  -->
<svg version="1.1" id="Capa_1" xmlns="http://www.w3.org/2000/svg" xmlns:xlink="http://www.w3.org/1999/xlink" x="0px" y="0px"
	 viewBox="0 0 792 612" enable-background="new 0 0 792 612" xml:space="preserve">
<g>
	<path d="M397.4,0c-208.2,2.5-376,101.7-376,223.6v32.7c0,0,2,106.9,2,154.4c0,119.4,177.8,201.7,374,205
		c196.1-3.3,374-85.5,374-205c0-47.5,2-154.4,2-154.4v-32.7C773.4,101.7,605.6,2.5,397.4,0z M611.7,211.4l38.9-28.1
		c7.1-5.1,17-3.5,22.1,3.5c5.1,7.1,3.5,17-3.5,22.1l-38.9,28.1c-2.8,2-6.1,3-9.3,3c-4.9,0-9.7-2.3-12.8-6.6
		C603,226.5,604.6,216.6,611.7,211.4z M489.4,82.6l38.9-28.1c7.1-5.1,17-3.5,22.1,3.5c5.1,7.1,3.5,17-3.5,22.1l-38.9,28.1
		c-2.8,2-6.1,3-9.3,3c-4.9,0-9.7-2.3-12.8-6.6C480.7,97.6,482.3,87.7,489.4,82.6z M398.3,125.1c75.4,1.8,135.2,28.8,135.2,61.8
		c0,33-59.9,60-135.2,61.8C322.9,246.9,263,220,263,186.9C263,153.9,322.9,127,398.3,125.1z M496.6,313.5l-38.9,28.1
		c-2.8,2-6.1,3-9.3,3c-4.9,0-9.7-2.3-12.8-6.6c-5.1-7.1-3.5-17,3.5-22.1l38.9-28.1c7.1-5.1,17-3.5,22.1,3.5
		C505.2,298.5,503.6,308.4,496.6,313.5z M247.9,82.6l38.9-28.1c7.1-5.1,17-3.5,22.1,3.5c5.1,7.1,3.5,17-3.5,22.1l-38.9,28.1
		c-2.8,2-6.1,3-9.3,3c-4.9,0-9.7-2.3-12.8-6.6C239.2,97.6,240.8,87.7,247.9,82.6z M209,277.1l38.9-28.1c7.1-5.1,17-3.5,22.1,3.5
		c5.1,7.1,3.5,17-3.5,22.1l-38.9,28.1c-2.8,2-6.1,3-9.3,3c-4.9,0-9.7-2.3-12.8-6.6C200.3,292.1,201.9,282.2,209,277.1z M128.7,225.2
		l38.9-28.1c7.1-5.1,17-3.5,22.1,3.5c5.1,7.1,3.5,17-3.5,22.1l-38.9,28.1c-2.8,2-6.1,3-9.3,3c-4.9,0-9.7-2.3-12.8-6.6
		C120.1,240.2,121.7,230.3,128.7,225.2z M718.1,416.4c0,89.7-157.7,149-320.6,152.7c-162.6-3.7-320.6-63-320.6-152.7l-0.5-79.1
		l9.4,9.7c18.1,16,39.4,29.6,64,42.4v26.8c0,17.6,14.1,32,31.7,32c9.6,0,18.1-4.2,23.7-10.9v50.6c0,17.7,14.8,32.4,32.5,32.4
		c17.7,0,32.5-14.7,32.5-32.4v-55.8c2.4,0.5,4.7,1,7.1,1.6v14.5c0,17.7,14.3,32,32,32c13.5,0,25-8.4,29.7-20.2v63.1
		c0,17.7,14.8,32.4,32.5,32.4c17.7,0,32.5-14.7,32.5-32.4V447c16.6-0.5,33.2-1.7,49.9-3.3v4.6c0,17.7,14.4,32,32,32
		c17.7,0,32.1-14.3,32.1-32v-14.5c21.4-4.7,43.7-10.1,63.9-17c0.3,17.5,14.2,31.6,31.7,31.6c17.7,0,31.9-14.3,31.9-32v-26.8
		c24.5-12.8,45.9-26.5,64-42.4l9.4-9.7L718.1,416.4z"/>
</g>
</svg>
