<?xml version="1.0" encoding="utf-8"?>
<!-- Generator: Adobe Illustrator 18.1.1, SVG Export Plug-In . SVG Version: 6.00 Build 0)  -->
<svg version="1.1" id="Capa_1" xmlns="http://www.w3.org/2000/svg" xmlns:xlink="http://www.w3.org/1999/xlink" x="0px" y="0px"
	 viewBox="0 0 792 612" enable-background="new 0 0 792 612" xml:space="preserve">
<g>
	<g>
		<path d="M479.2,32.4C436.6-10.2,356.3-10.2,280.7,29c-2.9,37.2,11.3,76.9,41.4,107.4c23.8,23.8,53.5,37.6,83.1,40.9
			C462.9,107.2,493.4,46.2,479.2,32.4z M399,59.1c-6.7,6.7-17.1,6.7-23.8,0c-6.7-6.7-6.7-17.1,0-23.8c6.7-6.7,17.1-6.7,23.8,0
			C405.2,42,405.2,52.4,399,59.1z"/>
		<path d="M253.2,44.5c-5.4,3.8-11.3,7.5-16.7,11.7l-13-6.7c-11.3-5.8-25.5-3.8-34.3,5L97.7,146c-6.7,6.7-9.6,15.9-8.4,25.1
			s7.1,17.1,15.5,21.7l20.9,10.9c-20.9,48.5-32.2,96.1-35.1,126.2L0,360.8c-4.2,1.3-7.1,5-7.1,9.6c-0.4,4.2,2.1,8.4,6.3,10
			l39.3,18.4c7.5,3.8,13.8,10,17.5,17.5l18.4,39.3c1.7,3.8,5.8,6.3,10,6.3c4.2-0.4,7.9-2.9,9.6-7.1l31.3-90.7
			c42.6-7.1,116.1-39.3,180.1-88.1l7.1,22.1c1.3,4.2,4.6,7.1,8.8,7.9c4.2,0.8,8.4-0.4,11.3-3.3l7.5-7.5c5.8-5.8,9.6-13.8,10-22.1
			l2.5-38.9c11.3-11.3,21.7-22.6,31.8-33.8c-29.7-6.7-58.1-22.1-81.9-45.5C271.5,123.9,254.8,84.2,253.2,44.5z"/>
	</g>
</g>
<g>
	<g>
		<polygon fill="#010002" points="431.7,338.4 437.7,338.4 443.2,338.4 422.2,281.3 436.5,270.9 455.1,321.8 460.3,336 461.1,338.4 
			465.5,338.4 466.6,338.4 469,338.4 472.2,338.4 474.6,338.4 480.1,338.4 465.5,298.3 460.3,283.6 455.1,269.3 453.1,264.6 
			455.1,264.6 460.3,264.2 465.5,263.8 471,263.4 482.5,295.1 487.7,309.8 490.1,315.4 493.2,324.5 495.2,330.1 498,338.4 
			500.4,338.4 504,338.4 509.5,338.4 500.4,313.8 500.4,228.8 517.5,234 517.5,338.4 522.6,338.4 527.8,338.4 527.8,234 
			527.8,225.7 520.2,223.7 508.3,220.1 493.2,216.1 491.3,215.3 490.1,215.7 487.3,216.5 479.7,218.9 462.7,223.7 455.1,225.7 
			455.1,234 455.1,247.5 460.3,247.1 465.5,246.7 465.5,234 482.5,228.8 482.5,264.6 480.9,259.8 478.2,252.7 465.5,253.5 
			460.3,254.3 455.1,254.6 442.4,255.8 438.9,255.8 438.9,255.8 430.1,262.2 416.2,272.5 409.5,277.3 412.2,284.8 		"/>
		<path fill="#010002" d="M706.9,228.8l-7.5-2.8l-16.3-6.4l-2.4-0.8l-7.5-2.4l-2-0.8l-1.2,0.4l-6.4,1.2l-4,0.8l-17.1,3.6l-7.9,1.6
			l-0.8,7.9l-10.7,136.2l-0.4,5.2c2-0.8,3.6-1.2,5.6-2c2-0.8,4-2,5.6-2.8L644.5,232l17.1-3.6l-8.7,110h3.2h2h2h3.2h2h5.2l8.3-108.8
			L695,236L687,338.4h4.8h0.4h5.2h0.4h5.2l24.2-75l17.5,0.4l-23.8,74.6h5.6h2.4h3.2h2.4h5.6l22.2-69.1l14.7,9.9l-19.1,59.2h5.6h5.6
			l17.9-56l2.4-7.5l-6.8-4.4l-14.7-9.9l-6-4l-3.2-2l-1.6-0.8h-1.6l-6.8-0.4h-4l-17.5-0.4l-7.9-0.4l-2.4,7.5l-17.5,54.4l6-77.4
			L706.9,228.8z"/>
		<path fill="#010002" d="M605.6,375c1.6,0,2.8,0,4.4,0c2,0,3.6-0.4,5.2-0.8V207.4v-7.1l-34.9-9.9l-2.4-0.8l-0.8,0.4l-34.9,10.3v7.5
			v130.6h5.2h5.2V207.8l16.7-4.8v158.4c1.6,1.6,3.2,3.2,5.2,4.8c0.8,0.4,1.2,0.8,2,1.6c1.2,0.8,2,1.2,3.2,2c0.8,0.4,1.2,0.8,2,1.2
			c1.6,0.8,3.6,1.6,5.2,2V203.4l16.7,4.8V375C604.8,375,605.2,375,605.6,375z"/>
		<path fill="#010002" d="M766.8,345.6h-5.6h-5.6h-17.9h-5.6h-2.4h-3.2h-2h-5.6h-17.9h-3.6h-2h-3.2h-2.4H687h-17.1h-5.2h-2h-3.2h-2
			H656c-0.4,5.2-2,10.3-5.2,14.7c-2.4,3.6-5.6,7.1-9.1,9.9c-2,1.6-3.6,2.8-6,4c-2.4,1.2-4.8,2.8-7.5,3.6c-4.4,1.6-8.7,2.8-13.9,3.6
			c-1.6,0.4-3.6,0.4-5.2,0.4s-2.8,0-4.4,0c-0.4,0-0.8,0-1.2,0c-6,0-11.5-0.8-16.7-2.4c-2-0.4-3.6-1.2-5.2-2c-0.8-0.4-1.6-0.8-2-0.8
			c-1.2-0.4-2-1.2-3.2-1.6c-0.8-0.4-1.6-0.8-2-1.2c-2-1.2-3.6-2.4-5.2-3.6c-8.3-6.4-13.9-15.5-14.7-25h-2.4h-5.2h-5.2h-14.3h-5.2
			h-5.2h-5.2h-6h-5.6h-0.4h-5.2h-2h-3.2h-2h-5.2h-0.4h-5.2H475h-3.6H469h-3.6h-2h-3.2h-5.2H446h-5.6h-5.6h-14.7L472.6,612h266.8
			l52.4-266.8L766.8,345.6L766.8,345.6L766.8,345.6z M734.3,419.8l-27.8,158.4h-30.6l28.6-162.8v-0.4l0.4-1.2l2.8-15.1l2-12.3h2h2.4
			h3.2h2.4h5.6h15.5l-2.8,16.3l-2,11.9L734.3,419.8z"/>
	</g>
</g>
</svg>
