<?xml version="1.0" encoding="utf-8"?>
<!-- Generator: Adobe Illustrator 18.1.1, SVG Export Plug-In . SVG Version: 6.00 Build 0)  -->
<svg version="1.1" id="Capa_1" xmlns="http://www.w3.org/2000/svg" xmlns:xlink="http://www.w3.org/1999/xlink" x="0px" y="0px"
	 viewBox="0 0 792 612" enable-background="new 0 0 792 612" xml:space="preserve">
<g>
	<g>
		<polygon fill="#010002" points="49.3,214.9 109,214.9 118,489.6 41.9,489.6 		"/>
		<polygon fill="#010002" points="-1.4,504.5 580.7,504.5 580.7,535.9 625.5,535.9 625.5,580.7 656.8,580.7 656.8,612 -77.5,612 
			-77.5,580.7 -46.2,580.7 -46.2,535.9 -1.4,535.9 		"/>
		<polygon fill="#010002" points="610.6,134.3 289.6,0 -31.3,134.3 -31.3,153.7 610.6,153.7 		"/>
		<rect x="29.9" y="168.7" fill="#010002" width="519.4" height="29.8"/>
		<polygon fill="#010002" points="468.8,214.9 528.5,214.9 537.4,489.6 461.3,489.6 		"/>
		<polygon fill="#010002" points="328.5,214.9 389.7,214.9 398.6,489.6 321,489.6 		"/>
		<polygon fill="#010002" points="189.6,214.9 249.3,214.9 258.3,489.6 180.7,489.6 		"/>
	</g>
</g>
<g>
	<path d="M764,245.8c-6.9,0-12.2,0.6-17.2,5.3c-5,4.7-11,10-11,10s-6.3-3.1-8.5-7.5c-2.2-4.4-5.6-10-10.9-13.1
		c-5.4-3.1-10.4-4.1-14.1-6.3c-3.8-2.2-14.7-8.4-19.7-10.3c-5-1.9-7.8-3.8-12.5-6.3c-4.7-2.5-14.4-4.4-20.7-5.3c0,0-1.6-8.4-12.2-12
		c-12.6-4.3-20.1,0.8-20.1,0.8s-2.2-0.6-4.1,0c-1.9,0.6-1.3,2.2-2.5,2.2c-1.3,0-1.9,0.9-2.5,1.9c-0.6,0.9-0.6,2.2-1.2,3.1
		c-0.7,0.9-1.9,0.9-1.6,2.8c0.3,1.9,0.3,1.9,0.3,1.9s-6.8,19.5,11,27.7c22,10.1,31.9-11.5,31.9-11.5s8.8,2.7,13.2,3.9
		c4.4,1.2,6.2,1.9,10,4.4c3.8,2.5,8.5,6.6,12.9,9.4c4.4,2.8,10.3,7.5,10.3,7.5s-21,13.2-27.6,24.5c-6.6,11.3-17.2,29.5-21,34.7
		c-3.8,5.3-12.2,17.9-9.7,31.1c2.5,13.1,12.2,18.2,14.1,21c1.9,2.8,6,23.5,7.2,27.2s2.5,10,2.8,12.9c0.3,2.8-0.7,5,0.3,8.4
		c0.9,3.4,0.9,6.6,0.9,6.6s-7.5,8.8-12.9,12.2c-5.3,3.4-7.5,5.6-10.6,5.6c-3.2,0-6.3,0.3-7.5,2.5c-1.3,2.2-1.3,4.7-0.3,7.8
		c0.9,3.1,4.7,14.7,4.1,18.2c-0.5,2.7-1.3,5.7-1.4,7.8h-14.5v18.5h119.5v-18.5h-15.3c-0.9-1.6-2.6-3.9-6.1-5.9
		c-5.9-3.5-15.7-8.8-16.3-11.3c-0.6-2.5,2.2-13.5,5.6-24.4c3.5-11,3.8-13.2,3.8-13.2s6.9-4.4,8.4-9.1c1.6-4.7,1.9-10.7,2.2-11.6
		c0.3-0.9,16.3-17.2,18.5-31.1c2.2-13.8,2.8-18.5,4.4-23.8c1.5-5.3,2.5-4.7,3.1-10c0.6-5.3,0.6-10.1,0.6-10.1s4.7-8.8,3.1-15.7
		c-1.6-6.8-4-6.8-4.7-13.1c-0.7-6.2-1-11.3,1.9-12.5c2.8-1.3,2.5-2.2,6.6-2.2c4,0,7.5,0.7,9.1-0.9c1.6-1.5,12.2-4.4,14.7-15.3
		C780.3,253.6,770.9,245.8,764,245.8z M665.3,462.2c-1.6,3.8-5.6,6-5.9,8.2c-0.2,1.1-0.5,2.9-0.8,4.4h-11.4c0.3-6.3,1.5-18,2.8-21
		c1.6-3.7,0-4,4.4-7.2c4.4-3.1,10-5.9,10-5.9S666.9,458.5,665.3,462.2z M697,232.8c1.2,0.9,5.1,4.5,10.8,6.1
		c6.5,1.9,10,4.5,12.9,8.2c2.8,3.8,5.1,8.3,5.1,8.3s-6.8-8.3-10.5-10.5c-3.7-2.1-13.9-7.3-18.6-12.4
		C696.7,232.5,696.9,232.7,697,232.8z M700.7,367.7c-1.3-1.6-7.9-10.7-7.9-10.7s11.4,10.9,14.3,15.2c3,4.3,6.6,10.4,6.6,10.4
		S702,369.4,700.7,367.7z M728.6,347.2c-0.9,3.1-0.9,7.8-2.8,10.3c-1.9,2.5-3.8,10.6-4.7,13.8c-0.9,3.1-5.3,11-5.3,11
		s-5-9.4-15-19.4c-10-10-13.5-15.6-13.1-20c0.3-4.4,2.8-12.8,6.2-14.7c3.4-1.9,11.9-4.4,15.3-6.3c3.5-1.9,5.6-2.2,7.8-3.1
		c2.2-0.9,13.5-0.3,13.5-0.3s-1.5,5.9-1.3,11.6C729.6,335.6,729.6,344,728.6,347.2z M776.1,264.7c-1.1,4.6-7.5,9.5-7.5,9.5
		s2.9-3.3,5.3-9.7c2.4-6.4-2-11.6-2-11.6C776.8,255.5,777.2,260.1,776.1,264.7z"/>
</g>
</svg>
