<?xml version="1.0" encoding="utf-8"?>
<!-- Generator: Adobe Illustrator 18.1.1, SVG Export Plug-In . SVG Version: 6.00 Build 0)  -->
<svg version="1.1" id="Capa_1" xmlns="http://www.w3.org/2000/svg" xmlns:xlink="http://www.w3.org/1999/xlink" x="0px" y="0px"
	 viewBox="0 0 792 612" enable-background="new 0 0 792 612" xml:space="preserve">
<g>
	<g>
		<path fill="#010002" d="M81.8,121.5l8.1,8.1c-22.2,57.9-10,125.8,36.6,171.9l253.8,253.8c31.7,31.7,72.8,47.5,114.5,47.5
			c19.5,0,38.9-3.6,57.5-10.9l8.1,8.1c23.1,23.1,65.2,18.6,94.1-10.4s33.5-71,10.4-94.1l-13.6-13.6c14-53.8,0.5-113.6-42.1-156.1
			L355.5,72.2c-31.7-31.7-72.8-47.5-114.5-47.5c-14,0-28.1,1.8-41.6,5.4l-13.6-13.6C162.8-6.5,120.7-2,91.7,26.9
			C63.2,56.4,58.7,98.4,81.8,121.5z M494.9,571.3c-34.8,0-67.4-13.6-91.9-38L149.2,279.4c-24.4-24.4-38-57-38-91.9
			c0-10.9,1.4-21.7,4.1-32.1l412.2,412.2C516.6,569.9,506.2,571.3,494.9,571.3z M241.1,57.3c34.8,0,67.4,13.6,91.9,38l253.8,253.8
			c24.4,24.4,38,57,38,91.9c0,5-0.5,9.5-0.9,14.5L226.6,58.2C231.5,57.7,236.1,57.3,241.1,57.3z M112.5,69
			c6.8-0.9,13.1-1.4,19.9-1.4c16.3-0.5,31.2,1.8,44.8,6.3c24,8.6,43,26.2,55.2,56.1c10,24,6.3,63.8,43.4,71
			c13.1,2.7,29.9,5,41.2,13.1c22.6,16.3,39.8,33.9,45.7,62.4c10,48.9,30.3,80.1,81.4,90c21.7,4.1,48.9,9,64.7,26.7
			c19,21.3,29,46.6,36.2,73.8c9,34.8,22.2,46.2,54.7,50.2c3.6,0.5,7.2,0.9,10.9,0.9c10,0.9,15.4,9,15.4,16.7c0,7.2-4.1,14-12.2,14.9
			c-0.9,0-2.3,0-3.2,0c-14-0.9-26.7-2.7-37.6-5.4c-28.1-7.7-47.1-23.5-56.6-59.7c-11.3-42.1-24-76-71-85.5
			c-24.9-5-51.6-10.4-71-27.1c-24.4-21.3-34.8-44.3-41.2-75.6c-11.3-56.6-52-55.7-95.5-74.7c-31.7-13.6-22.2-46.6-32.1-71
			c-14.5-34.4-33.5-48.9-61.5-51.1c-9.5-0.9-20.4-0.5-32.6,1.4c-3.2,0.5-5.4,0-7.7-0.9C92.6,94.8,95.4,71.3,112.5,69z"/>
	</g>
</g>
</svg>
