<?xml version="1.0" encoding="utf-8"?>
<!-- Generator: Adobe Illustrator 18.1.1, SVG Export Plug-In . SVG Version: 6.00 Build 0)  -->
<svg version="1.1" id="Capa_1" xmlns="http://www.w3.org/2000/svg" xmlns:xlink="http://www.w3.org/1999/xlink" x="0px" y="0px"
	 viewBox="0 0 792 612" enable-background="new 0 0 792 612" xml:space="preserve">
<g>
	<path fill="#030104" d="M777.3,472l-5.9-187.4l-3-65.9c0.4-2,1-6.1-0.8-10.1c-2.1-4.4-6.9-7.3-10.1-9c-0.6-12.8-1.7-22-3.1-22
		c-1.4,0-2.5,9.1-3,21.8c-3.2,1.6-8.1,4.7-10.3,9.1c-1.8,4-1.1,8-0.8,10.1L731.6,472h-47.3l-6-189.6c0,0,0.2-7.3-1.2-10.1
		c-1.4-3-4.2-4.8-6.5-6.1c-0.4-15-1.6-26.4-3-26.4c-1.6,0-2.7,11.1-3.2,25.9c-2.5,1.2-5.8,3.4-7.5,6.6c-1.2,2.8-1.2,10.1-1.2,10.1
		L649.7,472h-41V336.2l-3.6-0.4V310h-25.5v23l-24.2-0.2h-2.8v-39.4h-8.3c-0.1-3.2-1-10-6.9-17.4c-5.6-6.9-14.5-12.1-19.7-14.7
		c-0.2-17.2-2-30.9-4.2-30.9c-2.1,0-3.8,13.5-4.2,30.6c-5.1,2.4-14.5,7.6-20.5,15c-1.2,1.5-2.2,3.1-3,4.5v-6.7h-11
		c4-3.6,40-38.6,33.9-76.6c-5.9-37.1-42.2-60-70.9-80.4c-19.9-14-30.5-23.8-36.1-31.5h-0.8c0.3-4.2,0.4-8.7,0.4-13.5
		c0-17.1-2-30.8-4.3-33.9v-0.2c-0.4-0.4-0.6-1.1-1-1.1H396h-0.1c-0.2,0-0.5,0.8-0.8,1.1v0.2c-2.5,3.2-4.3,16.8-4.3,33.9
		c0,4.8,0.1,9.3,0.4,13.5h-0.9c-5.5,7.8-16.2,17.5-36.2,31.5c-28.7,20.4-64.9,43.3-70.9,80.4c-6,38,30,73.1,33.9,76.6h-11v6.7
		c-0.9-1.3-1.8-3-3.1-4.4c-5.9-7.4-15.4-12.7-20.4-15c-0.2-17.1-2-30.7-4.2-30.7c-2.2,0-3.8,13.7-4.2,30.9
		c-5.2,2.7-14.1,7.9-19.6,14.9c-6,7.4-6.9,14.1-6.9,17.4h-8.4v39l-27,0.5v-23h-25.5v25.8l-3.5,0.4V472h-41.2l-5.8-189.5
		c0,0,0-7.3-1.3-10.1c-1.6-3.3-5-5.4-7.5-6.6c-0.4-14.8-1.6-25.9-3.1-25.9c-1.6,0-2.7,11.5-3,26.4c-2.4,1.3-5.2,3.2-6.6,6.1
		c-1.4,2.9-1.3,10.1-1.3,10.1L107.7,472H60.4l-8.9-253.4c0.4-2,1.1-6.1-0.8-10.1c-2.1-4.4-7-7.5-10.2-9.1c-0.5-12.8-1.6-21.8-3-21.8
		c-1.4,0-2.5,9.1-3,22c-3.3,1.7-8.1,4.5-10.2,8.9c-1.8,4-1.2,8-0.8,10.1l-3,66L14.7,472H0v57.4h792V472L777.3,472L777.3,472z
		 M427.9,471.3H364v-67.7c0,0-0.4-18.2,15.1-28.7c6.6-4.4,11.7-6.5,16.8-6.5c5.1,0.1,10.3,2.1,16.9,6.5c15.4,10.5,15,28.7,15,28.7
		V471.3z"/>
</g>
</svg>
