<?xml version="1.0" encoding="utf-8"?>
<!-- Generator: Adobe Illustrator 18.1.1, SVG Export Plug-In . SVG Version: 6.00 Build 0)  -->
<svg version="1.1" id="Capa_1" xmlns="http://www.w3.org/2000/svg" xmlns:xlink="http://www.w3.org/1999/xlink" x="0px" y="0px"
	 viewBox="158.1 134.3 237.9 151.3" enable-background="new 158.1 134.3 237.9 151.3" xml:space="preserve">
<g>
	<g>
		<path d="M276.9,186.7c0,0,17.2-26.9,5.8-45.4c-4.3-7.1-13.6-9.4-20.7-5c-5.1,3.1-7.7,8.8-7.2,14.3c-4.7-3-10.9-3.3-16-0.2
			c-7.1,4.3-9.4,13.6-5,20.7C245.1,189.8,276.9,186.7,276.9,186.7z"/>
		<path d="M284,198.4c0,0-17.2,26.9-5.8,45.4c4.3,7.1,13.6,9.4,20.7,5c5.1-3.1,7.7-8.8,7.2-14.3c4.7,3,10.9,3.3,16,0.2
			c7.1-4.3,9.4-13.6,5-20.7C315.7,195.3,284,198.4,284,198.4z"/>
		<path d="M336.7,174.1c-3.1-5.1-8.8-7.7-14.3-7.2c3-4.7,3.3-10.9,0.2-16c-4.3-7.1-13.6-9.4-20.7-5c-18.6,11.3-15.5,43.1-15.5,43.1
			s26.9,17.2,45.4,5.8C338.8,190.5,341,181.2,336.7,174.1z"/>
		<path d="M238.5,218.1c-3,4.7-3.3,10.9-0.2,16c4.3,7.1,13.6,9.4,20.7,5c18.6-11.3,15.5-43.1,15.5-43.1s-26.9-17.2-45.4-5.8
			c-7.1,4.3-9.4,13.6-5,20.7C227.3,216.1,232.9,218.7,238.5,218.1z"/>
		<path d="M270,234.7c-0.2,0.5-0.4,1-0.7,1.5c-0.3,0.5-0.5,1.1-0.9,1.8c-0.6,1.2-1.5,2.6-2.4,4c-1,1.4-2.1,2.9-3.3,4.3
			c-1.3,1.5-2.7,2.9-4.2,4.3c-1.5,1.4-3.2,2.8-5,4.1c-1.8,1.3-3.6,2.5-5.5,3.7c-3.8,2.3-7.8,4.3-11.6,5.9c-3.8,1.6-7.5,2.9-10.6,3.9
			c-3.2,1-5.8,1.7-7.7,2.1c-0.9,0.2-1.6,0.4-2.1,0.5c-0.2,0-0.4,0.1-0.5,0.1c-0.1,0-0.1,0-0.1,0c0,0,0,0,0,0l4.5,15
			c0,0,0.1,0,0.3-0.1c0.2-0.1,0.4-0.2,0.7-0.3c0.6-0.2,1.4-0.6,2.4-1.1c2-0.9,4.7-2.3,7.9-4.1c3.2-1.8,6.8-4.1,10.6-6.7
			c3.7-2.6,7.6-5.7,11.1-9c1.8-1.7,3.5-3.4,5.1-5.2c1.6-1.8,3.1-3.6,4.4-5.5c1.3-1.8,2.5-3.7,3.5-5.5c1-1.8,1.8-3.6,2.5-5.2
			c0.7-1.7,1.2-3.2,1.6-4.6c0.2-0.7,0.4-1.4,0.5-2c0.1-0.6,0.2-1.2,0.4-1.7c0.2-1,0.3-1.8,0.4-2.4c0.1-0.5,0.1-0.8,0.1-0.8
			s-0.1,0.3-0.3,0.8C270.6,233,270.4,233.8,270,234.7z"/>
	</g>
</g>
</svg>
