<?xml version="1.0" encoding="utf-8"?>
<!-- Generator: Adobe Illustrator 18.1.1, SVG Export Plug-In . SVG Version: 6.00 Build 0)  -->
<svg version="1.1" id="Capa_1" xmlns="http://www.w3.org/2000/svg" xmlns:xlink="http://www.w3.org/1999/xlink" x="0px" y="0px"
	 viewBox="0 0 792 612" enable-background="new 0 0 792 612" xml:space="preserve">
<g>
	<path fill="#121111" d="M705.3,395.3c-24.1-20.5-52.6-33.9-81.2-46.7c-10.7-4.7-31.6-5.7-26.5-20.8c8.9-26.6-6.4-21.5-20.6-21
		c-41.1,1.3-69.9-20.2-82.6-56.1c-11.1-31-28.6-53.8-57.3-64.6c-44.1-16.6-11.6-53.8-23.5-79.5c-5.3-11.6,22.1-9.5,32.4-18.1
		c5.1-4.2,12.8-7.4,19.3-7.5c20.8-0.6,14.6-15,11-23.8c-4.3-10.3,11.5-29.7-13.9-31.3c-14.1-1-34.5,0.1-41-8.4
		c-24.5-32.2-50.5-9.8-77.3-10.4c-32.6-0.6-45.9,50.6-82.5,25c-11.1,28.4-24.9,34.9-44,5.9c-0.8-1.1-9.7,0.5-10.4,2.3
		c-8.7,27.4-32.5,23-52.7,25.6c-7.4,1-17.8,7.6-16,9.8c20.4,26.1-11.7,51.2,1.1,79.3c13.1,28.7,45.7,51.6,66.3,35.3
		c48.5-38.4,92.4-26.3,108.9,33.9c7.9,29.2,27.9,45,48.4,59.8c36.9,26.9,66.8,61.4,116.3,74.4c33.5,8.9,59.6,46.9,92.4,68
		c20.9,13.5,26.3,42.3,24.9,64.3c-0.7,13.2-18.9,28.5-40.4,35c-39.4,11.9-77.9,5.5-116.7,4.1c-12.2-0.4-19.8,1.7-21.8,13.9
		c-1.9,11.8,4.3,16.9,15.3,21.6c27.5,11.4,54.7,23.8,80.5,38.4c11.6,6.5,21.7,16.4,34.5,8.4c12.8-8,12.3-21.5,6.2-36.6
		c2-12.8,1.3-36.8,18.5-34.1c37.9,6,37.2-26.5,54.6-41.5c29.2-25.4,34.6-40.5-0.5-61.7c-2.7-1.6-1.1-13.6,1.2-19.8
		c8.7-23.5,33.9-23.5,59.6-0.1c7.5,6.9,12.4,23.2,25.4,9.8C725.3,415.6,715.4,403.9,705.3,395.3z"/>
	<path fill="#121111" d="M253.9,353.4c-17.4,6.8-70.1,10-36.7,57.9c4.6,6.5,0.6,18.9,0.6,32.8c-3.1,15.5-9.7,42.4,19.3,40.7
		c19.3-1.1,50.7-8.5,45.1-45.8c-2.3-14.5,7.6-30.9,5.5-45.4C284.9,374.3,280.7,342.9,253.9,353.4z"/>
</g>
</svg>
