<?xml version="1.0" encoding="utf-8"?>
<!-- Generator: Adobe Illustrator 18.1.1, SVG Export Plug-In . SVG Version: 6.00 Build 0)  -->
<svg version="1.1" id="Capa_1" xmlns="http://www.w3.org/2000/svg" xmlns:xlink="http://www.w3.org/1999/xlink" x="0px" y="0px"
	 viewBox="0 0 792 612" enable-background="new 0 0 792 612" xml:space="preserve">
<g>
	<g>
		<path fill="#010002" d="M296.5,180.4c2.8,0,5.1-1.6,5.4-3.7c0.2-1.1-0.1-2.5-0.6-3.8c-0.7-2,1.9-0.9,6.2,2.4
			c4.2,3.3,7.6,8,7.6,10.5c0,2.5,1.8,4.5,3.9,4.5h3.9h30.6c0,0,2.1,0,4.8,0c2.6,0,16,0,29.9,0c5.1,0,10.5,0,15.6,0
			c13.9,0,27.3,0,29.9,0c2.4,0,4.8,0,4.8,0h30.7c0,0,1.8,0,3.9,0c2.2,0,3.9-2,3.9-4.5s3.4-7.1,7.6-10.5c4.2-3.3,6.8-4.5,6.2-2.4
			c-0.4,1.3-0.7,2.7-0.6,3.8c0.3,2.1,2.6,3.7,5.4,3.7c1.7,0,3.4-0.7,4.8-1.8c1.4-1.3,1.9-2.8,1.8-4.3c-0.1-2.7-1.4-8.1-1.4-12.3
			c0-4.3-0.4-7.6-0.8-7.4l-0.8,0.3c-0.1,0-5.7,2.2-15.1,2.2c-9.3,0-24-2.2-41.3-12.6c-12-7.2-19.9-15.5-25.2-23.2
			c-7.9-11.4-8-22.7-5.6-22.6c1.5,0.1,3,0.1,4.4,0.1c15.1,0,18.5-4.5,18.9-5c0,0,0.2-0.3,0.4-0.6c0.2-0.3,0.1-0.7-0.3-0.9l-0.7-0.3
			c-5.4-2.3-10.1-5.1-14-7.9c-7.3-5.1-12.2-10.9-12.4-11.4c-0.1-0.5-1.5-12.1-3.4-25.8c-1.6-11.6-3.6-25.2-5.2-36.8
			c-2-13.7-5.2-13.7-7.2,0l-5.4,36.8c-2,13.7-3.3,25.2-3.4,25.8c0,0.5-5,6.3-12.3,11.3c-3.9,2.7-8.6,5.5-14,7.9c0,0-0.3,0.1-0.7,0.3
			c-0.4,0.2-0.5,0.6-0.3,0.9l0.4,0.6c0.3,0.5,3.8,5,18.9,5c1.4,0,2.8,0,4.4-0.1c2.4-0.1,2.3,11.1-5.6,22.6
			c-5.2,7.6-13.2,16-25.2,23.2c-17.3,10.4-32,12.6-41.3,12.6c-9.4,0-15.1-2.2-15.1-2.2c0,0-0.4-0.2-0.8-0.3
			c-0.5-0.2-0.8,3.2-0.8,7.4s-1.3,9.7-1.4,12.3c0,1.5,0.4,3.1,1.8,4.3C293,179.8,294.7,180.4,296.5,180.4z"/>
		<path fill="#010002" d="M210.9,299.6c1.8-0.2,4-1.5,5.4-3.2c1.2-1.5,1.7-3.3,1.5-5c-0.2-1.5-1-3-1.9-4.2c-1.5-2.1-3.2-3.8-3.2-4.3
			c0-0.6,5.3,4.1,12.9,8.7c7.6,4.6,15,7,15,8.7s1.6,3.1,3.7,3.1h3.7h278.3c13.9,0,25.1-1.4,25.1-3.1s7.3-4.1,14.9-8.7
			c7.6-4.6,12.9-9.2,12.9-8.7s-1.6,2.3-3.2,4.3c-0.9,1.2-1.7,2.7-1.8,4.2c-0.2,1.7,0.3,3.5,1.5,5c1.4,1.7,3.6,3,5.4,3.2
			c4,0,9.4-1.8,9.8-6.8c0.1-1.7-0.3-3.1-0.8-4.3c-1.1-2.2-3-6.9-3-11.4c0-4.5-0.7-8.4-1.5-8.8c-0.8-0.4-3.7,0.8-6.4,2.7
			c-2.7,1.9-16.3,5.7-29.9,3.1c-7.3-1.4-15.8-4.1-24.8-9.1c-26.8-14.9-38.2-45.1-38.3-45.4c0,0-0.1-0.2-0.1-0.4
			c-0.1-0.2-1.2-0.4-2.5-0.4c-1.3,0-2.4-1-2.4-2.3c0-1.3-0.9-2.3-2.1-2.3c-1.2,0-13.3,0-27.2,0c-45.5,0-136.8,0-136.8,0
			s-0.9,0-2.1,0c-1.2,0-2.1,1-2.1,2.3s-1.1,2.3-2.4,2.3c-1.3,0-2.5,0.2-2.5,0.4l-0.2,0.4c-0.1,0.3-11.5,30.5-38.3,45.4
			c-9,5-17.4,7.7-24.8,9.1c-13.6,2.6-27.2-1.2-29.9-3.2c-2.7-1.9-5.6-3.1-6.4-2.7c-0.8,0.4-1.5,4.3-1.5,8.8c0,4.5-1.8,9.2-3,11.4
			c-0.6,1.1-1,2.6-0.8,4.3C201.5,298.1,207.5,299.9,210.9,299.6z"/>
		<path fill="#010002" d="M590,404.6c-1.1-2.2-3-6.9-3-11.4c0-4.5-0.7-8.4-1.5-8.8c-0.8-0.4-3.7,0.8-6.4,2.7
			c-2.7,1.9-16.3,5.7-29.9,3.1c-7.3-1.4-15.8-4.1-24.8-9.1c-26.8-14.9-38.2-45.1-38.3-45.4c0,0-0.1-0.2-0.1-0.4
			c-0.1-0.2-1.2-0.4-2.5-0.4c-1.3,0-2.4-1-2.4-2.3c0-1.3-0.9-2.3-2.1-2.3c-1.2,0-13.3,0-27.2,0c-45.5,0-136.8,0-136.8,0
			s-0.9,0-2.1,0c-1.2,0-2.1,1-2.1,2.3c0,1.3-1.1,2.3-2.4,2.3c-1.3,0-2.5,0.2-2.5,0.4l-0.2,0.4c-0.1,0.3-11.5,30.5-38.3,45.4
			c-9,5-17.4,7.7-24.8,9.1c-13.6,2.6-27.2-1.3-29.9-3.2c-2.7-1.9-5.6-3.1-6.4-2.7c-0.8,0.4-1.5,4.3-1.5,8.8s-1.8,9.2-3,11.4
			c-0.6,1.1-1,2.6-0.8,4.3c0.4,5.2,6.4,7,9.8,6.8c1.8-0.2,4-1.5,5.4-3.2c1.2-1.5,1.7-3.3,1.5-5c-0.2-1.5-1-3-1.9-4.2
			c-1.5-2.1-3.2-3.8-3.2-4.3c0-0.6,5.3,4.1,12.9,8.7c7.6,4.6,15,7,15,8.7c0,1.7,1.6,3.1,3.7,3.1h3.7c0,0,2.6,0,5.9,0
			c3.3,0,5.9,1.7,5.9,3.7c0,2,5.4,3.7,12,3.7c6.6,0,11.8,1.4,11.6,3.1c-0.1,1-0.3,2-0.4,3.1c-1.4,9.9-3,21.5-4.4,34
			c-1.6,12.4-2.7,25.7-4,38.9c-1.1,13.3-4.3,26.5-4.6,39c0,1,0,2,0.1,3.1c0.1,1.7-2.2,3.1-5.1,3.1c-2.9,0-5.2,2.3-5.2,5
			s-4.6,5-10.4,5c-5.7,0-10.4,11.3-10.4,25.1v0.7c0,13.9,10.9,25.1,24.3,25.1h24.3h3.8h102.7h3.8h102.3h3.8c0,0,10.6,0,23.7,0
			c13.1,0,23.7-11.3,23.7-25.1v-0.7c0-13.9-4.4-25.1-9.7-25.1c-5.4,0-9.7-2.3-9.7-5s-2.3-5-5.2-5c-2.9,0-5.1-1.4-5.1-3.1
			c0.1-1,0.1-2,0.1-3.1c-0.3-12.4-3.4-25.7-4.5-39c-1.3-13.2-2.4-26.5-4-38.9c-1.4-12.4-3-24-4.4-34c-0.1-1.1-0.3-2.1-0.4-3.1
			c-0.2-1.7,4.9-3.1,11.6-3.1c6.6,0,12-1.7,12-3.7c0-2.1,4.3-3.7,9.7-3.7c5.4,0,9.7-1.4,9.7-3.1c0-1.7,7.3-4.1,14.9-8.7
			c7.6-4.6,12.9-9.2,12.9-8.7s-1.6,2.3-3.2,4.3c-0.9,1.2-1.7,2.6-1.8,4.2c-0.2,1.7,0.3,3.5,1.5,5c1.4,1.7,3.6,3,5.4,3.2
			c4.1,0,9.5-1.8,9.8-6.8C591,407.1,590.6,405.7,590,404.6z M389.3,433c-1.4,10-3,21.5-4.4,34c-1.6,12.4-2.7,25.7-4,39
			c-1.1,13.3-4.3,26.5-4.6,38.9c0,1,0,2,0.1,3.1c0.1,1.7-2.2,3.1-5.1,3.1c-2.9,0-5.2,2.3-5.2,5s-10.5,5-23.4,5s-23.4-2.3-23.4-5
			c0-2.8-2.3-5-5.2-5s-5.1-1.4-5.1-3.1c0.1-1,0.1-2,0.1-3.1c-0.3-12.4-3.5-25.7-4.6-38.9c-1.3-13.3-2.4-26.5-4-39
			c-1.4-12.4-3-24-4.4-34c-0.1-1.1-0.3-2.1-0.4-3.1c-0.2-1.7,4.9-3.1,11.6-3.1s12-1.7,12-3.7c0-2,10.5-3.7,23.4-3.7
			s23.4,1.7,23.4,3.7c0,2.1,5.4,3.7,12,3.7c6.6,0,11.8,1.4,11.6,3.1C389.6,431,389.4,432,389.3,433z M495.4,433
			c-1.4,10-3,21.5-4.4,34c-1.6,12.4-2.7,25.7-4,39c-1.1,13.3-4.3,26.5-4.6,38.9c0,1,0.1,2,0.1,3.1c0.1,1.7-2.2,3.1-5,3.1
			c-2.9,0-5.2,2.3-5.2,5s-10.4,5-23.2,5c-12.8,0-23.2-2.3-23.2-5c0-2.8-2.3-5-5.2-5c-2.9,0-5.1-1.4-5.1-3.1c0.1-1,0.1-2,0.1-3.1
			c-0.3-12.4-3.5-25.7-4.6-38.9c-1.3-13.3-2.4-26.5-4-39c-1.4-12.4-3-24-4.4-34c-0.1-1.1-0.3-2.1-0.4-3.1c-0.2-1.7,4.9-3.1,11.6-3.1
			s12-1.7,12-3.7c0-2,10.4-3.7,23.2-3.7s23.2,1.7,23.2,3.7c0,2.1,5.4,3.7,12,3.7c6.6,0,11.8,1.4,11.6,3.1
			C495.7,431,495.5,432,495.4,433z"/>
	</g>
</g>
</svg>
