<?xml version="1.0" encoding="utf-8"?>
<!-- Generator: Adobe Illustrator 18.1.1, SVG Export Plug-In . SVG Version: 6.00 Build 0)  -->
<svg version="1.1" id="Capa_1" xmlns="http://www.w3.org/2000/svg" xmlns:xlink="http://www.w3.org/1999/xlink" x="0px" y="0px"
	 viewBox="-348 260.4 93.6 93.6" enable-background="new -348 260.4 93.6 93.6" xml:space="preserve">
<g>
	<g>
		<path fill="#FFFFFF" d="M-267.5,312.4c-0.1,0-0.1,0-0.2,0v5.5v6.4v18.9h-69.4v-69.4h30.7c0-0.1,0-0.1,0-0.2v-10.4
			c0-0.1,0-0.3,0-0.4H-346c-1.1,0-2,0.9-2,2v87.1c0,1.1,0.9,2.1,2,2.1h87.1c1.1,0,2-0.9,2-2.1v-38.7v-0.9c-0.1,0-0.2,0-0.3,0
			L-267.5,312.4L-267.5,312.4z"/>
		<path fill="#FFFFFF" d="M-283.2,277.3l-39.1,39.1c-0.4,0.4-0.6,0.9-0.6,1.4c0,0.5,0.2,1,0.6,1.4l9,9c0.4,0.4,0.9,0.6,1.4,0.6
			s1-0.2,1.4-0.6l39.1-39.1l9.6,9.6c0.5,0.5,1.3,0.7,2.1,0.5c0.7-0.3,1.2-0.9,1.3-1.7l3.9-35c0.1-0.6-0.1-1.2-0.6-1.6
			c-0.4-0.4-1-0.6-1.6-0.6l-35,3.9c-0.8,0.1-1.4,0.6-1.7,1.3c-0.3,0.7-0.1,1.5,0.5,2.1L-283.2,277.3z"/>
	</g>
</g>
</svg>
