<?xml version="1.0" encoding="utf-8"?>
<!-- Generator: Adobe Illustrator 18.1.1, SVG Export Plug-In . SVG Version: 6.00 Build 0)  -->
<svg version="1.1" id="Capa_1" xmlns="http://www.w3.org/2000/svg" xmlns:xlink="http://www.w3.org/1999/xlink" x="0px" y="0px"
	 viewBox="0 0 792 612" enable-background="new 0 0 792 612" xml:space="preserve">
<g>
	<g id="Layer_2_35_">
		<path d="M353.4,345.2c4,5.6,7.9,13.7,8.4,24.2c7.5,2.4,16.5,6.9,25.8,15.1c6,5.2,9.2,11.8,10.5,18.9c2-0.3,4.1-0.4,6.1-0.4
			c14.7,0,26.8,7.3,33.2,20.2c8.5,17.1,3.1,33.7-6.4,46.8c6.7,5,13.1,11.9,17.8,21.4c15.8,31.6,11.9,39.5-14.8,66.3l-0.8,0.8
			c8.8,11,23.5,11.6,45.1,11.6c4.3,0,15.1-1.2,23.4-12.1c8.2-10.9,15.2-33.4,2.2-79C488.2,423.6,428.1,365.5,353.4,345.2z"/>
		<path d="M432.8,499.2c-9.8-19.6-28-22.3-32.9-22.6c-0.8-0.1-1.2-0.1-1.3-0.1l0,0c0,0,0.4-0.3,1-0.7c5.3-3.7,32.1-24.1,21.8-44.8
			c-3.8-7.7-10.3-10.2-17.1-10.2c-11.6,0-24.2,7.3-27.6,9.3c-0.5,0.3-0.9,0.6-0.9,0.6s0.2-0.4,0.5-1.2c2.1-4.8,9.3-23-0.5-31.6
			c-13-11.4-24.1-13.2-29.9-13.2c-0.1,0-0.2,0-0.3,0c-2.5,0-3.9,0.4-3.9,0.4c0.4-1.3,0.7-2.5,1-3.7c7.7-31.3-24.2-41.9-35.2-41.9
			c-4.6,0-11,0.9-17.1,2c-7,1.3-13.5,2.8-16,3.4c-0.7,0.2-1.1,0.3-1.1,0.3s0-0.2,0-0.6c-0.1-1.7-0.5-7.2-2.9-14
			c-0.9-2.7-2.1-5.5-3.8-8.5c-6-11-17.3-22.8-39-28.2c-5.1-1.3-10-1.8-14.7-1.8c-38,0-65.1,36-65.1,36
			c-13.2-7.9-24.5-10.9-34.1-10.9c-32.2,0-45.7,33.7-45.7,33.7c-4.1-1-7.7-1.5-10.8-1.5c-30.8,0-12,47.1-12,47.1
			c-53.2,21.3-17,52.5-12,56.6c26.1-49.5,73.6-93.1,159.9-95.5c1,0,2.7-0.2,4.4-0.4c2.7-0.3,5.6-0.5,7.2-0.5
			c100.8,0,166.2,104.1,197.6,170.7c1,2.1,2,4.2,2.9,6.3c1.3,2.8,3.2,5.6,5.3,8.5l6.6,1.6l4.1,1c1.5-1.5,2.9-2.9,4.3-4.3
			C444.1,521.8,443.4,520.4,432.8,499.2z"/>
		<path d="M392.2,547.1c-1.2-1.9-2.3-3.9-3.2-5.9c-0.7-1.5-1.4-3-2.1-4.6c-29.3-62.6-90.3-161.9-182.1-161.9c-1.2,0-3.4,0.2-5.5,0.4
			c-2.2,0.2-4.3,0.4-5.6,0.4c-75,2.1-117.8,38.9-142.1,82.1c-1.5,2.7-3,5.5-4.4,8.2c-1.4,2.8-2.7,5.5-4,8.3
			c-15,33.2-20.5,68-22.5,92.3h387.6c-2.6-2.5-5.1-5.3-7.6-8.2C397.5,554.7,394.6,551,392.2,547.1z M204.8,447.8
			c0-9.4,7.7-17.1,17.1-17.1c9.4,0,17.1,7.7,17.1,17.1c0,9.4-7.7,17.1-17.1,17.1C212.4,464.9,204.8,457.2,204.8,447.8z M261.8,516.4
			c0,3.2-1,6.1-2.5,8.7c-3,4.9-8.4,8.2-14.6,8.2c-8.9,0-16.2-6.9-17-15.7c0-0.5-0.1-0.9-0.1-1.4c0-2.7,0.7-5.2,1.8-7.4
			c1.6-3.2,4.1-5.8,7.2-7.5c2.4-1.3,5.2-2.1,8.1-2.1c5.8,0,10.9,2.9,14,7.3c1.9,2.8,3.1,6.1,3.1,9.7
			C261.8,516.2,261.8,516.3,261.8,516.4z M278.9,487.7c-9.4,0-17.1-7.7-17.1-17.1c0-9.4,7.7-17.1,17.1-17.1
			c9.4,0,17.1,7.7,17.1,17.1C296,480,288.3,487.7,278.9,487.7z"/>
	</g>
</g>
<g>
	<g id="Layer_2_1_">
		<path d="M772.3,227.9c0-18.7-38.7-35.2-97.5-44.8l-14.9,11.2c37.2,6.1,60.8,15.3,60.8,25.6c0,4.2-4,8.3-11.3,12
			c-24.4,12.5-85.4,21.3-156.9,21.3c-71.5,0-132.6-8.8-156.9-21.3c-7.3-3.7-11.3-7.8-11.3-12c0-8.5,16.3-16.3,43-22.2l-11.7-12
			c-50.5,9.9-82.8,25.1-82.8,42.2c0,1.4,0.3,2.7,0.7,4h-0.7l1,1.2c1.6,4.1,5.2,8.2,10.4,12l64.7,74.3h-3c-9.6,0-17.3,7.7-17.3,17.3
			v1.8c0,9.6,7.7,17.3,17.3,17.3h300.6c9.6,0,17.3-7.7,17.3-17.3v-1.8c0-9.6-7.7-17.3-17.3-17.3h-10.3l64.7-74.3
			c5.2-3.8,8.8-7.8,10.4-12l1.1-1.2h-0.7C772,230.6,772.3,229.3,772.3,227.9z"/>
		<path d="M610.1,188.6l1.9,23.4l27.4-20.6l15-11.3l109.3-82.3l-168.3-86l2.9,34.5l71.8,16.4c2.5,0.6,4.5,2.4,5.3,4.9
			c0.8,2.4,0.2,5.1-1.4,7l-67,76.6l2.1,24.7L610.1,188.6z M705.5,78.9c6,0,10.9,4.9,10.9,10.9c0,6-4.9,10.9-10.9,10.9
			s-10.9-4.9-10.9-10.9C694.5,83.8,699.4,78.9,705.5,78.9z M687.2,115.4c8.1,0,14.6,6.5,14.6,14.6s-6.5,14.6-14.6,14.6
			s-14.6-6.5-14.6-14.6S679.2,115.4,687.2,115.4z"/>
		<path d="M510.8,187.7l13.2,36.1l32.5-37.1l11-12.5l24.5-28l6.7-7.6l6.7-7.6l49.6-56.7l-55.4-12.6l-7.5-1.7l-7.5-1.7L524,44.3
			l-28.7,101.1l10.9,29.8L510.8,187.7z M584.3,72.2c0.4-0.4,0.9-0.7,1.4-1c2.1-1.6,4.6-2.5,7.1-2.7c2.5-0.2,5.1,0.1,7.4,1.2
			c1.7,0.8,3.3,1.9,4.7,3.4c5.5,5.9,5.1,15.1-0.8,20.6c-0.6,0.5-1.2,0.9-1.8,1.3c-2.2,1.5-4.6,2.3-7.1,2.4c-2.5,0.2-5.1-0.3-7.4-1.4
			c-1.6-0.8-3-1.8-4.3-3.2C578,86.9,578.4,77.6,584.3,72.2z M545,88.6c4.4-4.1,11.4-3.8,15.5,0.6c4.1,4.4,3.8,11.4-0.6,15.5
			c-4.4,4.1-11.4,3.8-15.5-0.6C540.3,99.7,540.5,92.7,545,88.6z"/>
		<path d="M503.3,39.6L461.1,52l-7,2.1l-7,2.1L339.5,87.7l93.3,94.9l11.5,11.7l17,17.3l5.8-20.5l3.8-13.4l9-31.9l3.4-11.9l3.4-11.9
			l23-81l1-3.7L503.3,39.6z M398.4,100.4c-5.4,0-9.8-4.4-9.8-9.8c0-5.4,4.4-9.8,9.8-9.8c5.4,0,9.8,4.4,9.8,9.8
			C408.2,96,403.8,100.4,398.4,100.4z M427.8,133.1c-7.2,0-13.1-5.9-13.1-13.1c0-7.2,5.9-13.1,13.1-13.1c7.2,0,13.1,5.9,13.1,13.1
			C440.9,127.3,435,133.1,427.8,133.1z"/>
	</g>
</g>
</svg>
