<?xml version="1.0" encoding="utf-8"?>
<!-- Generator: Adobe Illustrator 18.1.1, SVG Export Plug-In . SVG Version: 6.00 Build 0)  -->
<svg version="1.1" id="Capa_1" xmlns="http://www.w3.org/2000/svg" xmlns:xlink="http://www.w3.org/1999/xlink" x="0px" y="0px"
	 viewBox="0 0 792 612" enable-background="new 0 0 792 612" xml:space="preserve">
<g>
	<g>
		<path d="M187.3,321.7c0,39.7,10,77.1,27.5,109.8l184.1-106.3L212.1,217.3C196.3,248.7,187.3,284.1,187.3,321.7z M245.6,379.1
			c-5.9,2.8-12,4.5-18.3,6.1c-2.8,0.7-10.3,2-11.4-2.2c-1.1-4.1,6-6.9,8.8-7.6c4.5-1.1,8.8-2.3,13-4.3c3.4-1.6,10.3-3,13.3,0.1
			C254.3,374.5,247.8,378.1,245.6,379.1z M325.4,307.1c8.7,0,15.8,7.1,15.8,15.8s-7.1,15.8-15.8,15.8c-8.7,0-15.8-7.1-15.8-15.8
			C309.6,314.1,316.7,307.1,325.4,307.1z M281.8,330.8c0,13.1-10.6,23.7-23.7,23.7c-13.1,0-23.8-10.6-23.8-23.7
			c0-13.1,10.6-23.7,23.8-23.7C271.2,307.1,281.8,317.7,281.8,330.8z M234.3,248.9c8.7,0,15.8,7.1,15.8,15.8
			c0,8.7-7.1,15.8-15.8,15.8c-8.7,0-15.8-7.1-15.8-15.8C218.5,255.9,225.6,248.9,234.3,248.9z M204.8,317.3c-13.6,0,1.8-9.8,8.3-9.8
			C226.7,307.5,211.3,317.3,204.8,317.3z"/>
		<path d="M409.4,77.6V35.8c-98.4,3.6-184.3,57-233.1,135.9l36.2,20.9C254,126.3,326.4,81.2,409.4,77.6z"/>
		<path d="M648.1,161.3l36.2-20.9C635.6,61.5,549.7,8,451.2,4.5v41.8C534.2,49.8,606.6,94.9,648.1,161.3z"/>
		<path d="M660.9,475.6l-36.2-20.9c-41.8,64.2-113,107.6-194.3,111v41.8C527.1,604,611.7,552.2,660.9,475.6z"/>
		<path d="M637.5,210.8c17,33.3,26.7,71,26.7,110.9c0,41.6-10.5,80.7-28.8,115l36.2,20.9c21.9-40.5,34.4-86.8,34.4-135.9
			c0-47.5-11.7-92.3-32.3-131.8L637.5,210.8z"/>
		<path d="M204.4,436.7c-18.4-34.3-28.8-73.5-28.8-115c0-39.9,9.7-77.6,26.7-110.9L166,189.9c-20.6,39.5-32.3,84.3-32.3,131.8
			c0,49.2,12.5,95.5,34.4,135.9L204.4,436.7z"/>
		<path d="M409.4,607.5v-41.8c-81.3-3.4-152.5-46.8-194.3-111l-36.2,20.9C228,552.2,312.6,604,409.4,607.5z"/>
		<path d="M409.4,89.4c-79,3.5-147.8,46.4-187.1,109.6l187.1,108V89.4z M294.1,205.5c-13.1,0-23.7-10.6-23.7-23.7
			c0-13.1,10.6-23.7,23.7-23.7c13.1,0,23.7,10.6,23.7,23.7C317.9,194.9,307.2,205.5,294.1,205.5z M365,248.9
			c-8.7,0-15.8-7.1-15.8-15.8c0-8.7,7.1-15.8,15.8-15.8c8.7,0,15.8,7.1,15.8,15.8C380.8,241.8,373.7,248.9,365,248.9z M364.3,190.1
			c-3-3.7-6.4-5.6-11-6.9c-4.6-1.3-5.5-6.1-2.5-9.5c3.5-3.9,9.4-5.2,14.3-3.8c7.1,1.9,13.1,5.7,17.8,11.4
			C389.2,189.1,369.9,197,364.3,190.1z M372.3,152.6c-8.7,0-15.8-7.1-15.8-15.8c0-8.7,7.1-15.8,15.8-15.8c8.7,0,15.8,7.1,15.8,15.8
			C388.1,145.5,381,152.6,372.3,152.6z"/>
		<path d="M652.4,321.7c0-37.6-9-73-24.8-104.4L440.8,325.2l184.1,106.3C642.4,398.8,652.4,361.4,652.4,321.7z M620.8,254.3
			c13.5,0-2.5,9.1-8.5,9.1C598.9,263.4,614.8,254.3,620.8,254.3z M522.2,340.2c-8.7,0-15.8-7.1-15.8-15.8c0-8.7,7.1-15.8,15.8-15.8
			c8.7,0,15.8,7.1,15.8,15.8C538,333.1,531,340.2,522.2,340.2z M565.7,308.3c9.9,0-9,8.1-13.1,8.1
			C542.7,316.5,561.5,308.3,565.7,308.3z M556.6,360.3c-13.7,0-0.3-12.1,7.7-12.1C577.9,348.2,564.5,360.3,556.6,360.3z
			 M598.2,399.9c-8.7,0-15.8-7.1-15.8-15.8c0-8.7,7.1-15.8,15.8-15.8c8.7,0,15.8,7.1,15.8,15.8C614,392.8,606.9,399.9,598.2,399.9z
			 M606.2,337.4c-13.1,0-23.7-10.6-23.7-23.7c0-13.1,10.6-23.7,23.7-23.7c13.1,0,23.8,10.6,23.8,23.7
			C629.9,326.8,619.3,337.4,606.2,337.4z"/>
		<path d="M409.4,554V343.3L225.6,449.4C265.4,509.8,332.5,550.6,409.4,554z M376.1,537.1c-13.6,0,1.2-10.5,8.1-10.5
			C397.8,526.7,383,537.1,376.1,537.1z M372.3,399.9c8.7,0,15.8,7.1,15.8,15.8c0,8.7-7.1,15.8-15.8,15.8c-8.7,0-15.8-7.1-15.8-15.8
			C356.5,406.9,363.6,399.9,372.3,399.9z M331.7,436.8c13.7,0,0.6,12.5-7.6,12.5C310.4,449.3,323.5,436.8,331.7,436.8z M341.2,457.6
			c13.1,0,23.7,10.6,23.7,23.7c0,13.1-10.6,23.7-23.7,23.7c-13.1,0-23.7-10.6-23.7-23.7C317.5,468.2,328.1,457.6,341.2,457.6z
			 M273.9,439.4c8.7,0,15.8,7.1,15.8,15.8c0,8.7-7.1,15.8-15.8,15.8c-8.7,0-15.8-7.1-15.8-15.8C258.1,446.5,265.2,439.4,273.9,439.4
			z"/>
		<path d="M614.2,449.4L430.3,343.3V554C507.2,550.6,574.4,509.8,614.2,449.4z M464.3,520.9c-8.7,0-15.8-7.1-15.8-15.8
			c0-8.7,7.1-15.8,15.8-15.8c8.7,0,15.8,7.1,15.8,15.8C480.1,513.8,473,520.9,464.3,520.9z M475,455.2c-13.1,0-23.8-10.6-23.8-23.7
			c0-13.1,10.6-23.7,23.8-23.7c13.1,0,23.7,10.6,23.7,23.7C498.7,444.6,488.1,455.2,475,455.2z M499,490.2c-9.8,0,9-8,13.1-8
			C521.9,482.1,503.1,490.2,499,490.2z M558.7,473.4c-8.7,0-15.8-7.1-15.8-15.8c0-8.7,7.1-15.8,15.8-15.8c8.7,0,15.8,7.1,15.8,15.8
			C574.5,466.3,567.4,473.4,558.7,473.4z"/>
		<path d="M451.2,58v217.7l187.1-108C599,104.5,530.3,61.5,451.2,58z M511.8,89.4c8.7,0,15.8,7.1,15.8,15.8s-7.1,15.8-15.8,15.8
			c-8.7,0-15.8-7.1-15.8-15.8C496,96.5,503,89.4,511.8,89.4z M477.9,74.6c13.7,0,1.2,13.1-7.4,13.1
			C456.8,87.7,469.3,74.6,477.9,74.6z M488,222c-13.1,0-23.8-10.6-23.8-23.7c0-13.1,10.6-23.7,23.8-23.7c13.1,0,23.7,10.6,23.7,23.7
			C511.8,211.3,501.1,222,488,222z M512.4,151.5c-4,3.1-10.2,4-14.5,1c-4.5-3.1-10.1-3.8-15.3-4.8c-4.4-0.9-8.5-4.3-6.3-9.2
			c2-4.6,8.3-7.3,13.1-6.4c8.4,1.7,16.8,3.3,23.9,8.2C517.5,143.3,515.8,148.8,512.4,151.5z M525.4,188.5c-13.7,0-1.5-13.4,7.3-13.4
			C546.4,175,534.3,188.5,525.4,188.5z M558.7,166.5c-8.7,0-15.8-7.1-15.8-15.8c0-8.7,7.1-15.8,15.8-15.8c8.7,0,15.8,7.1,15.8,15.8
			C574.5,159.5,567.4,166.5,558.7,166.5z M586.5,159.7c-9.8,0,9-8.1,13.1-8.1C609.5,151.6,590.6,159.7,586.5,159.7z"/>
	</g>
</g>
</svg>
