<?xml version="1.0" encoding="utf-8"?>
<!-- Generator: Adobe Illustrator 18.1.1, SVG Export Plug-In . SVG Version: 6.00 Build 0)  -->
<svg version="1.1" id="Capa_1" xmlns="http://www.w3.org/2000/svg" xmlns:xlink="http://www.w3.org/1999/xlink" x="0px" y="0px"
	 viewBox="0 0 792 612" enable-background="new 0 0 792 612" xml:space="preserve">
<g>
	<path d="M548.6,359.1c-13.9-7-29.7-10.5-44.8-9c4.7-12.2,6.1-27.1-3.2-35.5c-13.5-12.1-30.7-6.7-45.5,0.5
		c-5.4-10.3-11.3-21.1-13.3-32.2c-1.2-6.9-10.7-6.9-13.9-1.8c-5.7,8.9-13.5,15.5-21.3,22.3c-9.4-12.3-23.6-26.9-39.1-20.1
		c-1.6,0.7-3.1,1.6-4.4,2.5c-18.5-26.4-43.8-25.2-66.6-1.3c-25.5-37.1-62.8-43.5-89.6-4.1c-32.5-23-68.4-17.5-61.1,27.5
		c-19.1,0.9-34.3,19.6-43.5,34.9c-10.5-11.3-26.4-23.7-40.9-18.9c-15.8,5.2-20.3,20.7-20.5,35.9c-11.2-1.2-23.3-1.1-33.3-5.3
		c-3.7-1.6-7.6,2.3-7.6,5.8c-0.1,12.6,0.3,25.8,8.5,36c4.4,5.5,12.3,7.1,19.9,8c-2,2-3.8,4.3-5.2,7c-6.7,13-1.8,27.9,5.7,39.4
		c4.9,7.6,17,0.6,12.1-7.1c-8.3-12.9-10.4-32.9,9.5-35.2c7.4-0.9,14.2,1.8,19.2,7.3c7.4,8.2,5.9,21,4.8,31.1
		c-14.7,0.7-28.6,3.3-41.1,9.1c-0.6,0.3-0.8,0.7-1,1.1c-1.5-2.3-3-4.5-4.4-6.9c-3.3-5.4-10.7-1.6-9.7,4.1
		c19.3,111.8,153.9,156.3,252,156.4c111,0.2,229.4-57,267.7-166.4c3.7-10.6-7.9-16.2-15.9-12.3c-2.4-1.7-5.6-2.6-9.7-2.1
		c-5.1,0.7-10.2,1.5-15.2,2.3c12.5-24.3,27.4-44,51.4-59.2C553.4,369.9,554.3,361.9,548.6,359.1z M203.7,295.7
		c3.4,3.1,8.7,2.6,11.1-1.4c20.4-33.7,56.3-25.5,74.6,5.9c3,5.1,9.3,4.1,12.4,0c25.2-16.5,42.7-17.7,52.6-4
		c-5.9,12.4-3.4,29.6-0.1,42.3c0.5,1.9,1.7,3,3,3.4c-3.2,2.8-6.4,6-9.3,10c-4.2-7.3-8.5-14.7-10.6-22.6c-1.3-4.8-8.7-7.7-12.2-3.2
		c-10.2,13.1-22.6,22.1-31.2,35.7c-10.9-9.6-26.2-21.3-39.7-15.3c-17.8,7.9-12.9,28.5-8.3,43.5c1.3,4.3,7.3,2.5,6.6-1.8
		c-6.4-15.4-0.4-24.7,18-28.1c7.7,4.3,14.5,9.7,20.6,16c2.8,2.6,8,2.5,9.9-1.3c6-12.2,17-20.7,26.7-30.1c4,8.5,9.3,16.6,13.8,24.8
		c2.5,4.6,10,4.8,12.4,0c7.1-13.9,16.3-26.5,33.3-27.4c22.6-1.2,20.5,28.4,17.7,42.7c-47.3-18.7-122.4,11.3-103,77.4
		c-2.1,0.2-4.2,0.3-6.3,0.4c-13.9-27.3-32.4-63.3-57.7-69.1c4.2-15.1,1.9-32.8-6.3-45.5c-10.8-16.7-31.3-15-47.8-8.9
		c-5.6-14.8-13.7-27.6-29.6-30.8C154.8,280.9,184.8,278.4,203.7,295.7z M150.2,454.7c-20.5-3.7-41.7-7.3-62-8
		c1.6-11.1,0.1-23-4.6-32.7c0.1-0.1,0.1-0.2,0.2-0.3c18.4-8.7,37.1-13.2,57.3-8.3c11.8,2.9,20.4,9.9,27.9,18.2
		c-9.5,5.8-16.7,14.9-19.1,27.4C149.7,452.4,149.9,453.6,150.2,454.7z M85.5,407.4c6.4-24.4,34-25,55.3-19.9
		c19.6,4.7,34.8,15.1,47.6,29.2c-2.5,0.4-4.9,1-7.3,1.7C158.4,389.5,117.6,390.7,85.5,407.4z M163.2,454.7
		c2.7-9.4,7.9-15.7,15.6-19.5c1,1.3,2.1,2.6,3.1,3.8c3.9,4.8,10.1-1.3,7.9-6.1c-0.1-0.3-0.3-0.6-0.4-0.9c8-1.2,15.8,0.4,23.6,2
		c7,9.9,13.4,20.4,20.1,30.6c-10.7-0.3-21.5-0.8-32.3-1.9c-12-1.2-25.2-3.4-38.8-5.9C162.5,456.2,162.9,455.6,163.2,454.7z
		 M225.6,436c0.2,0,0.3,0,0.4,0.1c6.5,0.4,8.3-8.7,3.2-11.8c-4.6-2.8-9.7-4.9-15-6.3c-1.2-1.7-2.3-3.4-3.6-5
		c3.5-2.8,6.9-4.7,10.1-6.2c-0.3,5.5,7,6,9.7,2.4c1.1-1.5,2-3.1,2.9-4.8c9.7,0.9,18.5,7.8,26.8,19.9c8.5,12.4,14.8,26.1,21.6,39.5
		c-14,0.8-28,1.1-42.1,0.9C235,455.1,230.6,445.4,225.6,436z M49.4,394.5c-2.5,0.2-4.9,0.8-7.3,1.5c0,0,0,0-0.1,0
		c-6.3-1.8-12.8-3.1-19-5.1c-9.5-3-10.6-13.7-10.9-23.2c10.9,1.5,21.9-0.1,32.9,3.6c3.7,1.3,6.5-2,6.9-5.3
		c1.4-11.4,2.6-32.6,19.2-29.4c11.8,2.3,21.1,13.9,29,22c5.3,5.5,12.5-2.1,8.6-7.9c19.1-28.7,54.6-46.7,64.1-0.2
		c0.7,3.4,5.2,6.3,8.6,4.9c17.3-7,36.2-10.9,42.9,11.4c2.7,9,0.6,18.1-1.4,27.1c-7.2,1.8-14.9,6.1-23.2,13.6
		c-31.5-35.9-117.5-58.2-121.7-1.8C71.6,398,62.1,393.3,49.4,394.5z M509.4,454c-43.6,89.9-141.6,131.1-239.1,133.7
		c-103,2.7-181.2-43.3-235-126c0.2,0,0.4,0.1,0.6,0.1c23.2-5.4,58.6,6.1,81.2,9.7c31.4,4.9,62.7,10.1,94.2,13.8
		C312.3,497,410.2,468,509.4,454z M357.3,415.2c20.9-2.4,36.5,15.4,42.5,33.4c-22.1,3.8-44.2,7.4-66.4,10.2c0-0.3,0.1-0.7,0-1.1
		C330.2,439.1,335.6,417.7,357.3,415.2z M479,433.4c-0.2,0.6-0.2,1.1-0.2,1.7c-22.5,3.7-44.9,7.7-67.3,11.6c0-0.4,0-0.8-0.1-1.2
		c-7.9-24.6-29.9-47.4-58.1-41.9c-27.7,5.4-35.1,31.8-26.1,55.9c0,0,0,0,0,0.1c-5.4,0.6-10.8,1.3-16.1,1.9
		c-8.2-35,12.1-60.5,46.4-67.8c35-7.5,60.4,11.8,71,43.5c2.2,6.5,12.5,5.7,12.3-1.7c-0.7-20.1-9.7-34.4-22.9-43.6
		c0.1-0.3,0.3-0.5,0.4-0.8c12.7-48.6-23.7-73-54.1-54.4c0-0.3,0.1-0.6,0-1c-1.4-9.1-2.3-18.1-0.4-26.8c4.5,0.5,9.4-4.4,6.8-9.9
		c-0.4-0.8-0.8-1.5-1.2-2.3c10-9.3,28,18,29.9,20.7c2.7,4,7.5,4.5,11.1,1.4c7.1-6.1,14.2-11.8,20.6-18.3c3.9,10,9.5,19.6,14.1,28.7
		c1.9,3.9,7,4.6,10.6,2.8c6.7-3.5,29.8-17.4,35-3.3c2.6,7.1-0.8,16.6-2.6,25c-5.3,2.1-10.5,4.8-15.2,8.6
		c-22.1,17.9-32.5,46.3-23.9,73.8c1,3.1,6.1,2.7,5.9-0.8c-2.6-43.9,31.2-79.6,72.8-67.6C505.6,384.7,488.5,406.6,479,433.4z"/>
</g>
<g>
	<path fill="#1D1D1B" d="M708.9,118.8c-4.4-27.2-8.6-54.4-13.4-81.5c-0.3-1.5-1.5-2.1-2.7-2.1c-4.8-4.3-11.7-6-18-4.7
		c-4.6,0.9-11.8,4.4-10.2,10c0.2,0.8,1.5,1.3,2.2,0.9c0.2-0.1,0.5-0.2,0.7-0.3c2.8,17.1,6,34.2,9.1,51.3c1.2,6.5,11.8,46.3,4.4,54.9
		c-10.5-4.1-15-50.5-15.8-55.1c-3-17.7-5.9-35.4-9.8-53c0-0.1-0.1-0.1-0.1-0.1c0-1-0.4-2-1.5-2.5c-7.9-4.2-17.3-2.8-23.3,3.4
		c-1.1,0.1-2.2,1-2.1,2.4l0,0c0,0-0.1,0.1-0.1,0.1c-0.6,0.9-0.3,1.8,0.3,2.2c3.7,36.2,8.5,72.8,14.9,108.6c-0.4-0.2-0.8-0.3-1.3-0.2
		c-3.1,1.1-5.1,3-8.7,2.4c-3.8-0.6-6.6-2.7-8.3-6.1c-0.1-0.3-0.3-0.4-0.5-0.5c-3.5-34.4-7.2-69.1-13.1-103.2
		c0.1-0.3,0.2-0.6,0.1-0.9c-1.7-6.5-10.4-8.8-16.3-8.5c-7.2,0.3-13.8,4.2-16.5,11c-0.1,0.3,0,0.5,0,0.8c0,0.2-0.2,0.3-0.2,0.6
		c1.2,9.5,16.2,110.4,11.8,111c-0.9,0.1-1.2,1-1,1.7c-1.3,0.7-2.6,1.4-4.3,1.5c-2.2,0.2-4.5-0.1-6.6-0.9
		c-14.8-15.4-14.1-43.6-16.5-63.3c-2-15.8-3.3-31.8-7.2-47.2c0.7-0.6,0.8-1.8,0.2-2.6c-3.2-4.3-11-3.8-15.7-2.6
		c-5.7,1.5-11.3,5.4-13.1,11.2c-0.3,1,0.2,1.8,1,2.1c1.5,24.5,4.5,48.9,7.7,73.3c2.2,17,2.1,37.6,9.1,53.6
		c7.3,16.6,22.3,22.5,38.9,23.2c18.1,1.9,29.7,39,33.5,53.3c4,15.1,4.8,32.5,7,48.1c4,28.9,7.6,57.8,10.9,86.7
		c6.4,57.5,10.1,115.1,15.7,172.7c-2.2,23.4,17.8,39.3,41.6,39c21.3-0.3,47.8-20.6,37.7-43.9c-20-111.6-46.9-223.3-73.9-333.5
		c0-0.2,0.1-0.4,0-0.7c-10.2-29.4,35.1-23.4,47.5-31c9-5.6,12.4-12.3,13.9-22.7C719.5,159.9,711.7,136.3,708.9,118.8z M709.5,160.3
		c-2.3,25.5-19.7,32.6-39.4,41c-10.5,4.5-19.2,9.5-20.5,17.7c-1.1,0.2-2,1.1-1.7,2.5c23.3,114.6,47.1,230.7,77.5,343.7
		c3.3,23.7-13.3,41.5-38,39.4c-19.6-1.7-31.4-14.2-34.5-31.8c0.3-0.3,0.6-0.7,0.5-1.2c-2.3-87.2-12.7-174.7-24.5-261.1
		c-3.7-27.4,0.2-93.7-33.8-102.3c0.3-1.1-0.1-2.5-1.5-2.5c-61.9-1.9-56-101.7-63.6-147.1c3.2-3.4,6.5-6.1,11.2-7.2
		c4.2-1,7.7,0.6,11.7,0.7c-0.2,24.6,4.5,49.7,7.7,74c2.1,16.5,4.3,31.2,17.6,42.3c1.5,1.2,3,0.2,3.5-1.2c1.2,0.3,2.4,0.5,3.7,0.5
		c4,0,10.1-1.9,10.9-6.4c0.2-1.4-1.2-2.2-2.3-1.8c6.9-16.4-8.4-99.7-10-111.3c0-0.2-0.2-0.3-0.3-0.5c3-3.6,7.2-5.7,12-6
		c5.4-0.3,8.2,2.4,12.3,4.7c2.6,35.3,7.7,70.8,12.8,105.9c0.3,1.9,2.1,2.2,3.4,1.5c1.6,3,4.7,5.2,8,6c4.1,1,11,0.3,12.4-4.4
		c0-0.1,0-0.1,0-0.2c0.9,0.7,2.5,0.2,2.4-1.3c-3-36.9-7.8-74.2-13.6-110.8c5.4-3.9,12.7-4.6,18.5-1.4c0.4,0.2,0.8,0.3,1.1,0.3
		c3.5,31.9,6.3,68.3,15.8,98.7c2.6,8.3,8.8,17.1,17.4,9.6c0.6-0.5,0.6-1.3,0.4-1.9c3.4-3.5,2.9-10.2,1.9-17
		c-4.4-30.5-10-60.9-15.6-91.2c-0.3-1.4-1.4-2-2.5-2.1c5.7-4.2,14.4-2.6,19.8,2.1c0.2,0.1,0.3,0.2,0.5,0.3
		c3.9,26.4,8.2,52.7,12.5,79C704.9,131.7,710.6,147.9,709.5,160.3z"/>
</g>
</svg>
