<?xml version="1.0" encoding="utf-8"?>
<!-- Generator: Adobe Illustrator 18.1.1, SVG Export Plug-In . SVG Version: 6.00 Build 0)  -->
<svg version="1.1" id="Capa_1" xmlns="http://www.w3.org/2000/svg" xmlns:xlink="http://www.w3.org/1999/xlink" x="0px" y="0px"
	 viewBox="0 0 792 612" enable-background="new 0 0 792 612" xml:space="preserve">
<path d="M706.4,328.7c19.6-35,29.8-73.7,0-106.8c8.9-42,5.6-82.1-23.8-106.8c-1.4-7-5.6-13.1-13.1-17.3
	c-91.8-51.3-196.3,10.3-290.9,18.6c-9.8-56.9-49-114.2-111-116.1c-29.4-0.9-63.4,26.6-70.9,54.1c-3.7,13.1-1.9,23.3-0.9,33.6
	c-14-6.1-28.9-9.3-44.3-14c-4.7-1.4-10.3,0.9-12.1,5.1c-7.9,14.9-15.4,29.8-22.4,45.2c-11.2-11.2-22.8-19.6-37.8-27.5
	c-4.7-2.3-10.7-1.4-13.5,3.7C37.4,156.2,28,246.2,53.7,305.9c-10.3,36.4-20.5,72.7-31.2,108.6c-2.3,7.9,3.7,14,11.2,14.5
	c12.1,0.9,24.2,1.9,36.4,2.8c-32.6,28.9-41,69.5-20.5,103.5c0,47.1,20.5,82.1,79.3,72.3c71.3-11.7,131.5-55,205.1-38.2
	c94.2,21.4,329.6,116.6,321.2-63.9c-0.5-7.9-7-11.2-13.1-10.3c41-30.3,52.7-116.1,69.5-155.3C713.4,334.8,710.1,330.1,706.4,328.7z
	 M679.4,141.3c42.4,57.3-37.8,189.8-72.3,228.9C526,463,389.4,348.3,299.9,323.6c1.9-10.3,1.9-21.4,0-34
	c83.9,24.7,175.3,89.5,262,70.9c62.9-13.5,64.3-92.8,79.3-143.6C645.8,201.9,670.5,169.7,679.4,141.3z M226.2,91.9
	C216.9,35,273.7,15.4,312.9,49c23.3,20,35.9,53.6,37.8,83.9c0.5,7.9,6.5,15.4,14.9,14.9c84.9-4.2,161.8-50.4,247.6-42
	c4.7,0.5,50.8,3.7,46.6,21.4c-2.3,10.7-11.7,21.9-17.3,31.2c-12.6,21-21.4,42.9-28.4,66.2c-16.8,55.9-14.5,116.6-88.1,112.8
	c-87.7-4.7-160.9-65.3-249-71.3c-5.6-0.5-8.9,4.7-8.9,9.3c-5.1,0.9-9.8,3.7-12.1,9.3c-27,65.7-154.3,54.5-118.9-21.9
	c14.5-31.2,36.4-60.6,55.5-89.1C209.9,149.2,231.3,123.1,226.2,91.9z M282.1,298.4c-4.2,71.8-76.9,84.9-139.4,81.6
	c-5.1-13.1-10.3-25.6-14.9-38.7C183.8,376.3,253.7,357.6,282.1,298.4z M77.9,118.9c11.2,6.5,21.9,13.1,32.2,20.5
	C91.9,182.3,77,226.6,63.9,270.9C59.3,219.2,51.8,168.3,77.9,118.9z M81.7,437.8c-1.4,19.6-2.8,49.4,10.7,55
	c19.6,7.9,42.4,7.5,62.9,7.5c3.3,0,7.9-2.8,8.4-6.5c0.9-5.6,3.3-38.7,16.3-28.4c9.8,7.5,16.3,20,22.4,30.3c5.6,8.9,19.1,0.9,14-8.4
	c-9.3-16.8-21.9-40.6-43.4-42.9c-17.3-1.9-22.8,23.3-25.2,38.2c-10.7,0-21.9-0.5-32.6-1.4c-14.9-1.4-14.5-2.8-17.7-16.3
	c-2.3-10.7-3.3-21.4-4.2-32.2c92.3,6.5,185.1,10.7,277.4,18.6c8.9,0.9,18.6,2.3,28,3.7c-0.5,0-0.5,0-0.9,0.5
	c-22.4,8.4-21.4,26.6-50.4,28.9c-42,3.3-80.7,9.3-122.6,1.9c-7-1.4-9.8,8.9-2.8,10.3c9.8,2.3,20,3.7,29.8,4.7
	c-9.3,2.8-18.6,6.5-28,11.7c-28,14.5-53.6,31.2-83.9,40.6c-38.7,12.1-82.5-12.1-85.3-57.8C52.7,475.6,67.2,453.7,81.7,437.8z
	 M442.5,496.6c1.9,1.9,3.7,2.3,5.6,1.9c52.7,2.8,112.8,21,166,8.4c-56.9,77.4-191.6,15.4-275.5-5.1c13.5-0.5,27-1.4,40.6-1.4
	c2.8,0,6.1-1.4,7.5-4.2C402,467.2,424.3,474.2,442.5,496.6z M330.2,547.9c-43.4-9.3-78.3,0.9-119.8,15.9
	c-56.9,20.5-123.6,44.3-145.9-8.4c2.8,2.8,6.1,5.6,9.8,8.4c65.3,49.9,142.7-43.4,204.7-49c91.4-8.4,291.4,120.8,352,3.7
	C614.6,655.1,416.9,566.5,330.2,547.9z M608.5,490.5c-49.9,11.2-105.8-3.3-156.7-4.7c-2.8-8.9-7.5-16.3-14-22.4
	c47.1,9.8,97.4,20.5,139.9,10.7c48.5-11.2,83-77.4,109.1-114.2c0.5-0.5,0.5-0.9,0.9-0.9C670.5,408.5,654.7,479.8,608.5,490.5z
	 M613.6,419.2c-37.8,46.2-81.1,34.5-133.3,24.2C339,415.5,192.2,419.2,49,407.1c16.8-55.5,31.7-111.4,48.5-166.9
	c10.7-34.5,22.8-68.5,37.3-102.1c14.5-34,28.4-46.6,61.5-30.3c-0.9,6.1-3.3,13.1-7.5,20.5c-12.6,23.3-29.8,43.4-43.4,65.7
	c-19.1,31.2-62.9,87.2-41,125.4c0.5,25.2,12.1,50.4,21,73.2c1.9,4.7,5.1,7.5,10.3,7.9c59.2,5.1,141.7-9.3,161.8-65.7
	c104.9,44.3,248,162.2,341.8,33.1c18.6-25.6,45.2-71.8,60.6-118.9C719,301.7,641.1,385.6,613.6,419.2z"/>
</svg>
