<?xml version="1.0" encoding="utf-8"?>
<!-- Generator: Adobe Illustrator 18.1.1, SVG Export Plug-In . SVG Version: 6.00 Build 0)  -->
<svg version="1.1" id="Layer_1" xmlns="http://www.w3.org/2000/svg" xmlns:xlink="http://www.w3.org/1999/xlink" x="0px" y="0px"
	 viewBox="0 0 529.3 109.5" enable-background="new 0 0 529.3 109.5" xml:space="preserve">
<rect x="0" y="32.7" fill="none" width="264.8" height="63.1"/>
<text transform="matrix(1 0 0 1 -6.601210e-04 88.1507)" fill="#999999" font-family="'Helvetica-Light'" font-size="76.9939">side by </text>
<rect x="382.8" y="32.7" fill="none" width="146.5" height="63.1"/>
<text transform="matrix(1 0 0 1 382.8304 88.1507)" fill="#999999" font-family="'Helvetica-Light'" font-size="76.9939">side</text>
<g>
	<rect x="316.9" y="8.5" fill="#AE1F24" width="8.6" height="83.1"/>
	<rect x="328.6" y="38.3" fill="#AE1F24" width="8.6" height="53.3"/>
	<rect x="282.6" y="55.2" fill="#AE1F24" width="8.6" height="36.3"/>
	<rect x="293.8" y="68.2" fill="#AE1F24" width="8.6" height="23.4"/>
	<rect x="351.8" y="55.2" fill="#AE1F24" width="8.6" height="36.3"/>
	<path fill="#AE1F24" d="M309.6,36.1l-0.1,11.3c0,0,0,0,0,0c0,0.2-0.2,0.4-0.4,0.4c-0.2,0-0.4-0.2-0.4-0.4c0,0,0,0,0,0l-0.2-11.4
		c0-0.9-0.5-1.1-0.5-1.1c-0.6,0.2-0.5,1.1-0.5,1.1L307,47.5c0,0,0,0,0,0c0,0,0,0,0,0c0,0.1-0.1,0.2-0.2,0.3c0,0-0.1,0.1-0.1,0.1
		c0,0,0,0,0,0c-0.2,0-0.3-0.1-0.3-0.3c0,0,0,0,0,0l0.3-11.4c-0.4-2-1-0.1-1-0.1l-0.6,5.4l-0.8,8.5c0,0.4-0.1,1,0,1.5
		c0,0.3,0.1,0.6,0.3,0.9c0.3,0.4,0.7,0.6,1.1,0.9c0,0,1.1,0.8,1.1,0.8c1,0.7,0.8,1.6,0.8,1.6l-1.2,35.4c0,0,0,0,0,0
		c0,0.3,1,0.6,2.3,0.6c1.3,0,2.3-0.3,2.3-0.6c0,0,0,0,0,0l-0.8-35.4c0.2-1.3,1.3-1.8,1.3-1.8l0.7-0.4c1.2-0.6,1.3-1.7,1.3-1.7
		c0-0.5,0-1,0-1.6c0-0.9-0.1-1.8-0.1-2.8c-0.1-1.1-0.1-2.2-0.2-3.4c-0.1-1.2-0.2-2.4-0.2-3.6c-0.1-1-0.1-1.9-0.2-2.9
		c0-0.4-0.1-0.8-0.1-1.2c-0.7-2.1-1.1,0.1-1.1,0.1l0.2,11.3c0,0,0,0,0,0c0,0.2-0.2,0.4-0.4,0.4c-0.2,0-0.4-0.2-0.4-0.4c0,0,0,0,0,0
		c0,0,0,0,0,0l-0.2-11.3C310.1,33.5,309.6,36.1,309.6,36.1z"/>
	<path fill="#AE1F24" d="M340.9,25c0,0-0.1-2.2,0.9-1.6c0,0,6.1,3.3,6.9,11.1v17.7c0,0,0,0.7-0.4,1.2l-1.9,2.5c0,0-0.4,0.2-0.4,2
		l0.4,21.8l0.1,11.2h0c0,0.3-1,0.6-2.3,0.6c-1.3,0-2.3-0.3-2.3-0.6c0,0,0,0,0,0l1.2-33c0,0-0.1-1.9-0.5-2.1l-1.7-2.1
		c0,0-0.6-0.4-0.6-1.3L340.9,25z"/>
</g>
</svg>
