<?xml version="1.0" encoding="utf-8"?>
<!-- Generator: Adobe Illustrator 18.1.1, SVG Export Plug-In . SVG Version: 6.00 Build 0)  -->
<svg version="1.1" id="Layer_1" xmlns="http://www.w3.org/2000/svg" xmlns:xlink="http://www.w3.org/1999/xlink" x="0px" y="0px"
	 viewBox="0 189 792 222" enable-background="new 0 189 792 222" xml:space="preserve">
<rect y="273" fill="none" width="396.2" height="94.4"/>
<text transform="matrix(1 0 0 1 -1.071963e-03 355.9784)" fill="#FFFFFF" font-family="'Helvetica-Light'" font-size="115.2072">side by </text>
<rect x="572.8" y="273" fill="none" width="219.2" height="94.4"/>
<text transform="matrix(1 0 0 1 572.8361 355.9784)" fill="#FFFFFF" font-family="'Helvetica-Light'" font-size="115.2072">side</text>
<g>
	<rect x="474.2" y="236.8" fill="#FFFFFF" width="12.9" height="124.3"/>
	<rect x="491.7" y="281.4" fill="#FFFFFF" width="12.9" height="79.8"/>
	<rect x="422.9" y="306.7" fill="#FFFFFF" width="12.9" height="54.3"/>
	<rect x="439.6" y="326.1" fill="#FFFFFF" width="12.9" height="35"/>
	<rect x="526.4" y="306.7" fill="#FFFFFF" width="12.9" height="54.3"/>
	<path fill="#FFFFFF" d="M463.3,278.1l-0.1,16.9l0,0c0,0.3-0.3,0.6-0.6,0.6c-0.3,0-0.6-0.3-0.6-0.6l0,0l-0.3-17.1
		c0-1.3-0.7-1.6-0.7-1.6c-0.9,0.3-0.7,1.6-0.7,1.6l-0.7,17.2l0,0l0,0c0,0.1-0.1,0.3-0.3,0.4l-0.1,0.1l0,0c-0.3,0-0.4-0.1-0.4-0.4
		l0,0l0.4-17.1c-0.6-3-1.5-0.1-1.5-0.1l-0.9,8.1l-1.2,12.7c0,0.6-0.1,1.5,0,2.2c0,0.4,0.1,0.9,0.4,1.3c0.4,0.6,1,0.9,1.6,1.3
		l1.6,1.2c1.5,1,1.2,2.4,1.2,2.4l-1.8,53l0,0c0,0.4,1.5,0.9,3.4,0.9s3.4-0.4,3.4-0.9l0,0l-1.2-53c0.3-1.9,1.9-2.7,1.9-2.7l1-0.6
		c1.8-0.9,1.9-2.5,1.9-2.5c0-0.7,0-1.5,0-2.4c0-1.3-0.1-2.7-0.1-4.2c-0.1-1.6-0.1-3.3-0.3-5.1c-0.1-1.8-0.3-3.6-0.3-5.4
		c-0.1-1.5-0.1-2.8-0.3-4.3c0-0.6-0.1-1.2-0.1-1.8c-1-3.1-1.6,0.1-1.6,0.1l0.3,16.9l0,0c0,0.3-0.3,0.6-0.6,0.6
		c-0.3,0-0.6-0.3-0.6-0.6l0,0l0,0l-0.3-16.9C464,274.2,463.3,278.1,463.3,278.1z"/>
	<path fill="#FFFFFF" d="M510.1,261.5c0,0-0.1-3.3,1.3-2.4c0,0,9.1,4.9,10.3,16.6v26.5c0,0,0,1-0.6,1.8l-2.8,3.7c0,0-0.6,0.3-0.6,3
		l0.6,32.6l0.1,16.8l0,0c0,0.4-1.5,0.9-3.4,0.9s-3.4-0.4-3.4-0.9l0,0l1.8-49.4c0,0-0.1-2.8-0.7-3.1l-2.5-3.1c0,0-0.9-0.6-0.9-1.9
		L510.1,261.5z"/>
</g>
</svg>
