<?xml version="1.0" encoding="utf-8"?>
<!-- Generator: Adobe Illustrator 18.1.1, SVG Export Plug-In . SVG Version: 6.00 Build 0)  -->
<svg version="1.1" id="Capa_1" xmlns="http://www.w3.org/2000/svg" xmlns:xlink="http://www.w3.org/1999/xlink" x="0px" y="0px"
	 viewBox="0 0 792 612" enable-background="new 0 0 792 612" xml:space="preserve">
<g>
	<path d="M312.7,555.2l-3-8.2l-25-346.2c0-0.2,0-0.3-0.1-0.5v-52.5c6.5-1.7,11.1-7.7,11.1-14.5c0-8.3-6.7-15-15-15s-15,6.7-15,15
		c0,6.8,4.6,12.7,11.1,14.5l0,53.6l-16.5,104.8l-22.7-159.4c0-0.2-0.1-0.4-0.1-0.6V92.5c6.5-1.7,11.1-7.7,11.1-14.5
		c0-8.3-6.7-15-15-15c-8.3,0-15,6.7-15,15c0,6.8,4.6,12.7,11.1,14.5v54.7c0,0.3,0,0.6,0.1,0.9l-10.2,126.1l-28.1-13
		c-0.1-0.1-0.3-0.1-0.6-0.2l-0.3-0.1c-0.1,0-0.3,0-0.4,0l-1,0.1c-0.2,0-0.3,0.1-0.3,0.1L161.1,274l-8.7-126.8V92.5
		c6.5-1.7,11.1-7.7,11.1-14.5c0-8.3-6.7-15-15-15c-8.3,0-15,6.7-15,15c0,6.8,4.6,12.7,11.1,14.5l0,54.4L122,306.1l-16.6-105.5
		c0-0.1,0-0.3-0.1-0.4v-52.4c6.5-1.7,11.1-7.7,11.1-14.5c0-8.3-6.7-15-15-15c-8.3,0-15,6.7-15,15c0,6.8,4.6,12.7,11.1,14.5l0,54.6
		L72.6,547l-3,8.2c-0.1,0.4-0.2,0.9-0.2,1.3v42.7l0,0.4l1.3,0l0,0l-1.3,0.4c0,0.1,0.1,0.3,0.2,0.6c0.1,0.2,0.1,0.3,0.2,0.5l0.2,0.3
		c0.1,0.2,0.2,0.3,0.2,0.3l0.3,0.3c0.1,0.1,0.2,0.2,0.6,0.5c0.2,0.1,0.3,0.2,0.3,0.2l0.4,0.2c0.2,0.1,0.5,0.2,0.7,0.2
		c0.3,0.1,0.5,0.1,0.9,0.1H163c2.2,0,3.9-1.8,3.9-4.2V562c0-4.2,3.4-7.6,7.6-7.6c4.2,0,7.6,3.4,7.6,7.6v37.2c0,2.1,1.8,3.9,3.9,3.9
		h10.3c2.1,0,3.9-1.8,3.9-3.9V562c0-4.2,3.4-7.6,7.6-7.6c3.3,0,6.3,2.2,7.3,5.4l0.3,39.4l0.1,0.7c0,0.2,0.1,0.3,0.1,0.4l0.1,0.3
		l1.2-0.5l-1,1l0.3,0.4l1.5,1.2c0.1,0.1,0.3,0.1,0.4,0.1l0.4,0.1c0.3,0.1,0.5,0.1,0.8,0.1h89.7c0.3,0,0.5,0,0.8-0.1
		c0.3-0.1,0.5-0.1,0.9-0.3c0.2-0.1,0.3-0.2,0.7-0.4c0.1-0.1,0.3-0.2,0.1-0.1l0.3-0.3l0.8-1.4l0.2-43.9
		C313,556,312.9,555.6,312.7,555.2z M218.7,282.4l-1,10.9L194,281.7V271L218.7,282.4z M233.7,70.8c4,0,7.2,3.2,7.2,7.2
		s-3.2,7.2-7.2,7.2c-4,0-7.2-3.2-7.2-7.2S229.8,70.8,233.7,70.8z M280.8,126.1c4,0,7.2,3.2,7.2,7.2s-3.2,7.2-7.2,7.2
		c-4,0-7.2-3.2-7.2-7.2C273.6,129.3,276.8,126.1,280.8,126.1z M256.5,332.4c0.2,2,1.9,3.5,3.9,3.5c2,0,3.7-1.5,3.9-3.4l15.5-96.6
		l11.4,159c-2.4-5.2-7.6-8.8-13.7-8.8c-8.3,0-15,6.7-15,15c0,6.8,4.6,12.7,11.1,14.5v53.7l-27,48.8L222,449.8l-0.6-68.1l13.8-197.9
		L256.5,332.4z M277.4,393.8c4,0,7.2,3.2,7.2,7.2c0,4-3.2,7.2-7.2,7.2c-4,0-7.2-3.2-7.2-7.2C270.2,397,273.5,393.8,277.4,393.8z
		 M281.4,469.5v-54c5.1-1.4,9.1-5.4,10.5-10.4l8.3,115.8L281.4,469.5z M249.7,528.5l27-48.9l28.4,77.6v38.1h-55.4V528.5L249.7,528.5
		z M198.6,385.1l15.1,9.1l0.3,33.5L198.6,385.1z M183.8,385.1l-17.2,47.7l-0.1-37.2L183.8,385.1z M191.2,302.3c4,0,7.2,3.2,7.2,7.2
		c0,4-3.2,7.2-7.2,7.2c-4,0-7.2-3.2-7.2-7.2C184,305.5,187.2,302.3,191.2,302.3z M213.6,381.6l0,3.4l-18.5-11.2V324
		c6.5-1.7,11.1-7.7,11.1-14.5c0-8.3-6.7-15-15-15c-8.3,0-15,6.7-15,15c0,6.8,4.6,12.7,11.1,14.5v49.9l-20.9,12.6l-4-84.5l27.7-13.5
		l27.9,13.6L213.6,381.6z M207.8,546.6c-8.5,0-15.4,6.9-15.4,15.4v33.3H190V562c0-8.5-6.9-15.4-15.4-15.4c-8.5,0-15.4,6.9-15.4,15.4
		v33.3h-18.7v-67.2l50.8-140.6l50.8,140.6v67.2h-18.7V562C223.3,553.5,216.3,546.6,207.8,546.6z M161.6,282.4l24.7-11.4v10.7
		l-23.7,11.5L161.6,282.4z M101.4,126.1c4,0,7.2,3.2,7.2,7.2s-3.2,7.2-7.2,7.2c-4,0-7.2-3.2-7.2-7.2
		C94.2,129.3,97.4,126.1,101.4,126.1z M104.9,393.8c4,0,7.2,3.2,7.2,7.2c0,4-3.2,7.2-7.2,7.2s-7.2-3.2-7.2-7.2
		C97.7,397,100.9,393.8,104.9,393.8z M101,415.5v54L82.1,521l8.3-115.8C91.9,410.1,95.9,414.1,101,415.5z M108.8,415.5
		c6.5-1.7,11.1-7.7,11.1-14.5c0-8.3-6.7-15-15-15c-6.1,0-11.3,3.6-13.7,8.8l11.4-159l15.5,96.5c0.2,2,1.9,3.5,3.9,3.5
		c2,0,3.7-1.5,3.9-3.4L147,185.7l6.5,93.9c0,0.2,0,0.5,0,0.7l5.1,107.1l0.1,66.8l-23,63.8l-27-48.8L108.8,415.5L108.8,415.5
		L108.8,415.5L108.8,415.5z M148.5,70.8c4,0,7.2,3.2,7.2,7.2s-3.2,7.2-7.2,7.2c-4,0-7.2-3.2-7.2-7.2S144.5,70.8,148.5,70.8z
		 M132.6,528.5v66.9H77.2v-38.1l28.4-77.6L132.6,528.5z M190.6,262.4L190.6,262.4L190.6,262.4L190.6,262.4z"/>
</g>
<g>
	<path d="M346.2,193.1c27.2-1.8,51.6,13.4,78.2,6.5c4.3-1.1,26.6,12.6,6.6,27.5c-9.2,6.8-11,15.4-12.9,26.7
		c-3.2,18.6,10.5,45-20.4,53.8c-6.1,1.7-0.3,6.8,1.3,9.8c7.2,13.6,6.2,26.2,5.2,41.9c-1.1,18.5-5.3,33.8-11.2,50.3
		c-2,5.7-2.3,18.2,7.1,18.3c27.4,0.3,33,21.3,43.5,39.5c7.2,12.5,19.1,28.3,34.4,13c21.8-21.7,45.9-34.8,75.7-27.5
		c50,12.2,65.5-42,103.9-50.9c-10.6-31,52.6-47.9,15.6-85c-7.6-7.7,0.9-21,7-29.2c20.1-26.9,27.9-65,69.9-72.5
		c11.7-2.1,21-16.8,32-24.8c10.9-7.9,9.2-18.9,7-28.9c-3.2-14.7-14-6-22.5-6.2c-17.3-0.2-35.5,4-50.7-10.4c-4.2-4-15.5-5.4-20.6-2.6
		c-26.8,14.9-49.4-1.6-71.4-10.5c-10.5-4.2-19.8-7.6-31.2-9.9c-43.8-8.6-88.2-2.2-132.4-6.9c-34.7-3.7-68.9-14.7-104.9-12.9
		c-21.4,1-23.3,8.4-23.4,26.1C331.8,152.1,354.2,169.8,346.2,193.1z"/>
</g>
</svg>
