<?xml version="1.0" encoding="utf-8"?>
<!-- Generator: Adobe Illustrator 18.1.1, SVG Export Plug-In . SVG Version: 6.00 Build 0)  -->
<svg version="1.1" id="Capa_1" xmlns="http://www.w3.org/2000/svg" xmlns:xlink="http://www.w3.org/1999/xlink" x="0px" y="0px"
	 viewBox="0 0 792 612" enable-background="new 0 0 792 612" xml:space="preserve">
<g>
	<g>
		<path d="M484.1,402.8c-24.3,25.3-56.5,40.8-91.9,40.8c-36.3,0-69.3-16.4-93.8-42.8C204.7,431,188.1,505,188.1,533
			c0,35.5,0,79,0,79H586c0,0,0-21.6,0-58.8C586,523.9,575.6,437.9,484.1,402.8z"/>
		<path d="M287.7,179.9v94.2c0,6.1,4,11.1,9.5,13c0,0.3-0.1,0.6-0.1,0.9c0,49.1,25.9,90.9,62.2,107c0.3,0.2,0.6,0.3,0.9,0.4
			c2.9,1.2,5.8,2.3,8.8,3.2c0.6,0.2,1.2,0.4,1.8,0.6c2.8,0.7,5.5,1.3,8.4,1.8c0.8,0.1,1.6,0.3,2.3,0.4c3.5,0.5,7.1,0.8,10.7,0.8
			c3.6,0,7.1-0.3,10.6-0.7c0.7-0.1,1.5-0.3,2.1-0.4c2.9-0.5,5.7-1,8.5-1.8c0.5-0.2,1-0.3,1.5-0.5c3.1-0.9,6.1-2,9-3.2
			c0.2-0.1,0.4-0.2,0.6-0.3c36.6-15.9,62.9-57.8,62.9-107.3c0-0.1,0-0.3,0-0.4c6.7-1,12-6.5,12-13.5V172.7
			c16.8-8.4,30.9-20,39.3-35.9c17.4-32.6,18.7-64.2,3.8-88.9C527.7,23.3,498.7,9.1,463,9.1c-25.5,0-48.4,11.2-67.1,25.4
			C379.3,16,347-0.9,312.6,0c-22.3,0.6-53.8,8.8-77.8,44.9c-12.4,18.5-16.2,38.1-11.3,58.3C232.7,141.2,271.4,169.5,287.7,179.9z
			 M257.8,60.3c14-21,32.6-31.9,55.4-32.5c24.8-0.6,49.9,11.8,61.9,25.1c-18.9,19.2-30.4,37.7-31.4,39.4c-4,6.5-1.9,15.1,4.7,19.1
			c6.6,4,15.1,1.9,19.1-4.7c0.4-0.7,43.1-69.7,95.5-69.7c25.7,0,45.9,9.2,55.6,25.3c9.6,16,8,37.9-4.6,61.6
			c-23,43.3-121.3,45.1-157.3,42.1c-7.6-0.7-14.4,5.1-15,12.7c-0.7,7.7,5,14.4,12.7,15c1.5,0.1,12,1,27.4,1
			c23.4,0,58.1-1.9,89.7-11.2v76.7H315.5v-88.1c0-5.1-2.8-9.7-7.2-12.2c-0.5-0.2-49.2-27.8-57.9-63.4
			C247.5,84.1,249.9,72.3,257.8,60.3z"/>
	</g>
</g>
</svg>
