<?xml version="1.0" encoding="utf-8"?>
<!-- Generator: Adobe Illustrator 18.1.1, SVG Export Plug-In . SVG Version: 6.00 Build 0)  -->
<svg version="1.1" id="Capa_1" xmlns="http://www.w3.org/2000/svg" xmlns:xlink="http://www.w3.org/1999/xlink" x="0px" y="0px"
	 viewBox="0 0 792 612" enable-background="new 0 0 792 612" xml:space="preserve">
<g>
	<g>
		<g id="Layer_5_42_">
			<g>
				<path d="M2,508.6c0,7.8,6.1,14.3,13.9,14.7l762.8,9.1c7.8,0,14.3-4.3,14.7-10c0-5.6-6.1-10.4-14.3-10.4l-762.4-23
					C9,488.7,2.5,495.2,2,503L2,508.6z"/>
				<g>
					<path d="M608.8,549.4c7.8,0,20.4,2.2,28.2,4.8l102.3,34.7c7.4,2.6,12.1,9.1,10.4,14.3c-1.7,5.2-9.1,7.8-16.9,5.2l-173.4-55
						c-7.4-2.6-7.4-4.3,0.9-4.3L608.8,549.4z"/>
					<path d="M409.5,477.4c7.4,2.6,6.9,4.3-0.9,4.3l-67.6-2.2c-7.8-0.4-20.4-2.2-28.2-4.8L5.5,377.3c-7.4-2.6-11.7-10.4-9.1-18.2
						l1.7-5.6c2.6-7.4,10.4-11.7,18.2-9.1L409.5,477.4z"/>
				</g>
				<path d="M370,101.2c8.7,5.2,9.1,13.4,0.4,19.1l-59.8,38.1c-8.7,5.6-22.5,5.6-31.2,0l-59.8-38.1c-8.7-5.6-8.2-13.9,0.4-19.1
					L279,67.8c8.7-5.2,23.4-5.2,32.1,0L370,101.2z"/>
				<path d="M791.3,212.6c-2.2-7.8-8.2-15.2-17.3-19.9l-123.1-69.3c-10-5.6-23.4-9.1-37.7-9.1c-14.3,0-27.7,3-37.7,9.1l-123.1,69.3
					c-13.4,5.2-23.4,18.6-23.4,33.8V360c0,22.5,23,36.4,26.4,38.6l125.3,79.8c17.8,11.3,47.2,11.3,65.4,0l125.3-79.8
					c5.2-3.5,8.7-7.4,10.8-11.3c7.4-6.5,12.1-16.5,12.1-27.3V226.5C793.9,221.3,793,216.9,791.3,212.6z M583.3,137.2
					c7.8-4.3,18.2-6.9,29.5-6.9c11.3,0,22.1,2.6,29.5,6.9l123.1,69.3c6.1,3.5,10,8.2,10,12.6s-3.5,9.1-9.1,13l-125.3,79.8
					c-7.4,4.8-17.3,7.4-28.2,7.4s-20.8-2.6-28.2-7.4l-124.8-79.3c-6.1-3.9-9.5-8.7-9.1-13c0-4.3,3.9-9.1,10-12.6L583.3,137.2z"/>
				<path d="M687.7,213c8.7,5.2,9.1,13.4,0.4,19.1l-59.8,38.1c-8.7,5.6-22.5,5.6-31.2,0l-59.8-38.1c-8.7-5.6-8.2-13.9,0.4-19.1
					l58.9-33.4c8.7-5.2,23.4-5.2,32.1,0L687.7,213z"/>
				<path d="M398.6,216.1c0-20.4,12.6-38.6,31.2-46.4l42.9-24.3c0,0,3.5-1.3,3.5-6.1c0-6.1,0-24.7,0-24.7c0-4.8-0.9-9.5-2.6-13.9
					c-2.2-7.8-8.2-15.2-17.3-19.9L333.2,11.5c-10-5.6-23.4-9.1-37.7-9.1s-27.7,3-37.7,9.1L134.7,80.8c-13.4,5.2-23.4,18.6-23.4,33.8
					v133.5c0,22.1,23,36.4,26.4,38.6L263,366.5c17.8,11.3,47.2,11.3,65.4,0l68-43.3c0,0,2.6-1.3,2.6-6.1
					C398.6,291.5,398.6,216.1,398.6,216.1z M295,207.8c-10.8,0-20.8-2.6-28.2-7.4l-125.3-79.8c-6.1-3.9-9.5-8.7-9.1-13
					c0-4.3,3.9-9.1,10-12.6l123.1-69.3c7.8-4.3,18.2-6.9,29.5-6.9c11.3,0,22.1,2.6,29.5,6.9l123.1,69.3c6.1,3.5,10,8.2,10,12.6
					c0,4.3-3.5,9.1-9.1,13l-125.3,79.8C316.3,205.2,305.9,207.8,295,207.8z"/>
			</g>
		</g>
	</g>
</g>
</svg>
