<?xml version="1.0" encoding="utf-8"?>
<!-- Generator: Adobe Illustrator 18.1.1, SVG Export Plug-In . SVG Version: 6.00 Build 0)  -->
<svg version="1.1" id="Capa_1" xmlns="http://www.w3.org/2000/svg" xmlns:xlink="http://www.w3.org/1999/xlink" x="0px" y="0px"
	 viewBox="0 0 792 612" enable-background="new 0 0 792 612" xml:space="preserve">
<g>
	<path d="M667.1,587.7c13.3-0.1,28.1-18.1,36.9-33.9c26-3.6,63.9-34.8,64.2-70.1c0.1-13.4-5.5-20.2-10.1-23.7
		c-9.2-6.9-21.9-5.5-31.2-3.3c0.3-7.3,0.3-13.8,0-18.9c-11.9,0-27.8,0-43.9,0c-1.8-19.2-4.4-44-7.1-60.6
		c-5.1-30.5-24.5-51.9-39.4-68.6c-9.1-10.3-19.5-15.5-26.2-18c3-4,4.9-6.5,4.9-6.5s-3.9-30.4-51.6-47.9
		c-47.9-17.4-111.6,28.9-111.6,28.9s16.4-58.1-62-129.6l8.3-18.3c13.4,2,27.5-3.1,36.3-14.7c12.7-16.9,9.4-41-7.6-53.8
		c-16.9-12.7-41-9.4-53.7,7.6c-8.6,11.4-9.7,26-4.5,38.2l-15,12.1c-49.3-34.4-87.9-42.2-117.3-39.3C222.5,32.1,199.7-5,165.6,1
		C120.7,8.8,65.2,61.4,66.9,109.1c0.7,20.5,12.8,35.6,27.2,46.4c9.6,7.3,20.2,12.5,29.2,16.2c-9.7,30-9.7,62.7,15.2,87l-7.6,10.1
		L303.6,399l7.6-10c52.5,19,109.4-35.6,145.7-60.4c36.7-25.1,86.1-71.9,134-12.1c2.7-3.5,5.1-6.8,7.4-9.8
		c8.2,15.4,26.3,54.7,18.1,87.7c-4.2,16.9-8.7,31.7-12.6,43.5c-19.1,0-54.6,0-80.2,0c-1.9,34.4,11.3,145.5,61.6,149.8
		c0,2.5,0,4.4,0,5.8H488V612h280.3v-18.5H667.1C667.1,592.2,667.1,590.2,667.1,587.7z M725.4,477.1c11-3.3,18.2-3.9,21.3-1.6
		c2,1.5,2.4,5.2,2.3,8.1c-0.1,19.6-18.7,38.2-34.7,46.7C720.3,512.8,723.7,493.9,725.4,477.1z M134.3,145.6
		c-17-7-38.2-19.7-38.9-37.4c-1.1-31.6,43.2-73.5,75.2-79.1c2.5-0.4,6.6-0.4,12.8,5c9.5,8.2,17.9,23.5,24.7,40.2
		c-15.4,5.9-26.9,14.1-34.8,19.8C163.6,101,146.9,120.9,134.3,145.6z M274.6,99.4c-5.7,2.2-13.6,6-22.6,11.2
		c-17.8,10.3-40.3,26.6-54.2,47.6c-3,4.8-7.4,11.9-10,17.1c-2.9,5.9-5.9,11.7-8.5,17.5c-4.9,11.6-8.9,22.7-11.4,32.6
		c-2.3,9.8-3.2,18.2-2.6,24.2c0.5,5.9,2.6,9.2,2.6,9.2s-0.7-0.5-2.1-1.6c-1.3-1.1-3.3-3.1-4.8-6.1c-3.4-5.9-6.1-15.5-6.3-26.9
		c-0.3-11.4,1.4-24.8,5.6-38.3c2-6.8,4.5-13.6,7.8-20.4c3.7-7.3,6.2-12.7,11-19.8c9-13.2,20.9-23.7,33-31.3
		c12.1-7.6,24.3-12.6,35.2-15.5c10.8-3,20.1-4,26.7-3.7c6.7,0,10.3,2.3,10,2.5C283.9,97.2,280.4,97.1,274.6,99.4z M560.3,543.3
		c-10.9-25.3-18.8-93.7-18.8-93.7s22.2,61.5,27.2,78.5c5,17.1,27.1,41.2,27.1,41.2S571.3,568.5,560.3,543.3z"/>
</g>
</svg>
