<?xml version="1.0" encoding="utf-8"?>
<!-- Generator: Adobe Illustrator 18.1.1, SVG Export Plug-In . SVG Version: 6.00 Build 0)  -->
<svg version="1.1" id="Capa_1" xmlns="http://www.w3.org/2000/svg" xmlns:xlink="http://www.w3.org/1999/xlink" x="0px" y="0px"
	 viewBox="0 0 792 612" enable-background="new 0 0 792 612" xml:space="preserve">
<g>
	<g id="Layer_2_1_">
		<path d="M772.3,227.9c0-18.7-38.7-35.2-97.5-44.8l-14.9,11.2c37.2,6.1,60.8,15.3,60.8,25.6c0,4.2-4,8.3-11.3,12
			c-24.4,12.5-85.4,21.3-156.9,21.3s-132.6-8.8-156.9-21.3c-7.3-3.7-11.3-7.8-11.3-12c0-8.5,16.3-16.3,43-22.2l-11.7-12
			c-50.5,9.9-82.8,25.1-82.8,42.2c0,1.4,0.3,2.7,0.7,4h-0.7l1,1.2c1.6,4.1,5.2,8.2,10.4,12l64.7,74.3h-3c-9.6,0-17.3,7.7-17.3,17.3
			v1.8c0,9.6,7.7,17.3,17.3,17.3h300.6c9.6,0,17.3-7.7,17.3-17.3v-1.8c0-9.6-7.7-17.3-17.3-17.3h-10.3l64.7-74.3
			c5.2-3.8,8.8-7.8,10.4-12l1.1-1.2h-0.7C772,230.6,772.3,229.3,772.3,227.9z"/>
		<path d="M610.1,188.6L612,212l27.4-20.6l15-11.3l109.3-82.3l-168.3-86l2.9,34.5l71.8,16.4c2.5,0.6,4.5,2.4,5.3,4.9
			c0.8,2.4,0.2,5.1-1.4,7l-67,76.6l2.1,24.7L610.1,188.6z M705.5,78.9c6,0,10.9,4.9,10.9,10.9s-4.9,10.9-10.9,10.9
			s-10.9-4.9-10.9-10.9C694.5,83.8,699.4,78.9,705.5,78.9z M687.2,115.4c8.1,0,14.6,6.5,14.6,14.6s-6.5,14.6-14.6,14.6
			s-14.6-6.5-14.6-14.6S679.2,115.4,687.2,115.4z"/>
		<path d="M510.8,187.7l13.2,36.1l32.5-37.1l11-12.5l24.5-28l6.7-7.6l6.7-7.6L655,74.3l-55.4-12.6l-7.5-1.7l-7.5-1.7l-60.6-14
			l-28.7,101.1l10.9,29.8L510.8,187.7z M584.3,72.2c0.4-0.4,0.9-0.7,1.4-1c2.1-1.6,4.6-2.5,7.1-2.7s5.1,0.1,7.4,1.2
			c1.7,0.8,3.3,1.9,4.7,3.4c5.5,5.9,5.1,15.1-0.8,20.6c-0.6,0.5-1.2,0.9-1.8,1.3c-2.2,1.5-4.6,2.3-7.1,2.4c-2.5,0.2-5.1-0.3-7.4-1.4
			c-1.6-0.8-3-1.8-4.3-3.2C578,86.9,578.4,77.6,584.3,72.2z M545,88.6c4.4-4.1,11.4-3.8,15.5,0.6s3.8,11.4-0.6,15.5
			c-4.4,4.1-11.4,3.8-15.5-0.6C540.3,99.7,540.5,92.7,545,88.6z"/>
		<path d="M503.3,39.6L461.1,52l-7,2.1l-7,2.1L339.5,87.7l93.3,94.9l11.5,11.7l17,17.3l5.8-20.5l3.8-13.4l9-31.9l3.4-11.9l3.4-11.9
			l23-81l1-3.7L503.3,39.6z M398.4,100.4c-5.4,0-9.8-4.4-9.8-9.8s4.4-9.8,9.8-9.8s9.8,4.4,9.8,9.8C408.2,96,403.8,100.4,398.4,100.4
			z M427.8,133.1c-7.2,0-13.1-5.9-13.1-13.1s5.9-13.1,13.1-13.1s13.1,5.9,13.1,13.1C440.9,127.3,435,133.1,427.8,133.1z"/>
	</g>
</g>
<g id="EBi00M.tif">
	
		<image overflow="visible" enable-background="new    " width="298" height="275" id="Layer_0_1_" xlink:href="65B241634D37010A.png"  transform="matrix(1.2267 0 0 1.2267 0 268.9553)">
	</image>
</g>
</svg>
