<?xml version="1.0" encoding="utf-8"?>
<!-- Generator: Adobe Illustrator 18.1.1, SVG Export Plug-In . SVG Version: 6.00 Build 0)  -->
<svg version="1.1" id="Capa_1" xmlns="http://www.w3.org/2000/svg" xmlns:xlink="http://www.w3.org/1999/xlink" x="0px" y="0px"
	 viewBox="-190 102.8 409.2 409.2" enable-background="new -190 102.8 409.2 409.2" xml:space="preserve">
<g>
	<g>
		<path fill="#FFFFFF" d="M14.6,319.5c50.7,0,91.7-48.1,91.7-107.4c0-82.2-41.1-107.4-91.7-107.4c-50.7,0-91.7,25.1-91.7,107.4
			C-77.2,271.4-36.1,319.5,14.6,319.5z"/>
		<path fill="#FFFFFF" d="M217.2,477.6l-46.3-104.3c-2.1-4.8-5.8-8.7-10.5-11.1l-71.8-37.4c-1.6-0.8-3.5-0.7-4.9,0.4
			c-20.3,15.4-44.2,23.5-69.1,23.5c-24.9,0-48.8-8.1-69.1-23.5c-1.4-1.1-3.3-1.2-4.9-0.4l-71.8,37.4c-4.6,2.4-8.3,6.4-10.5,11.1
			L-188,477.6c-3.2,7.2-2.5,15.4,1.8,22c4.3,6.6,11.5,10.5,19.4,10.5H196c7.9,0,15.1-3.9,19.4-10.5
			C219.7,493,220.4,484.7,217.2,477.6z"/>
	</g>
</g>
</svg>
