<?xml version="1.0" encoding="utf-8"?>
<!-- Generator: Adobe Illustrator 18.1.1, SVG Export Plug-In . SVG Version: 6.00 Build 0)  -->
<svg version="1.1" id="Capa_1" xmlns="http://www.w3.org/2000/svg" xmlns:xlink="http://www.w3.org/1999/xlink" x="0px" y="0px"
	 viewBox="158.1 134.3 237.9 151.3" enable-background="new 158.1 134.3 237.9 151.3" xml:space="preserve">
<g>
	<g>
		<path d="M362.7,176.6L362.7,176.6c0-8.8-5.9-15.8-13.1-15.8c-1.8,0-3.4,0.4-5,1.2c0.5-1.7,1.2-3.9,2-6.1c3.2-8.5,5.5-9.6,6-9.8
			c1.2-0.4,1.9-1.7,1.5-3c-0.4-1.2-1.7-1.9-3-1.5c-3.2,1.1-6.1,5.2-8.9,12.6c-1.1,3.1-2,6-2.5,7.9c-1.6-0.8-3.4-1.3-5.2-1.3
			c-7.2,0-13.1,7-13.1,15.7v0l2.7,28.8c0,4.2,1.1,8.1,3.1,10.9c2.1,3.1,5.2,4.7,8.7,4.7c2.3,0,4.4-0.7,6.2-2.1
			c1.8,1.4,3.9,2.1,6.2,2.1c3.5,0,6.6-1.7,8.7-4.7c2-2.8,3-6.7,3.1-10.9L362.7,176.6z"/>
		<path d="M320.2,204.4L320.2,204.4l-2.7-26.9v-0.2c0-4.3,1.4-8.4,3.9-11.6c0.4-0.5,0.7-1.3,0.3-2c-0.2-0.5-0.8-1-2.1-1
			c-7.2,0-13.1,6.6-13.1,14.7v0l2.7,26.8c0,4,1.1,7.6,3.1,10.2c2.2,2.9,5.2,4.4,8.7,4.4c0.9,0,2.5,0,3-1.1c0.3-0.6,0.1-1.3-0.5-2.1
			C321.4,213.2,320.3,209.3,320.2,204.4z"/>
		<path d="M364.3,162.6c-1.3,0-1.9,0.6-2.1,1c-0.4,0.8-0.1,1.6,0.3,2c2.5,3.2,3.9,7.3,3.9,11.6v0.2l-2.7,26.8l0,0.1
			c-0.1,4.9-1.2,8.8-3.2,11.2c-0.6,0.8-0.8,1.5-0.5,2.1c0.5,1.1,2.1,1.1,3,1.1c3.5,0,6.5-1.5,8.7-4.4c2-2.6,3.1-6.3,3.1-10.2
			l2.7-26.8l0-0.1C377.4,169.2,371.5,162.6,364.3,162.6z"/>
	</g>
</g>
<g>
	<g>
		<path d="M270.4,234.5h10.8c9.1-5,12.4-13.9,13.6-18.6c0.4-1.6-0.6-3.2-2.3-3.4c-14-2-21.1,1.9-26.1,9.8c0.3,0.8,0.7,1.7,1,2.5
			c0.8,2,1.2,4.4,1.5,6.6c6.8-3.9,12.7-8.7,14.8-10.1C282.3,223,278,228.2,270.4,234.5z"/>
		<path d="M213.9,203.2c1.2,6.5,6,23.9,23.7,31.3h21.2c-6.7-12.2-18.8-18.2-24.2-21.5c4.1,0.8,16.9,5.1,28.5,17.2
			c0.9,0.9,2.7,2.9,2.8,2.9c-1.3-19.1-19-34.6-37.7-34.6c-3.8,0-7.9,0.5-12.2,1.5C214.6,200.4,213.7,201.8,213.9,203.2z"/>
		<path d="M316.2,240.5c0-1.5-1.2-2.7-2.7-2.7h-84c-1.5,0-2.7,1.2-2.7,2.7v0.3c0,21.9,17.8,39.7,39.7,39.7h10.1
			c21.9,0,39.7-17.8,39.7-39.7L316.2,240.5L316.2,240.5z"/>
	</g>
</g>
<g>
	<g>
		<path d="M236.4,160.8c1.4-0.3,1.8-2.1,0.6-2.9c-2-1.4-4.5-2.8-6.4-2.4l3.9-9.7c0.5-1.3-0.8-2.6-2.1-2.1l-9.8,3.9
			c0.4-1.9-1-4.4-2.4-6.4c-0.8-1.1-2.6-0.7-2.9,0.6c-0.7,4-2.6,8.5-3.6,10.7c1,0.7,2,1.5,2.9,2.4l6.6,6.6c0.9,0.9,1.7,1.9,2.4,2.9
			C227.9,163.4,232.4,161.6,236.4,160.8z"/>
		<path d="M221.2,163.6l-6.6-6.6c-2.9-2.9-6.6-4.2-10.2-4.2c-5,0-9.9,2.6-12.7,7.4l-7.2,12.8l7.8,12.9l-11.3-6.8l-15.9,28.3
			c-1.7,3,0.7,6.2,3.6,6.2c0.7,0,1.4-0.2,2.1-0.6l12.4-6.9l-4.1-7.7l9.1,4.9l25.4-14.3l-7-12.2l13.9,8
			C226.7,179.5,227.3,169.7,221.2,163.6z"/>
	</g>
</g>
</svg>
