<?xml version="1.0" encoding="utf-8"?>
<!-- Generator: Adobe Illustrator 18.1.1, SVG Export Plug-In . SVG Version: 6.00 Build 0)  -->
<svg version="1.1" id="Capa_1" xmlns="http://www.w3.org/2000/svg" xmlns:xlink="http://www.w3.org/1999/xlink" x="0px" y="0px"
	 viewBox="158.1 134.3 237.9 151.3" enable-background="new 158.1 134.3 237.9 151.3" xml:space="preserve">
<g>
	<path d="M320.1,178.2c0-11.9-4.3-28.7-10.9-42.6l-0.4-0.9h-56.6l-0.4,0.9c-6.6,13.9-10.9,30.6-10.9,42.6c0,20.6,13.1,36.3,32,39.6
		c-0.1,0.3-0.2,0.6-0.2,0.9v7.7c0,1.4,0.9,2.6,2.1,3c0,0.2,0,0.3,0,0.5c0,3.2,1.7,23.7,3.2,41.9c0,0,0,0.1,0,0.1c0,0.1,0,0.2,0,0.3
		c0.1,1.3,0.2,2.5,0.3,3.7c-0.3,4-3.1,4-5.2,7.4h-15c-1.8,0-3.3,1.5-3.3,3.3H306c0-1.8-1.5-3.3-3.3-3.3h-15
		c-2.1-3.5-4.9-3.4-5.2-7.4c0.1-1.2,0.2-2.5,0.3-3.7c0-0.1,0-0.2,0-0.3c0,0,0-0.1,0-0.1c1.5-18.2,3.2-38.7,3.2-41.9
		c0-0.2,0-0.3,0-0.5c1.2-0.5,2.1-1.7,2.1-3v-7.7c0-0.3-0.1-0.6-0.2-0.9C307,214.4,320.1,198.8,320.1,178.2z M254.2,137.9h52.5
		c2.7,5.9,5,12.3,6.7,18.7h-60.5c-5.2,16.8-6.9,31.8,3.1,47.8c-8.7-6.8-11.5-17.2-11.9-26.6C244.1,166.8,248.2,150.9,254.2,137.9z"
		/>
</g>
</svg>
